<?xml version="1.0" encoding="utf-8" standalone="no"?>
<!DOCTYPE svg PUBLIC "-//W3C//DTD SVG 1.1//EN"
  "http://www.w3.org/Graphics/SVG/1.1/DTD/svg11.dtd">
<!-- Created with matplotlib (https://matplotlib.org/) -->
<svg height="252pt" version="1.1" viewBox="0 0 288 252" width="288pt" xmlns="http://www.w3.org/2000/svg" xmlns:xlink="http://www.w3.org/1999/xlink">
 <defs>
  <style type="text/css">
*{stroke-linecap:butt;stroke-linejoin:round;}
  </style>
 </defs>
 <g id="figure_1">
  <g id="patch_1">
   <path d="M 0 252 
L 288 252 
L 288 0 
L 0 0 
z
" style="fill:#ffffff;"/>
  </g>
  <g id="axes_1">
   <g id="patch_2">
    <path d="M 64.55 198.9 
L 277.2 198.9 
L 277.2 10.8 
L 64.55 10.8 
z
" style="fill:#ffffff;"/>
   </g>
   <g id="matplotlib.axis_1">
    <g id="xtick_1">
     <g id="line2d_1">
      <defs>
       <path d="M 0 0 
L 0 3.5 
" id="m6d13396029" style="stroke:#000000;stroke-width:0.8;"/>
      </defs>
      <g>
       <use style="stroke:#000000;stroke-width:0.8;" x="71.779394" xlink:href="#m6d13396029" y="198.9"/>
      </g>
     </g>
     <g id="text_1">
      <!-- 0 -->
      <defs>
       <path d="M 31.78125 66.40625 
Q 24.171875 66.40625 20.328125 58.90625 
Q 16.5 51.421875 16.5 36.375 
Q 16.5 21.390625 20.328125 13.890625 
Q 24.171875 6.390625 31.78125 6.390625 
Q 39.453125 6.390625 43.28125 13.890625 
Q 47.125 21.390625 47.125 36.375 
Q 47.125 51.421875 43.28125 58.90625 
Q 39.453125 66.40625 31.78125 66.40625 
z
M 31.78125 74.21875 
Q 44.046875 74.21875 50.515625 64.515625 
Q 56.984375 54.828125 56.984375 36.375 
Q 56.984375 17.96875 50.515625 8.265625 
Q 44.046875 -1.421875 31.78125 -1.421875 
Q 19.53125 -1.421875 13.0625 8.265625 
Q 6.59375 17.96875 6.59375 36.375 
Q 6.59375 54.828125 13.0625 64.515625 
Q 19.53125 74.21875 31.78125 74.21875 
z
" id="DejaVuSans-48"/>
      </defs>
      <g transform="translate(68.598144 213.498437)scale(0.1 -0.1)">
       <use xlink:href="#DejaVuSans-48"/>
      </g>
     </g>
    </g>
    <g id="xtick_2">
     <g id="line2d_2">
      <g>
       <use style="stroke:#000000;stroke-width:0.8;" x="102.499201" xlink:href="#m6d13396029" y="198.9"/>
      </g>
     </g>
     <g id="text_2">
      <!-- 5 -->
      <defs>
       <path d="M 10.796875 72.90625 
L 49.515625 72.90625 
L 49.515625 64.59375 
L 19.828125 64.59375 
L 19.828125 46.734375 
Q 21.96875 47.46875 24.109375 47.828125 
Q 26.265625 48.1875 28.421875 48.1875 
Q 40.625 48.1875 47.75 41.5 
Q 54.890625 34.8125 54.890625 23.390625 
Q 54.890625 11.625 47.5625 5.09375 
Q 40.234375 -1.421875 26.90625 -1.421875 
Q 22.3125 -1.421875 17.546875 -0.640625 
Q 12.796875 0.140625 7.71875 1.703125 
L 7.71875 11.625 
Q 12.109375 9.234375 16.796875 8.0625 
Q 21.484375 6.890625 26.703125 6.890625 
Q 35.15625 6.890625 40.078125 11.328125 
Q 45.015625 15.765625 45.015625 23.390625 
Q 45.015625 31 40.078125 35.4375 
Q 35.15625 39.890625 26.703125 39.890625 
Q 22.75 39.890625 18.8125 39.015625 
Q 14.890625 38.140625 10.796875 36.28125 
z
" id="DejaVuSans-53"/>
      </defs>
      <g transform="translate(99.317951 213.498437)scale(0.1 -0.1)">
       <use xlink:href="#DejaVuSans-53"/>
      </g>
     </g>
    </g>
    <g id="xtick_3">
     <g id="line2d_3">
      <g>
       <use style="stroke:#000000;stroke-width:0.8;" x="133.219009" xlink:href="#m6d13396029" y="198.9"/>
      </g>
     </g>
     <g id="text_3">
      <!-- 10 -->
      <defs>
       <path d="M 12.40625 8.296875 
L 28.515625 8.296875 
L 28.515625 63.921875 
L 10.984375 60.40625 
L 10.984375 69.390625 
L 28.421875 72.90625 
L 38.28125 72.90625 
L 38.28125 8.296875 
L 54.390625 8.296875 
L 54.390625 0 
L 12.40625 0 
z
" id="DejaVuSans-49"/>
      </defs>
      <g transform="translate(126.856509 213.498437)scale(0.1 -0.1)">
       <use xlink:href="#DejaVuSans-49"/>
       <use x="63.623047" xlink:href="#DejaVuSans-48"/>
      </g>
     </g>
    </g>
    <g id="xtick_4">
     <g id="line2d_4">
      <g>
       <use style="stroke:#000000;stroke-width:0.8;" x="163.938817" xlink:href="#m6d13396029" y="198.9"/>
      </g>
     </g>
     <g id="text_4">
      <!-- 15 -->
      <g transform="translate(157.576317 213.498437)scale(0.1 -0.1)">
       <use xlink:href="#DejaVuSans-49"/>
       <use x="63.623047" xlink:href="#DejaVuSans-53"/>
      </g>
     </g>
    </g>
    <g id="xtick_5">
     <g id="line2d_5">
      <g>
       <use style="stroke:#000000;stroke-width:0.8;" x="194.658625" xlink:href="#m6d13396029" y="198.9"/>
      </g>
     </g>
     <g id="text_5">
      <!-- 20 -->
      <defs>
       <path d="M 19.1875 8.296875 
L 53.609375 8.296875 
L 53.609375 0 
L 7.328125 0 
L 7.328125 8.296875 
Q 12.9375 14.109375 22.625 23.890625 
Q 32.328125 33.6875 34.8125 36.53125 
Q 39.546875 41.84375 41.421875 45.53125 
Q 43.3125 49.21875 43.3125 52.78125 
Q 43.3125 58.59375 39.234375 62.25 
Q 35.15625 65.921875 28.609375 65.921875 
Q 23.96875 65.921875 18.8125 64.3125 
Q 13.671875 62.703125 7.8125 59.421875 
L 7.8125 69.390625 
Q 13.765625 71.78125 18.9375 73 
Q 24.125 74.21875 28.421875 74.21875 
Q 39.75 74.21875 46.484375 68.546875 
Q 53.21875 62.890625 53.21875 53.421875 
Q 53.21875 48.921875 51.53125 44.890625 
Q 49.859375 40.875 45.40625 35.40625 
Q 44.1875 33.984375 37.640625 27.21875 
Q 31.109375 20.453125 19.1875 8.296875 
z
" id="DejaVuSans-50"/>
      </defs>
      <g transform="translate(188.296125 213.498437)scale(0.1 -0.1)">
       <use xlink:href="#DejaVuSans-50"/>
       <use x="63.623047" xlink:href="#DejaVuSans-48"/>
      </g>
     </g>
    </g>
    <g id="xtick_6">
     <g id="line2d_6">
      <g>
       <use style="stroke:#000000;stroke-width:0.8;" x="225.378433" xlink:href="#m6d13396029" y="198.9"/>
      </g>
     </g>
     <g id="text_6">
      <!-- 25 -->
      <g transform="translate(219.015933 213.498437)scale(0.1 -0.1)">
       <use xlink:href="#DejaVuSans-50"/>
       <use x="63.623047" xlink:href="#DejaVuSans-53"/>
      </g>
     </g>
    </g>
    <g id="xtick_7">
     <g id="line2d_7">
      <g>
       <use style="stroke:#000000;stroke-width:0.8;" x="256.098241" xlink:href="#m6d13396029" y="198.9"/>
      </g>
     </g>
     <g id="text_7">
      <!-- 30 -->
      <defs>
       <path d="M 40.578125 39.3125 
Q 47.65625 37.796875 51.625 33 
Q 55.609375 28.21875 55.609375 21.1875 
Q 55.609375 10.40625 48.1875 4.484375 
Q 40.765625 -1.421875 27.09375 -1.421875 
Q 22.515625 -1.421875 17.65625 -0.515625 
Q 12.796875 0.390625 7.625 2.203125 
L 7.625 11.71875 
Q 11.71875 9.328125 16.59375 8.109375 
Q 21.484375 6.890625 26.8125 6.890625 
Q 36.078125 6.890625 40.9375 10.546875 
Q 45.796875 14.203125 45.796875 21.1875 
Q 45.796875 27.640625 41.28125 31.265625 
Q 36.765625 34.90625 28.71875 34.90625 
L 20.21875 34.90625 
L 20.21875 43.015625 
L 29.109375 43.015625 
Q 36.375 43.015625 40.234375 45.921875 
Q 44.09375 48.828125 44.09375 54.296875 
Q 44.09375 59.90625 40.109375 62.90625 
Q 36.140625 65.921875 28.71875 65.921875 
Q 24.65625 65.921875 20.015625 65.03125 
Q 15.375 64.15625 9.8125 62.3125 
L 9.8125 71.09375 
Q 15.4375 72.65625 20.34375 73.4375 
Q 25.25 74.21875 29.59375 74.21875 
Q 40.828125 74.21875 47.359375 69.109375 
Q 53.90625 64.015625 53.90625 55.328125 
Q 53.90625 49.265625 50.4375 45.09375 
Q 46.96875 40.921875 40.578125 39.3125 
z
" id="DejaVuSans-51"/>
      </defs>
      <g transform="translate(249.735741 213.498437)scale(0.1 -0.1)">
       <use xlink:href="#DejaVuSans-51"/>
       <use x="63.623047" xlink:href="#DejaVuSans-48"/>
      </g>
     </g>
    </g>
    <g id="text_8">
     <!-- $k_s^+$ -->
     <defs>
      <path d="M 18.3125 75.984375 
L 27.296875 75.984375 
L 18.703125 31.6875 
L 49.515625 54.6875 
L 61.1875 54.6875 
L 26.8125 28.515625 
L 51.90625 0 
L 41.015625 0 
L 17.671875 26.703125 
L 12.5 0 
L 3.515625 0 
z
" id="DejaVuSans-Oblique-107"/>
      <path d="M 46 62.703125 
L 46 35.5 
L 73.1875 35.5 
L 73.1875 27.203125 
L 46 27.203125 
L 46 0 
L 37.796875 0 
L 37.796875 27.203125 
L 10.59375 27.203125 
L 10.59375 35.5 
L 37.796875 35.5 
L 37.796875 62.703125 
z
" id="DejaVuSans-43"/>
      <path d="M 50 53.078125 
L 48.296875 44.578125 
Q 44.734375 46.53125 40.765625 47.5 
Q 36.8125 48.484375 32.625 48.484375 
Q 25.53125 48.484375 21.453125 46.0625 
Q 17.390625 43.65625 17.390625 39.5 
Q 17.390625 34.671875 26.859375 32.078125 
Q 27.59375 31.890625 27.9375 31.78125 
L 30.8125 30.90625 
Q 39.796875 28.421875 42.796875 25.6875 
Q 45.796875 22.953125 45.796875 18.21875 
Q 45.796875 9.515625 38.890625 4.046875 
Q 31.984375 -1.421875 20.796875 -1.421875 
Q 16.453125 -1.421875 11.671875 -0.578125 
Q 6.890625 0.25 1.125 2 
L 2.875 11.28125 
Q 7.8125 8.734375 12.59375 7.421875 
Q 17.390625 6.109375 21.78125 6.109375 
Q 28.375 6.109375 32.5 8.9375 
Q 36.625 11.765625 36.625 16.109375 
Q 36.625 20.796875 25.78125 23.6875 
L 24.859375 23.921875 
L 21.78125 24.703125 
Q 14.9375 26.515625 11.765625 29.46875 
Q 8.59375 32.421875 8.59375 37.015625 
Q 8.59375 45.75 15.15625 50.875 
Q 21.734375 56 33.015625 56 
Q 37.453125 56 41.671875 55.265625 
Q 45.90625 54.546875 50 53.078125 
z
" id="DejaVuSans-Oblique-115"/>
     </defs>
     <g transform="translate(160.025 231.198125)scale(0.14 -0.14)">
      <use transform="translate(0 0.826562)" xlink:href="#DejaVuSans-Oblique-107"/>
      <use transform="translate(78.99556 39.107813)scale(0.7)" xlink:href="#DejaVuSans-43"/>
      <use transform="translate(57.910156 -26.517188)scale(0.7)" xlink:href="#DejaVuSans-Oblique-115"/>
     </g>
    </g>
   </g>
   <g id="matplotlib.axis_2">
    <g id="ytick_1">
     <g id="line2d_8">
      <defs>
       <path d="M 0 0 
L -3.5 0 
" id="mc315390045" style="stroke:#000000;stroke-width:0.8;"/>
      </defs>
      <g>
       <use style="stroke:#000000;stroke-width:0.8;" x="64.55" xlink:href="#mc315390045" y="183.126205"/>
      </g>
     </g>
     <g id="text_9">
      <!-- 0.289 -->
      <defs>
       <path d="M 10.6875 12.40625 
L 21 12.40625 
L 21 0 
L 10.6875 0 
z
" id="DejaVuSans-46"/>
       <path d="M 31.78125 34.625 
Q 24.75 34.625 20.71875 30.859375 
Q 16.703125 27.09375 16.703125 20.515625 
Q 16.703125 13.921875 20.71875 10.15625 
Q 24.75 6.390625 31.78125 6.390625 
Q 38.8125 6.390625 42.859375 10.171875 
Q 46.921875 13.96875 46.921875 20.515625 
Q 46.921875 27.09375 42.890625 30.859375 
Q 38.875 34.625 31.78125 34.625 
z
M 21.921875 38.8125 
Q 15.578125 40.375 12.03125 44.71875 
Q 8.5 49.078125 8.5 55.328125 
Q 8.5 64.0625 14.71875 69.140625 
Q 20.953125 74.21875 31.78125 74.21875 
Q 42.671875 74.21875 48.875 69.140625 
Q 55.078125 64.0625 55.078125 55.328125 
Q 55.078125 49.078125 51.53125 44.71875 
Q 48 40.375 41.703125 38.8125 
Q 48.828125 37.15625 52.796875 32.3125 
Q 56.78125 27.484375 56.78125 20.515625 
Q 56.78125 9.90625 50.3125 4.234375 
Q 43.84375 -1.421875 31.78125 -1.421875 
Q 19.734375 -1.421875 13.25 4.234375 
Q 6.78125 9.90625 6.78125 20.515625 
Q 6.78125 27.484375 10.78125 32.3125 
Q 14.796875 37.15625 21.921875 38.8125 
z
M 18.3125 54.390625 
Q 18.3125 48.734375 21.84375 45.5625 
Q 25.390625 42.390625 31.78125 42.390625 
Q 38.140625 42.390625 41.71875 45.5625 
Q 45.3125 48.734375 45.3125 54.390625 
Q 45.3125 60.0625 41.71875 63.234375 
Q 38.140625 66.40625 31.78125 66.40625 
Q 25.390625 66.40625 21.84375 63.234375 
Q 18.3125 60.0625 18.3125 54.390625 
z
" id="DejaVuSans-56"/>
       <path d="M 10.984375 1.515625 
L 10.984375 10.5 
Q 14.703125 8.734375 18.5 7.8125 
Q 22.3125 6.890625 25.984375 6.890625 
Q 35.75 6.890625 40.890625 13.453125 
Q 46.046875 20.015625 46.78125 33.40625 
Q 43.953125 29.203125 39.59375 26.953125 
Q 35.25 24.703125 29.984375 24.703125 
Q 19.046875 24.703125 12.671875 31.3125 
Q 6.296875 37.9375 6.296875 49.421875 
Q 6.296875 60.640625 12.9375 67.421875 
Q 19.578125 74.21875 30.609375 74.21875 
Q 43.265625 74.21875 49.921875 64.515625 
Q 56.59375 54.828125 56.59375 36.375 
Q 56.59375 19.140625 48.40625 8.859375 
Q 40.234375 -1.421875 26.421875 -1.421875 
Q 22.703125 -1.421875 18.890625 -0.6875 
Q 15.09375 0.046875 10.984375 1.515625 
z
M 30.609375 32.421875 
Q 37.25 32.421875 41.125 36.953125 
Q 45.015625 41.5 45.015625 49.421875 
Q 45.015625 57.28125 41.125 61.84375 
Q 37.25 66.40625 30.609375 66.40625 
Q 23.96875 66.40625 20.09375 61.84375 
Q 16.21875 57.28125 16.21875 49.421875 
Q 16.21875 41.5 20.09375 36.953125 
Q 23.96875 32.421875 30.609375 32.421875 
z
" id="DejaVuSans-57"/>
      </defs>
      <g transform="translate(28.921875 186.925424)scale(0.1 -0.1)">
       <use xlink:href="#DejaVuSans-48"/>
       <use x="63.623047" xlink:href="#DejaVuSans-46"/>
       <use x="95.410156" xlink:href="#DejaVuSans-50"/>
       <use x="159.033203" xlink:href="#DejaVuSans-56"/>
       <use x="222.65625" xlink:href="#DejaVuSans-57"/>
      </g>
     </g>
    </g>
    <g id="ytick_2">
     <g id="line2d_9">
      <g>
       <use style="stroke:#000000;stroke-width:0.8;" x="64.55" xlink:href="#mc315390045" y="159.266898"/>
      </g>
     </g>
     <g id="text_10">
      <!-- 0.290 -->
      <g transform="translate(28.921875 163.066117)scale(0.1 -0.1)">
       <use xlink:href="#DejaVuSans-48"/>
       <use x="63.623047" xlink:href="#DejaVuSans-46"/>
       <use x="95.410156" xlink:href="#DejaVuSans-50"/>
       <use x="159.033203" xlink:href="#DejaVuSans-57"/>
       <use x="222.65625" xlink:href="#DejaVuSans-48"/>
      </g>
     </g>
    </g>
    <g id="ytick_3">
     <g id="line2d_10">
      <g>
       <use style="stroke:#000000;stroke-width:0.8;" x="64.55" xlink:href="#mc315390045" y="135.407591"/>
      </g>
     </g>
     <g id="text_11">
      <!-- 0.291 -->
      <g transform="translate(28.921875 139.20681)scale(0.1 -0.1)">
       <use xlink:href="#DejaVuSans-48"/>
       <use x="63.623047" xlink:href="#DejaVuSans-46"/>
       <use x="95.410156" xlink:href="#DejaVuSans-50"/>
       <use x="159.033203" xlink:href="#DejaVuSans-57"/>
       <use x="222.65625" xlink:href="#DejaVuSans-49"/>
      </g>
     </g>
    </g>
    <g id="ytick_4">
     <g id="line2d_11">
      <g>
       <use style="stroke:#000000;stroke-width:0.8;" x="64.55" xlink:href="#mc315390045" y="111.548284"/>
      </g>
     </g>
     <g id="text_12">
      <!-- 0.292 -->
      <g transform="translate(28.921875 115.347503)scale(0.1 -0.1)">
       <use xlink:href="#DejaVuSans-48"/>
       <use x="63.623047" xlink:href="#DejaVuSans-46"/>
       <use x="95.410156" xlink:href="#DejaVuSans-50"/>
       <use x="159.033203" xlink:href="#DejaVuSans-57"/>
       <use x="222.65625" xlink:href="#DejaVuSans-50"/>
      </g>
     </g>
    </g>
    <g id="ytick_5">
     <g id="line2d_12">
      <g>
       <use style="stroke:#000000;stroke-width:0.8;" x="64.55" xlink:href="#mc315390045" y="87.688978"/>
      </g>
     </g>
     <g id="text_13">
      <!-- 0.293 -->
      <g transform="translate(28.921875 91.488196)scale(0.1 -0.1)">
       <use xlink:href="#DejaVuSans-48"/>
       <use x="63.623047" xlink:href="#DejaVuSans-46"/>
       <use x="95.410156" xlink:href="#DejaVuSans-50"/>
       <use x="159.033203" xlink:href="#DejaVuSans-57"/>
       <use x="222.65625" xlink:href="#DejaVuSans-51"/>
      </g>
     </g>
    </g>
    <g id="ytick_6">
     <g id="line2d_13">
      <g>
       <use style="stroke:#000000;stroke-width:0.8;" x="64.55" xlink:href="#mc315390045" y="63.829671"/>
      </g>
     </g>
     <g id="text_14">
      <!-- 0.294 -->
      <defs>
       <path d="M 37.796875 64.3125 
L 12.890625 25.390625 
L 37.796875 25.390625 
z
M 35.203125 72.90625 
L 47.609375 72.90625 
L 47.609375 25.390625 
L 58.015625 25.390625 
L 58.015625 17.1875 
L 47.609375 17.1875 
L 47.609375 0 
L 37.796875 0 
L 37.796875 17.1875 
L 4.890625 17.1875 
L 4.890625 26.703125 
z
" id="DejaVuSans-52"/>
      </defs>
      <g transform="translate(28.921875 67.62889)scale(0.1 -0.1)">
       <use xlink:href="#DejaVuSans-48"/>
       <use x="63.623047" xlink:href="#DejaVuSans-46"/>
       <use x="95.410156" xlink:href="#DejaVuSans-50"/>
       <use x="159.033203" xlink:href="#DejaVuSans-57"/>
       <use x="222.65625" xlink:href="#DejaVuSans-52"/>
      </g>
     </g>
    </g>
    <g id="ytick_7">
     <g id="line2d_14">
      <g>
       <use style="stroke:#000000;stroke-width:0.8;" x="64.55" xlink:href="#mc315390045" y="39.970364"/>
      </g>
     </g>
     <g id="text_15">
      <!-- 0.295 -->
      <g transform="translate(28.921875 43.769583)scale(0.1 -0.1)">
       <use xlink:href="#DejaVuSans-48"/>
       <use x="63.623047" xlink:href="#DejaVuSans-46"/>
       <use x="95.410156" xlink:href="#DejaVuSans-50"/>
       <use x="159.033203" xlink:href="#DejaVuSans-57"/>
       <use x="222.65625" xlink:href="#DejaVuSans-53"/>
      </g>
     </g>
    </g>
    <g id="ytick_8">
     <g id="line2d_15">
      <g>
       <use style="stroke:#000000;stroke-width:0.8;" x="64.55" xlink:href="#mc315390045" y="16.111057"/>
      </g>
     </g>
     <g id="text_16">
      <!-- 0.296 -->
      <defs>
       <path d="M 33.015625 40.375 
Q 26.375 40.375 22.484375 35.828125 
Q 18.609375 31.296875 18.609375 23.390625 
Q 18.609375 15.53125 22.484375 10.953125 
Q 26.375 6.390625 33.015625 6.390625 
Q 39.65625 6.390625 43.53125 10.953125 
Q 47.40625 15.53125 47.40625 23.390625 
Q 47.40625 31.296875 43.53125 35.828125 
Q 39.65625 40.375 33.015625 40.375 
z
M 52.59375 71.296875 
L 52.59375 62.3125 
Q 48.875 64.0625 45.09375 64.984375 
Q 41.3125 65.921875 37.59375 65.921875 
Q 27.828125 65.921875 22.671875 59.328125 
Q 17.53125 52.734375 16.796875 39.40625 
Q 19.671875 43.65625 24.015625 45.921875 
Q 28.375 48.1875 33.59375 48.1875 
Q 44.578125 48.1875 50.953125 41.515625 
Q 57.328125 34.859375 57.328125 23.390625 
Q 57.328125 12.15625 50.6875 5.359375 
Q 44.046875 -1.421875 33.015625 -1.421875 
Q 20.359375 -1.421875 13.671875 8.265625 
Q 6.984375 17.96875 6.984375 36.375 
Q 6.984375 53.65625 15.1875 63.9375 
Q 23.390625 74.21875 37.203125 74.21875 
Q 40.921875 74.21875 44.703125 73.484375 
Q 48.484375 72.75 52.59375 71.296875 
z
" id="DejaVuSans-54"/>
      </defs>
      <g transform="translate(28.921875 19.910276)scale(0.1 -0.1)">
       <use xlink:href="#DejaVuSans-48"/>
       <use x="63.623047" xlink:href="#DejaVuSans-46"/>
       <use x="95.410156" xlink:href="#DejaVuSans-50"/>
       <use x="159.033203" xlink:href="#DejaVuSans-57"/>
       <use x="222.65625" xlink:href="#DejaVuSans-54"/>
      </g>
     </g>
    </g>
    <g id="text_17">
     <!-- Max Velocity [m/s] -->
     <defs>
      <path d="M 9.8125 72.90625 
L 24.515625 72.90625 
L 43.109375 23.296875 
L 61.8125 72.90625 
L 76.515625 72.90625 
L 76.515625 0 
L 66.890625 0 
L 66.890625 64.015625 
L 48.09375 14.015625 
L 38.1875 14.015625 
L 19.390625 64.015625 
L 19.390625 0 
L 9.8125 0 
z
" id="DejaVuSans-77"/>
      <path d="M 34.28125 27.484375 
Q 23.390625 27.484375 19.1875 25 
Q 14.984375 22.515625 14.984375 16.5 
Q 14.984375 11.71875 18.140625 8.90625 
Q 21.296875 6.109375 26.703125 6.109375 
Q 34.1875 6.109375 38.703125 11.40625 
Q 43.21875 16.703125 43.21875 25.484375 
L 43.21875 27.484375 
z
M 52.203125 31.203125 
L 52.203125 0 
L 43.21875 0 
L 43.21875 8.296875 
Q 40.140625 3.328125 35.546875 0.953125 
Q 30.953125 -1.421875 24.3125 -1.421875 
Q 15.921875 -1.421875 10.953125 3.296875 
Q 6 8.015625 6 15.921875 
Q 6 25.140625 12.171875 29.828125 
Q 18.359375 34.515625 30.609375 34.515625 
L 43.21875 34.515625 
L 43.21875 35.40625 
Q 43.21875 41.609375 39.140625 45 
Q 35.0625 48.390625 27.6875 48.390625 
Q 23 48.390625 18.546875 47.265625 
Q 14.109375 46.140625 10.015625 43.890625 
L 10.015625 52.203125 
Q 14.9375 54.109375 19.578125 55.046875 
Q 24.21875 56 28.609375 56 
Q 40.484375 56 46.34375 49.84375 
Q 52.203125 43.703125 52.203125 31.203125 
z
" id="DejaVuSans-97"/>
      <path d="M 54.890625 54.6875 
L 35.109375 28.078125 
L 55.90625 0 
L 45.3125 0 
L 29.390625 21.484375 
L 13.484375 0 
L 2.875 0 
L 24.125 28.609375 
L 4.6875 54.6875 
L 15.28125 54.6875 
L 29.78125 35.203125 
L 44.28125 54.6875 
z
" id="DejaVuSans-120"/>
      <path id="DejaVuSans-32"/>
      <path d="M 28.609375 0 
L 0.78125 72.90625 
L 11.078125 72.90625 
L 34.1875 11.53125 
L 57.328125 72.90625 
L 67.578125 72.90625 
L 39.796875 0 
z
" id="DejaVuSans-86"/>
      <path d="M 56.203125 29.59375 
L 56.203125 25.203125 
L 14.890625 25.203125 
Q 15.484375 15.921875 20.484375 11.0625 
Q 25.484375 6.203125 34.421875 6.203125 
Q 39.59375 6.203125 44.453125 7.46875 
Q 49.3125 8.734375 54.109375 11.28125 
L 54.109375 2.78125 
Q 49.265625 0.734375 44.1875 -0.34375 
Q 39.109375 -1.421875 33.890625 -1.421875 
Q 20.796875 -1.421875 13.15625 6.1875 
Q 5.515625 13.8125 5.515625 26.8125 
Q 5.515625 40.234375 12.765625 48.109375 
Q 20.015625 56 32.328125 56 
Q 43.359375 56 49.78125 48.890625 
Q 56.203125 41.796875 56.203125 29.59375 
z
M 47.21875 32.234375 
Q 47.125 39.59375 43.09375 43.984375 
Q 39.0625 48.390625 32.421875 48.390625 
Q 24.90625 48.390625 20.390625 44.140625 
Q 15.875 39.890625 15.1875 32.171875 
z
" id="DejaVuSans-101"/>
      <path d="M 9.421875 75.984375 
L 18.40625 75.984375 
L 18.40625 0 
L 9.421875 0 
z
" id="DejaVuSans-108"/>
      <path d="M 30.609375 48.390625 
Q 23.390625 48.390625 19.1875 42.75 
Q 14.984375 37.109375 14.984375 27.296875 
Q 14.984375 17.484375 19.15625 11.84375 
Q 23.34375 6.203125 30.609375 6.203125 
Q 37.796875 6.203125 41.984375 11.859375 
Q 46.1875 17.53125 46.1875 27.296875 
Q 46.1875 37.015625 41.984375 42.703125 
Q 37.796875 48.390625 30.609375 48.390625 
z
M 30.609375 56 
Q 42.328125 56 49.015625 48.375 
Q 55.71875 40.765625 55.71875 27.296875 
Q 55.71875 13.875 49.015625 6.21875 
Q 42.328125 -1.421875 30.609375 -1.421875 
Q 18.84375 -1.421875 12.171875 6.21875 
Q 5.515625 13.875 5.515625 27.296875 
Q 5.515625 40.765625 12.171875 48.375 
Q 18.84375 56 30.609375 56 
z
" id="DejaVuSans-111"/>
      <path d="M 48.78125 52.59375 
L 48.78125 44.1875 
Q 44.96875 46.296875 41.140625 47.34375 
Q 37.3125 48.390625 33.40625 48.390625 
Q 24.65625 48.390625 19.8125 42.84375 
Q 14.984375 37.3125 14.984375 27.296875 
Q 14.984375 17.28125 19.8125 11.734375 
Q 24.65625 6.203125 33.40625 6.203125 
Q 37.3125 6.203125 41.140625 7.25 
Q 44.96875 8.296875 48.78125 10.40625 
L 48.78125 2.09375 
Q 45.015625 0.34375 40.984375 -0.53125 
Q 36.96875 -1.421875 32.421875 -1.421875 
Q 20.0625 -1.421875 12.78125 6.34375 
Q 5.515625 14.109375 5.515625 27.296875 
Q 5.515625 40.671875 12.859375 48.328125 
Q 20.21875 56 33.015625 56 
Q 37.15625 56 41.109375 55.140625 
Q 45.0625 54.296875 48.78125 52.59375 
z
" id="DejaVuSans-99"/>
      <path d="M 9.421875 54.6875 
L 18.40625 54.6875 
L 18.40625 0 
L 9.421875 0 
z
M 9.421875 75.984375 
L 18.40625 75.984375 
L 18.40625 64.59375 
L 9.421875 64.59375 
z
" id="DejaVuSans-105"/>
      <path d="M 18.3125 70.21875 
L 18.3125 54.6875 
L 36.8125 54.6875 
L 36.8125 47.703125 
L 18.3125 47.703125 
L 18.3125 18.015625 
Q 18.3125 11.328125 20.140625 9.421875 
Q 21.96875 7.515625 27.59375 7.515625 
L 36.8125 7.515625 
L 36.8125 0 
L 27.59375 0 
Q 17.1875 0 13.234375 3.875 
Q 9.28125 7.765625 9.28125 18.015625 
L 9.28125 47.703125 
L 2.6875 47.703125 
L 2.6875 54.6875 
L 9.28125 54.6875 
L 9.28125 70.21875 
z
" id="DejaVuSans-116"/>
      <path d="M 32.171875 -5.078125 
Q 28.375 -14.84375 24.75 -17.8125 
Q 21.140625 -20.796875 15.09375 -20.796875 
L 7.90625 -20.796875 
L 7.90625 -13.28125 
L 13.1875 -13.28125 
Q 16.890625 -13.28125 18.9375 -11.515625 
Q 21 -9.765625 23.484375 -3.21875 
L 25.09375 0.875 
L 2.984375 54.6875 
L 12.5 54.6875 
L 29.59375 11.921875 
L 46.6875 54.6875 
L 56.203125 54.6875 
z
" id="DejaVuSans-121"/>
      <path d="M 8.59375 75.984375 
L 29.296875 75.984375 
L 29.296875 69 
L 17.578125 69 
L 17.578125 -6.203125 
L 29.296875 -6.203125 
L 29.296875 -13.1875 
L 8.59375 -13.1875 
z
" id="DejaVuSans-91"/>
      <path d="M 52 44.1875 
Q 55.375 50.25 60.0625 53.125 
Q 64.75 56 71.09375 56 
Q 79.640625 56 84.28125 50.015625 
Q 88.921875 44.046875 88.921875 33.015625 
L 88.921875 0 
L 79.890625 0 
L 79.890625 32.71875 
Q 79.890625 40.578125 77.09375 44.375 
Q 74.3125 48.1875 68.609375 48.1875 
Q 61.625 48.1875 57.5625 43.546875 
Q 53.515625 38.921875 53.515625 30.90625 
L 53.515625 0 
L 44.484375 0 
L 44.484375 32.71875 
Q 44.484375 40.625 41.703125 44.40625 
Q 38.921875 48.1875 33.109375 48.1875 
Q 26.21875 48.1875 22.15625 43.53125 
Q 18.109375 38.875 18.109375 30.90625 
L 18.109375 0 
L 9.078125 0 
L 9.078125 54.6875 
L 18.109375 54.6875 
L 18.109375 46.1875 
Q 21.1875 51.21875 25.484375 53.609375 
Q 29.78125 56 35.6875 56 
Q 41.65625 56 45.828125 52.96875 
Q 50 49.953125 52 44.1875 
z
" id="DejaVuSans-109"/>
      <path d="M 25.390625 72.90625 
L 33.6875 72.90625 
L 8.296875 -9.28125 
L 0 -9.28125 
z
" id="DejaVuSans-47"/>
      <path d="M 44.28125 53.078125 
L 44.28125 44.578125 
Q 40.484375 46.53125 36.375 47.5 
Q 32.28125 48.484375 27.875 48.484375 
Q 21.1875 48.484375 17.84375 46.4375 
Q 14.5 44.390625 14.5 40.28125 
Q 14.5 37.15625 16.890625 35.375 
Q 19.28125 33.59375 26.515625 31.984375 
L 29.59375 31.296875 
Q 39.15625 29.25 43.1875 25.515625 
Q 47.21875 21.78125 47.21875 15.09375 
Q 47.21875 7.46875 41.1875 3.015625 
Q 35.15625 -1.421875 24.609375 -1.421875 
Q 20.21875 -1.421875 15.453125 -0.5625 
Q 10.6875 0.296875 5.421875 2 
L 5.421875 11.28125 
Q 10.40625 8.6875 15.234375 7.390625 
Q 20.0625 6.109375 24.8125 6.109375 
Q 31.15625 6.109375 34.5625 8.28125 
Q 37.984375 10.453125 37.984375 14.40625 
Q 37.984375 18.0625 35.515625 20.015625 
Q 33.0625 21.96875 24.703125 23.78125 
L 21.578125 24.515625 
Q 13.234375 26.265625 9.515625 29.90625 
Q 5.8125 33.546875 5.8125 39.890625 
Q 5.8125 47.609375 11.28125 51.796875 
Q 16.75 56 26.8125 56 
Q 31.78125 56 36.171875 55.265625 
Q 40.578125 54.546875 44.28125 53.078125 
z
" id="DejaVuSans-115"/>
      <path d="M 30.421875 75.984375 
L 30.421875 -13.1875 
L 9.71875 -13.1875 
L 9.71875 -6.203125 
L 21.390625 -6.203125 
L 21.390625 69 
L 9.71875 69 
L 9.71875 75.984375 
z
" id="DejaVuSans-93"/>
     </defs>
     <g transform="translate(22.010312 169.519063)rotate(-90)scale(0.14 -0.14)">
      <use xlink:href="#DejaVuSans-77"/>
      <use x="86.279297" xlink:href="#DejaVuSans-97"/>
      <use x="147.558594" xlink:href="#DejaVuSans-120"/>
      <use x="206.738281" xlink:href="#DejaVuSans-32"/>
      <use x="238.525391" xlink:href="#DejaVuSans-86"/>
      <use x="299.183594" xlink:href="#DejaVuSans-101"/>
      <use x="360.707031" xlink:href="#DejaVuSans-108"/>
      <use x="388.490234" xlink:href="#DejaVuSans-111"/>
      <use x="449.671875" xlink:href="#DejaVuSans-99"/>
      <use x="504.652344" xlink:href="#DejaVuSans-105"/>
      <use x="532.435547" xlink:href="#DejaVuSans-116"/>
      <use x="571.644531" xlink:href="#DejaVuSans-121"/>
      <use x="630.824219" xlink:href="#DejaVuSans-32"/>
      <use x="662.611328" xlink:href="#DejaVuSans-91"/>
      <use x="701.625" xlink:href="#DejaVuSans-109"/>
      <use x="799.037109" xlink:href="#DejaVuSans-47"/>
      <use x="832.728516" xlink:href="#DejaVuSans-115"/>
      <use x="884.828125" xlink:href="#DejaVuSans-93"/>
     </g>
    </g>
   </g>
   <g id="line2d_16">
    <path clip-path="url(#p0942737e7e)" d="M 74.215909 19.35 
L 76.618708 42.349252 
L 79.00212 56.021284 
L 81.370216 65.837389 
L 83.725146 73.525947 
L 86.068266 79.861272 
L 88.400517 85.258343 
L 90.722593 89.965856 
L 93.035026 94.144793 
L 95.338237 97.905418 
L 97.632565 101.326607 
L 99.918289 104.466753 
L 102.19564 107.370312 
L 104.464813 110.071919 
L 106.725972 112.599095 
L 108.979256 114.974068 
L 111.224784 117.215057 
L 113.462658 119.337182 
L 115.692963 121.353134 
L 117.915772 123.273665 
L 120.131148 125.107971 
L 122.339143 126.863975 
L 124.539799 128.548555 
L 126.733153 130.167719 
L 128.919232 131.726747 
L 131.098058 133.230305 
L 133.269646 134.682536 
L 135.434008 136.087138 
L 137.591148 137.447421 
L 139.741068 138.766366 
L 141.883764 140.046661 
L 144.019227 141.290745 
L 146.147447 142.500832 
L 148.268409 143.678942 
L 150.382094 144.826921 
L 152.48848 145.946461 
L 154.587543 147.039119 
L 156.679254 148.106328 
L 158.763582 149.149411 
L 160.840495 150.169593 
L 162.909954 151.168009 
L 164.971921 152.145714 
L 167.026355 153.103691 
L 169.073211 154.042856 
L 171.112441 154.964062 
L 173.143997 155.868112 
L 175.167827 156.755754 
L 177.183875 157.627693 
L 179.192086 158.484589 
L 181.192403 159.327068 
L 183.184757 160.155711 
L 185.169089 160.971074 
L 187.145331 161.77368 
L 189.113413 162.564022 
L 191.073265 163.342571 
L 193.024812 164.109768 
L 194.967977 164.866037 
L 196.902681 165.611776 
L 198.828842 166.347368 
L 200.746375 167.073175 
L 202.655193 167.789541 
L 204.555207 168.496798 
L 206.446322 169.195259 
L 208.328445 169.885225 
L 210.201476 170.566985 
L 212.065313 171.240814 
L 213.919852 171.906975 
L 215.764986 172.565723 
L 217.600604 173.217301 
L 219.426591 173.861942 
L 221.242831 174.499871 
L 223.049202 175.131305 
L 224.84558 175.756452 
L 226.631837 176.375513 
L 228.407841 176.988681 
L 230.173457 177.596145 
L 231.928545 178.198085 
L 233.672961 178.794677 
L 235.406558 179.386089 
L 237.129183 179.972487 
L 238.84068 180.554029 
L 240.540886 181.130871 
L 242.229637 181.703162 
L 243.90676 182.271049 
L 245.572078 182.834674 
L 247.225411 183.394175 
L 248.866571 183.949688 
L 250.495364 184.501344 
L 252.111591 185.049272 
L 253.715047 185.593598 
L 255.305519 186.134445 
L 256.88279 186.671933 
L 258.446632 187.206182 
L 259.996814 187.737306 
L 261.533094 188.265421 
L 263.055223 188.790638 
L 264.562944 189.313068 
L 266.055992 189.83282 
L 267.534091 190.35 
" style="fill:none;stroke:#ffa500;stroke-linecap:square;stroke-width:1.5;"/>
    <defs>
     <path d="M 0 1.5 
C 0.397805 1.5 0.77937 1.341951 1.06066 1.06066 
C 1.341951 0.77937 1.5 0.397805 1.5 0 
C 1.5 -0.397805 1.341951 -0.77937 1.06066 -1.06066 
C 0.77937 -1.341951 0.397805 -1.5 0 -1.5 
C -0.397805 -1.5 -0.77937 -1.341951 -1.06066 -1.06066 
C -1.341951 -0.77937 -1.5 -0.397805 -1.5 0 
C -1.5 0.397805 -1.341951 0.77937 -1.06066 1.06066 
C -0.77937 1.341951 -0.397805 1.5 0 1.5 
z
" id="m4e1263bdca" style="stroke:#ffa500;"/>
    </defs>
    <g clip-path="url(#p0942737e7e)">
     <use style="fill:#ffa500;stroke:#ffa500;" x="74.215909" xlink:href="#m4e1263bdca" y="19.35"/>
     <use style="fill:#ffa500;stroke:#ffa500;" x="76.618708" xlink:href="#m4e1263bdca" y="42.349252"/>
     <use style="fill:#ffa500;stroke:#ffa500;" x="79.00212" xlink:href="#m4e1263bdca" y="56.021284"/>
     <use style="fill:#ffa500;stroke:#ffa500;" x="81.370216" xlink:href="#m4e1263bdca" y="65.837389"/>
     <use style="fill:#ffa500;stroke:#ffa500;" x="83.725146" xlink:href="#m4e1263bdca" y="73.525947"/>
     <use style="fill:#ffa500;stroke:#ffa500;" x="86.068266" xlink:href="#m4e1263bdca" y="79.861272"/>
     <use style="fill:#ffa500;stroke:#ffa500;" x="88.400517" xlink:href="#m4e1263bdca" y="85.258343"/>
     <use style="fill:#ffa500;stroke:#ffa500;" x="90.722593" xlink:href="#m4e1263bdca" y="89.965856"/>
     <use style="fill:#ffa500;stroke:#ffa500;" x="93.035026" xlink:href="#m4e1263bdca" y="94.144793"/>
     <use style="fill:#ffa500;stroke:#ffa500;" x="95.338237" xlink:href="#m4e1263bdca" y="97.905418"/>
     <use style="fill:#ffa500;stroke:#ffa500;" x="97.632565" xlink:href="#m4e1263bdca" y="101.326607"/>
     <use style="fill:#ffa500;stroke:#ffa500;" x="99.918289" xlink:href="#m4e1263bdca" y="104.466753"/>
     <use style="fill:#ffa500;stroke:#ffa500;" x="102.19564" xlink:href="#m4e1263bdca" y="107.370312"/>
     <use style="fill:#ffa500;stroke:#ffa500;" x="104.464813" xlink:href="#m4e1263bdca" y="110.071919"/>
     <use style="fill:#ffa500;stroke:#ffa500;" x="106.725972" xlink:href="#m4e1263bdca" y="112.599095"/>
     <use style="fill:#ffa500;stroke:#ffa500;" x="108.979256" xlink:href="#m4e1263bdca" y="114.974068"/>
     <use style="fill:#ffa500;stroke:#ffa500;" x="111.224784" xlink:href="#m4e1263bdca" y="117.215057"/>
     <use style="fill:#ffa500;stroke:#ffa500;" x="113.462658" xlink:href="#m4e1263bdca" y="119.337182"/>
     <use style="fill:#ffa500;stroke:#ffa500;" x="115.692963" xlink:href="#m4e1263bdca" y="121.353134"/>
     <use style="fill:#ffa500;stroke:#ffa500;" x="117.915772" xlink:href="#m4e1263bdca" y="123.273665"/>
     <use style="fill:#ffa500;stroke:#ffa500;" x="120.131148" xlink:href="#m4e1263bdca" y="125.107971"/>
     <use style="fill:#ffa500;stroke:#ffa500;" x="122.339143" xlink:href="#m4e1263bdca" y="126.863975"/>
     <use style="fill:#ffa500;stroke:#ffa500;" x="124.539799" xlink:href="#m4e1263bdca" y="128.548555"/>
     <use style="fill:#ffa500;stroke:#ffa500;" x="126.733153" xlink:href="#m4e1263bdca" y="130.167719"/>
     <use style="fill:#ffa500;stroke:#ffa500;" x="128.919232" xlink:href="#m4e1263bdca" y="131.726747"/>
     <use style="fill:#ffa500;stroke:#ffa500;" x="131.098058" xlink:href="#m4e1263bdca" y="133.230305"/>
     <use style="fill:#ffa500;stroke:#ffa500;" x="133.269646" xlink:href="#m4e1263bdca" y="134.682536"/>
     <use style="fill:#ffa500;stroke:#ffa500;" x="135.434008" xlink:href="#m4e1263bdca" y="136.087138"/>
     <use style="fill:#ffa500;stroke:#ffa500;" x="137.591148" xlink:href="#m4e1263bdca" y="137.447421"/>
     <use style="fill:#ffa500;stroke:#ffa500;" x="139.741068" xlink:href="#m4e1263bdca" y="138.766366"/>
     <use style="fill:#ffa500;stroke:#ffa500;" x="141.883764" xlink:href="#m4e1263bdca" y="140.046661"/>
     <use style="fill:#ffa500;stroke:#ffa500;" x="144.019227" xlink:href="#m4e1263bdca" y="141.290745"/>
     <use style="fill:#ffa500;stroke:#ffa500;" x="146.147447" xlink:href="#m4e1263bdca" y="142.500832"/>
     <use style="fill:#ffa500;stroke:#ffa500;" x="148.268409" xlink:href="#m4e1263bdca" y="143.678942"/>
     <use style="fill:#ffa500;stroke:#ffa500;" x="150.382094" xlink:href="#m4e1263bdca" y="144.826921"/>
     <use style="fill:#ffa500;stroke:#ffa500;" x="152.48848" xlink:href="#m4e1263bdca" y="145.946461"/>
     <use style="fill:#ffa500;stroke:#ffa500;" x="154.587543" xlink:href="#m4e1263bdca" y="147.039119"/>
     <use style="fill:#ffa500;stroke:#ffa500;" x="156.679254" xlink:href="#m4e1263bdca" y="148.106328"/>
     <use style="fill:#ffa500;stroke:#ffa500;" x="158.763582" xlink:href="#m4e1263bdca" y="149.149411"/>
     <use style="fill:#ffa500;stroke:#ffa500;" x="160.840495" xlink:href="#m4e1263bdca" y="150.169593"/>
     <use style="fill:#ffa500;stroke:#ffa500;" x="162.909954" xlink:href="#m4e1263bdca" y="151.168009"/>
     <use style="fill:#ffa500;stroke:#ffa500;" x="164.971921" xlink:href="#m4e1263bdca" y="152.145714"/>
     <use style="fill:#ffa500;stroke:#ffa500;" x="167.026355" xlink:href="#m4e1263bdca" y="153.103691"/>
     <use style="fill:#ffa500;stroke:#ffa500;" x="169.073211" xlink:href="#m4e1263bdca" y="154.042856"/>
     <use style="fill:#ffa500;stroke:#ffa500;" x="171.112441" xlink:href="#m4e1263bdca" y="154.964062"/>
     <use style="fill:#ffa500;stroke:#ffa500;" x="173.143997" xlink:href="#m4e1263bdca" y="155.868112"/>
     <use style="fill:#ffa500;stroke:#ffa500;" x="175.167827" xlink:href="#m4e1263bdca" y="156.755754"/>
     <use style="fill:#ffa500;stroke:#ffa500;" x="177.183875" xlink:href="#m4e1263bdca" y="157.627693"/>
     <use style="fill:#ffa500;stroke:#ffa500;" x="179.192086" xlink:href="#m4e1263bdca" y="158.484589"/>
     <use style="fill:#ffa500;stroke:#ffa500;" x="181.192403" xlink:href="#m4e1263bdca" y="159.327068"/>
     <use style="fill:#ffa500;stroke:#ffa500;" x="183.184757" xlink:href="#m4e1263bdca" y="160.155711"/>
     <use style="fill:#ffa500;stroke:#ffa500;" x="185.169089" xlink:href="#m4e1263bdca" y="160.971074"/>
     <use style="fill:#ffa500;stroke:#ffa500;" x="187.145331" xlink:href="#m4e1263bdca" y="161.77368"/>
     <use style="fill:#ffa500;stroke:#ffa500;" x="189.113413" xlink:href="#m4e1263bdca" y="162.564022"/>
     <use style="fill:#ffa500;stroke:#ffa500;" x="191.073265" xlink:href="#m4e1263bdca" y="163.342571"/>
     <use style="fill:#ffa500;stroke:#ffa500;" x="193.024812" xlink:href="#m4e1263bdca" y="164.109768"/>
     <use style="fill:#ffa500;stroke:#ffa500;" x="194.967977" xlink:href="#m4e1263bdca" y="164.866037"/>
     <use style="fill:#ffa500;stroke:#ffa500;" x="196.902681" xlink:href="#m4e1263bdca" y="165.611776"/>
     <use style="fill:#ffa500;stroke:#ffa500;" x="198.828842" xlink:href="#m4e1263bdca" y="166.347368"/>
     <use style="fill:#ffa500;stroke:#ffa500;" x="200.746375" xlink:href="#m4e1263bdca" y="167.073175"/>
     <use style="fill:#ffa500;stroke:#ffa500;" x="202.655193" xlink:href="#m4e1263bdca" y="167.789541"/>
     <use style="fill:#ffa500;stroke:#ffa500;" x="204.555207" xlink:href="#m4e1263bdca" y="168.496798"/>
     <use style="fill:#ffa500;stroke:#ffa500;" x="206.446322" xlink:href="#m4e1263bdca" y="169.195259"/>
     <use style="fill:#ffa500;stroke:#ffa500;" x="208.328445" xlink:href="#m4e1263bdca" y="169.885225"/>
     <use style="fill:#ffa500;stroke:#ffa500;" x="210.201476" xlink:href="#m4e1263bdca" y="170.566985"/>
     <use style="fill:#ffa500;stroke:#ffa500;" x="212.065313" xlink:href="#m4e1263bdca" y="171.240814"/>
     <use style="fill:#ffa500;stroke:#ffa500;" x="213.919852" xlink:href="#m4e1263bdca" y="171.906975"/>
     <use style="fill:#ffa500;stroke:#ffa500;" x="215.764986" xlink:href="#m4e1263bdca" y="172.565723"/>
     <use style="fill:#ffa500;stroke:#ffa500;" x="217.600604" xlink:href="#m4e1263bdca" y="173.217301"/>
     <use style="fill:#ffa500;stroke:#ffa500;" x="219.426591" xlink:href="#m4e1263bdca" y="173.861942"/>
     <use style="fill:#ffa500;stroke:#ffa500;" x="221.242831" xlink:href="#m4e1263bdca" y="174.499871"/>
     <use style="fill:#ffa500;stroke:#ffa500;" x="223.049202" xlink:href="#m4e1263bdca" y="175.131305"/>
     <use style="fill:#ffa500;stroke:#ffa500;" x="224.84558" xlink:href="#m4e1263bdca" y="175.756452"/>
     <use style="fill:#ffa500;stroke:#ffa500;" x="226.631837" xlink:href="#m4e1263bdca" y="176.375513"/>
     <use style="fill:#ffa500;stroke:#ffa500;" x="228.407841" xlink:href="#m4e1263bdca" y="176.988681"/>
     <use style="fill:#ffa500;stroke:#ffa500;" x="230.173457" xlink:href="#m4e1263bdca" y="177.596145"/>
     <use style="fill:#ffa500;stroke:#ffa500;" x="231.928545" xlink:href="#m4e1263bdca" y="178.198085"/>
     <use style="fill:#ffa500;stroke:#ffa500;" x="233.672961" xlink:href="#m4e1263bdca" y="178.794677"/>
     <use style="fill:#ffa500;stroke:#ffa500;" x="235.406558" xlink:href="#m4e1263bdca" y="179.386089"/>
     <use style="fill:#ffa500;stroke:#ffa500;" x="237.129183" xlink:href="#m4e1263bdca" y="179.972487"/>
     <use style="fill:#ffa500;stroke:#ffa500;" x="238.84068" xlink:href="#m4e1263bdca" y="180.554029"/>
     <use style="fill:#ffa500;stroke:#ffa500;" x="240.540886" xlink:href="#m4e1263bdca" y="181.130871"/>
     <use style="fill:#ffa500;stroke:#ffa500;" x="242.229637" xlink:href="#m4e1263bdca" y="181.703162"/>
     <use style="fill:#ffa500;stroke:#ffa500;" x="243.90676" xlink:href="#m4e1263bdca" y="182.271049"/>
     <use style="fill:#ffa500;stroke:#ffa500;" x="245.572078" xlink:href="#m4e1263bdca" y="182.834674"/>
     <use style="fill:#ffa500;stroke:#ffa500;" x="247.225411" xlink:href="#m4e1263bdca" y="183.394175"/>
     <use style="fill:#ffa500;stroke:#ffa500;" x="248.866571" xlink:href="#m4e1263bdca" y="183.949688"/>
     <use style="fill:#ffa500;stroke:#ffa500;" x="250.495364" xlink:href="#m4e1263bdca" y="184.501344"/>
     <use style="fill:#ffa500;stroke:#ffa500;" x="252.111591" xlink:href="#m4e1263bdca" y="185.049272"/>
     <use style="fill:#ffa500;stroke:#ffa500;" x="253.715047" xlink:href="#m4e1263bdca" y="185.593598"/>
     <use style="fill:#ffa500;stroke:#ffa500;" x="255.305519" xlink:href="#m4e1263bdca" y="186.134445"/>
     <use style="fill:#ffa500;stroke:#ffa500;" x="256.88279" xlink:href="#m4e1263bdca" y="186.671933"/>
     <use style="fill:#ffa500;stroke:#ffa500;" x="258.446632" xlink:href="#m4e1263bdca" y="187.206182"/>
     <use style="fill:#ffa500;stroke:#ffa500;" x="259.996814" xlink:href="#m4e1263bdca" y="187.737306"/>
     <use style="fill:#ffa500;stroke:#ffa500;" x="261.533094" xlink:href="#m4e1263bdca" y="188.265421"/>
     <use style="fill:#ffa500;stroke:#ffa500;" x="263.055223" xlink:href="#m4e1263bdca" y="188.790638"/>
     <use style="fill:#ffa500;stroke:#ffa500;" x="264.562944" xlink:href="#m4e1263bdca" y="189.313068"/>
     <use style="fill:#ffa500;stroke:#ffa500;" x="266.055992" xlink:href="#m4e1263bdca" y="189.83282"/>
     <use style="fill:#ffa500;stroke:#ffa500;" x="267.534091" xlink:href="#m4e1263bdca" y="190.35"/>
    </g>
   </g>
   <g id="line2d_17">
    <path clip-path="url(#p0942737e7e)" d="M 64.55 35.393457 
L 277.2 35.393457 
" style="fill:none;stroke:#808080;stroke-dasharray:5.55,2.4;stroke-dashoffset:0;stroke-width:1.5;"/>
   </g>
   <g id="patch_3">
    <path d="M 64.55 198.9 
L 64.55 10.8 
" style="fill:none;stroke:#000000;stroke-linecap:square;stroke-linejoin:miter;stroke-width:0.8;"/>
   </g>
   <g id="patch_4">
    <path d="M 277.2 198.9 
L 277.2 10.8 
" style="fill:none;stroke:#000000;stroke-linecap:square;stroke-linejoin:miter;stroke-width:0.8;"/>
   </g>
   <g id="patch_5">
    <path d="M 64.55 198.9 
L 277.2 198.9 
" style="fill:none;stroke:#000000;stroke-linecap:square;stroke-linejoin:miter;stroke-width:0.8;"/>
   </g>
   <g id="patch_6">
    <path d="M 64.55 10.8 
L 277.2 10.8 
" style="fill:none;stroke:#000000;stroke-linecap:square;stroke-linejoin:miter;stroke-width:0.8;"/>
   </g>
   <g id="legend_1">
    <g id="patch_7">
     <path d="M 208.328125 33.478125 
L 270.2 33.478125 
Q 272.2 33.478125 272.2 31.478125 
L 272.2 17.8 
Q 272.2 15.8 270.2 15.8 
L 208.328125 15.8 
Q 206.328125 15.8 206.328125 17.8 
L 206.328125 31.478125 
Q 206.328125 33.478125 208.328125 33.478125 
z
" style="fill:#ffffff;opacity:0.8;stroke:#cccccc;stroke-linejoin:miter;"/>
    </g>
    <g id="line2d_18">
     <path d="M 210.328125 23.898438 
L 230.328125 23.898438 
" style="fill:none;stroke:#808080;stroke-dasharray:5.55,2.4;stroke-dashoffset:0;stroke-width:1.5;"/>
    </g>
    <g id="line2d_19"/>
    <g id="text_18">
     <!-- Driest -->
     <defs>
      <path d="M 19.671875 64.796875 
L 19.671875 8.109375 
L 31.59375 8.109375 
Q 46.6875 8.109375 53.6875 14.9375 
Q 60.6875 21.78125 60.6875 36.53125 
Q 60.6875 51.171875 53.6875 57.984375 
Q 46.6875 64.796875 31.59375 64.796875 
z
M 9.8125 72.90625 
L 30.078125 72.90625 
Q 51.265625 72.90625 61.171875 64.09375 
Q 71.09375 55.28125 71.09375 36.53125 
Q 71.09375 17.671875 61.125 8.828125 
Q 51.171875 0 30.078125 0 
L 9.8125 0 
z
" id="DejaVuSans-68"/>
      <path d="M 41.109375 46.296875 
Q 39.59375 47.171875 37.8125 47.578125 
Q 36.03125 48 33.890625 48 
Q 26.265625 48 22.1875 43.046875 
Q 18.109375 38.09375 18.109375 28.8125 
L 18.109375 0 
L 9.078125 0 
L 9.078125 54.6875 
L 18.109375 54.6875 
L 18.109375 46.1875 
Q 20.953125 51.171875 25.484375 53.578125 
Q 30.03125 56 36.53125 56 
Q 37.453125 56 38.578125 55.875 
Q 39.703125 55.765625 41.0625 55.515625 
z
" id="DejaVuSans-114"/>
     </defs>
     <g transform="translate(238.328125 27.398438)scale(0.1 -0.1)">
      <use xlink:href="#DejaVuSans-68"/>
      <use x="77.001953" xlink:href="#DejaVuSans-114"/>
      <use x="118.115234" xlink:href="#DejaVuSans-105"/>
      <use x="145.898438" xlink:href="#DejaVuSans-101"/>
      <use x="207.421875" xlink:href="#DejaVuSans-115"/>
      <use x="259.521484" xlink:href="#DejaVuSans-116"/>
     </g>
    </g>
   </g>
  </g>
 </g>
 <defs>
  <clipPath id="p0942737e7e">
   <rect height="188.1" width="212.65" x="64.55" y="10.8"/>
  </clipPath>
 </defs>
</svg>
