<?xml version="1.0" encoding="utf-8" standalone="no"?>
<!DOCTYPE svg PUBLIC "-//W3C//DTD SVG 1.1//EN"
  "http://www.w3.org/Graphics/SVG/1.1/DTD/svg11.dtd">
<!-- Created with matplotlib (https://matplotlib.org/) -->
<svg height="252pt" version="1.1" viewBox="0 0 432 252" width="432pt" xmlns="http://www.w3.org/2000/svg" xmlns:xlink="http://www.w3.org/1999/xlink">
 <defs>
  <style type="text/css">
*{stroke-linecap:butt;stroke-linejoin:round;}
  </style>
 </defs>
 <g id="figure_1">
  <g id="patch_1">
   <path d="M 0 252 
L 432 252 
L 432 0 
L 0 0 
z
" style="fill:#ffffff;"/>
  </g>
  <g id="axes_1">
   <g id="patch_2">
    <path d="M 50.55 223.2 
L 421.2 223.2 
L 421.2 10.8 
L 50.55 10.8 
z
" style="fill:#ffffff;"/>
   </g>
   <g id="matplotlib.axis_1">
    <g id="text_1">
     <!-- Velocity -->
     <defs>
      <path d="M 28.609375 0 
L 0.78125 72.90625 
L 11.078125 72.90625 
L 34.1875 11.53125 
L 57.328125 72.90625 
L 67.578125 72.90625 
L 39.796875 0 
z
" id="DejaVuSans-86"/>
      <path d="M 56.203125 29.59375 
L 56.203125 25.203125 
L 14.890625 25.203125 
Q 15.484375 15.921875 20.484375 11.0625 
Q 25.484375 6.203125 34.421875 6.203125 
Q 39.59375 6.203125 44.453125 7.46875 
Q 49.3125 8.734375 54.109375 11.28125 
L 54.109375 2.78125 
Q 49.265625 0.734375 44.1875 -0.34375 
Q 39.109375 -1.421875 33.890625 -1.421875 
Q 20.796875 -1.421875 13.15625 6.1875 
Q 5.515625 13.8125 5.515625 26.8125 
Q 5.515625 40.234375 12.765625 48.109375 
Q 20.015625 56 32.328125 56 
Q 43.359375 56 49.78125 48.890625 
Q 56.203125 41.796875 56.203125 29.59375 
z
M 47.21875 32.234375 
Q 47.125 39.59375 43.09375 43.984375 
Q 39.0625 48.390625 32.421875 48.390625 
Q 24.90625 48.390625 20.390625 44.140625 
Q 15.875 39.890625 15.1875 32.171875 
z
" id="DejaVuSans-101"/>
      <path d="M 9.421875 75.984375 
L 18.40625 75.984375 
L 18.40625 0 
L 9.421875 0 
z
" id="DejaVuSans-108"/>
      <path d="M 30.609375 48.390625 
Q 23.390625 48.390625 19.1875 42.75 
Q 14.984375 37.109375 14.984375 27.296875 
Q 14.984375 17.484375 19.15625 11.84375 
Q 23.34375 6.203125 30.609375 6.203125 
Q 37.796875 6.203125 41.984375 11.859375 
Q 46.1875 17.53125 46.1875 27.296875 
Q 46.1875 37.015625 41.984375 42.703125 
Q 37.796875 48.390625 30.609375 48.390625 
z
M 30.609375 56 
Q 42.328125 56 49.015625 48.375 
Q 55.71875 40.765625 55.71875 27.296875 
Q 55.71875 13.875 49.015625 6.21875 
Q 42.328125 -1.421875 30.609375 -1.421875 
Q 18.84375 -1.421875 12.171875 6.21875 
Q 5.515625 13.875 5.515625 27.296875 
Q 5.515625 40.765625 12.171875 48.375 
Q 18.84375 56 30.609375 56 
z
" id="DejaVuSans-111"/>
      <path d="M 48.78125 52.59375 
L 48.78125 44.1875 
Q 44.96875 46.296875 41.140625 47.34375 
Q 37.3125 48.390625 33.40625 48.390625 
Q 24.65625 48.390625 19.8125 42.84375 
Q 14.984375 37.3125 14.984375 27.296875 
Q 14.984375 17.28125 19.8125 11.734375 
Q 24.65625 6.203125 33.40625 6.203125 
Q 37.3125 6.203125 41.140625 7.25 
Q 44.96875 8.296875 48.78125 10.40625 
L 48.78125 2.09375 
Q 45.015625 0.34375 40.984375 -0.53125 
Q 36.96875 -1.421875 32.421875 -1.421875 
Q 20.0625 -1.421875 12.78125 6.34375 
Q 5.515625 14.109375 5.515625 27.296875 
Q 5.515625 40.671875 12.859375 48.328125 
Q 20.21875 56 33.015625 56 
Q 37.15625 56 41.109375 55.140625 
Q 45.0625 54.296875 48.78125 52.59375 
z
" id="DejaVuSans-99"/>
      <path d="M 9.421875 54.6875 
L 18.40625 54.6875 
L 18.40625 0 
L 9.421875 0 
z
M 9.421875 75.984375 
L 18.40625 75.984375 
L 18.40625 64.59375 
L 9.421875 64.59375 
z
" id="DejaVuSans-105"/>
      <path d="M 18.3125 70.21875 
L 18.3125 54.6875 
L 36.8125 54.6875 
L 36.8125 47.703125 
L 18.3125 47.703125 
L 18.3125 18.015625 
Q 18.3125 11.328125 20.140625 9.421875 
Q 21.96875 7.515625 27.59375 7.515625 
L 36.8125 7.515625 
L 36.8125 0 
L 27.59375 0 
Q 17.1875 0 13.234375 3.875 
Q 9.28125 7.765625 9.28125 18.015625 
L 9.28125 47.703125 
L 2.6875 47.703125 
L 2.6875 54.6875 
L 9.28125 54.6875 
L 9.28125 70.21875 
z
" id="DejaVuSans-116"/>
      <path d="M 32.171875 -5.078125 
Q 28.375 -14.84375 24.75 -17.8125 
Q 21.140625 -20.796875 15.09375 -20.796875 
L 7.90625 -20.796875 
L 7.90625 -13.28125 
L 13.1875 -13.28125 
Q 16.890625 -13.28125 18.9375 -11.515625 
Q 21 -9.765625 23.484375 -3.21875 
L 25.09375 0.875 
L 2.984375 54.6875 
L 12.5 54.6875 
L 29.59375 11.921875 
L 46.6875 54.6875 
L 56.203125 54.6875 
z
" id="DejaVuSans-121"/>
     </defs>
     <g transform="translate(208.413125 237.837812)scale(0.14 -0.14)">
      <use xlink:href="#DejaVuSans-86"/>
      <use x="60.658203" xlink:href="#DejaVuSans-101"/>
      <use x="122.181641" xlink:href="#DejaVuSans-108"/>
      <use x="149.964844" xlink:href="#DejaVuSans-111"/>
      <use x="211.146484" xlink:href="#DejaVuSans-99"/>
      <use x="266.126953" xlink:href="#DejaVuSans-105"/>
      <use x="293.910156" xlink:href="#DejaVuSans-116"/>
      <use x="333.119141" xlink:href="#DejaVuSans-121"/>
     </g>
    </g>
   </g>
   <g id="matplotlib.axis_2">
    <g id="ytick_1">
     <g id="line2d_1">
      <defs>
       <path d="M 0 0 
L -3.5 0 
" id="mc2ef295112" style="stroke:#000000;stroke-width:0.8;"/>
      </defs>
      <g>
       <use style="stroke:#000000;stroke-width:0.8;" x="50.55" xlink:href="#mc2ef295112" y="194.159204"/>
      </g>
     </g>
     <g id="text_2">
      <!-- −2 -->
      <defs>
       <path d="M 10.59375 35.5 
L 73.1875 35.5 
L 73.1875 27.203125 
L 10.59375 27.203125 
z
" id="DejaVuSans-8722"/>
       <path d="M 19.1875 8.296875 
L 53.609375 8.296875 
L 53.609375 0 
L 7.328125 0 
L 7.328125 8.296875 
Q 12.9375 14.109375 22.625 23.890625 
Q 32.328125 33.6875 34.8125 36.53125 
Q 39.546875 41.84375 41.421875 45.53125 
Q 43.3125 49.21875 43.3125 52.78125 
Q 43.3125 58.59375 39.234375 62.25 
Q 35.15625 65.921875 28.609375 65.921875 
Q 23.96875 65.921875 18.8125 64.3125 
Q 13.671875 62.703125 7.8125 59.421875 
L 7.8125 69.390625 
Q 13.765625 71.78125 18.9375 73 
Q 24.125 74.21875 28.421875 74.21875 
Q 39.75 74.21875 46.484375 68.546875 
Q 53.21875 62.890625 53.21875 53.421875 
Q 53.21875 48.921875 51.53125 44.890625 
Q 49.859375 40.875 45.40625 35.40625 
Q 44.1875 33.984375 37.640625 27.21875 
Q 31.109375 20.453125 19.1875 8.296875 
z
" id="DejaVuSans-50"/>
      </defs>
      <g transform="translate(28.807813 197.958423)scale(0.1 -0.1)">
       <use xlink:href="#DejaVuSans-8722"/>
       <use x="83.789062" xlink:href="#DejaVuSans-50"/>
      </g>
     </g>
    </g>
    <g id="ytick_2">
     <g id="line2d_2">
      <g>
       <use style="stroke:#000000;stroke-width:0.8;" x="50.55" xlink:href="#mc2ef295112" y="155.579602"/>
      </g>
     </g>
     <g id="text_3">
      <!-- −1 -->
      <defs>
       <path d="M 12.40625 8.296875 
L 28.515625 8.296875 
L 28.515625 63.921875 
L 10.984375 60.40625 
L 10.984375 69.390625 
L 28.421875 72.90625 
L 38.28125 72.90625 
L 38.28125 8.296875 
L 54.390625 8.296875 
L 54.390625 0 
L 12.40625 0 
z
" id="DejaVuSans-49"/>
      </defs>
      <g transform="translate(28.807813 159.378821)scale(0.1 -0.1)">
       <use xlink:href="#DejaVuSans-8722"/>
       <use x="83.789062" xlink:href="#DejaVuSans-49"/>
      </g>
     </g>
    </g>
    <g id="ytick_3">
     <g id="line2d_3">
      <g>
       <use style="stroke:#000000;stroke-width:0.8;" x="50.55" xlink:href="#mc2ef295112" y="117"/>
      </g>
     </g>
     <g id="text_4">
      <!-- 0 -->
      <defs>
       <path d="M 31.78125 66.40625 
Q 24.171875 66.40625 20.328125 58.90625 
Q 16.5 51.421875 16.5 36.375 
Q 16.5 21.390625 20.328125 13.890625 
Q 24.171875 6.390625 31.78125 6.390625 
Q 39.453125 6.390625 43.28125 13.890625 
Q 47.125 21.390625 47.125 36.375 
Q 47.125 51.421875 43.28125 58.90625 
Q 39.453125 66.40625 31.78125 66.40625 
z
M 31.78125 74.21875 
Q 44.046875 74.21875 50.515625 64.515625 
Q 56.984375 54.828125 56.984375 36.375 
Q 56.984375 17.96875 50.515625 8.265625 
Q 44.046875 -1.421875 31.78125 -1.421875 
Q 19.53125 -1.421875 13.0625 8.265625 
Q 6.59375 17.96875 6.59375 36.375 
Q 6.59375 54.828125 13.0625 64.515625 
Q 19.53125 74.21875 31.78125 74.21875 
z
" id="DejaVuSans-48"/>
      </defs>
      <g transform="translate(37.1875 120.799219)scale(0.1 -0.1)">
       <use xlink:href="#DejaVuSans-48"/>
      </g>
     </g>
    </g>
    <g id="ytick_4">
     <g id="line2d_4">
      <g>
       <use style="stroke:#000000;stroke-width:0.8;" x="50.55" xlink:href="#mc2ef295112" y="78.420398"/>
      </g>
     </g>
     <g id="text_5">
      <!-- 1 -->
      <g transform="translate(37.1875 82.219617)scale(0.1 -0.1)">
       <use xlink:href="#DejaVuSans-49"/>
      </g>
     </g>
    </g>
    <g id="ytick_5">
     <g id="line2d_5">
      <g>
       <use style="stroke:#000000;stroke-width:0.8;" x="50.55" xlink:href="#mc2ef295112" y="39.840796"/>
      </g>
     </g>
     <g id="text_6">
      <!-- 2 -->
      <g transform="translate(37.1875 43.640014)scale(0.1 -0.1)">
       <use xlink:href="#DejaVuSans-50"/>
      </g>
     </g>
    </g>
    <g id="text_7">
     <!-- Position [mm] -->
     <defs>
      <path d="M 19.671875 64.796875 
L 19.671875 37.40625 
L 32.078125 37.40625 
Q 38.96875 37.40625 42.71875 40.96875 
Q 46.484375 44.53125 46.484375 51.125 
Q 46.484375 57.671875 42.71875 61.234375 
Q 38.96875 64.796875 32.078125 64.796875 
z
M 9.8125 72.90625 
L 32.078125 72.90625 
Q 44.34375 72.90625 50.609375 67.359375 
Q 56.890625 61.8125 56.890625 51.125 
Q 56.890625 40.328125 50.609375 34.8125 
Q 44.34375 29.296875 32.078125 29.296875 
L 19.671875 29.296875 
L 19.671875 0 
L 9.8125 0 
z
" id="DejaVuSans-80"/>
      <path d="M 44.28125 53.078125 
L 44.28125 44.578125 
Q 40.484375 46.53125 36.375 47.5 
Q 32.28125 48.484375 27.875 48.484375 
Q 21.1875 48.484375 17.84375 46.4375 
Q 14.5 44.390625 14.5 40.28125 
Q 14.5 37.15625 16.890625 35.375 
Q 19.28125 33.59375 26.515625 31.984375 
L 29.59375 31.296875 
Q 39.15625 29.25 43.1875 25.515625 
Q 47.21875 21.78125 47.21875 15.09375 
Q 47.21875 7.46875 41.1875 3.015625 
Q 35.15625 -1.421875 24.609375 -1.421875 
Q 20.21875 -1.421875 15.453125 -0.5625 
Q 10.6875 0.296875 5.421875 2 
L 5.421875 11.28125 
Q 10.40625 8.6875 15.234375 7.390625 
Q 20.0625 6.109375 24.8125 6.109375 
Q 31.15625 6.109375 34.5625 8.28125 
Q 37.984375 10.453125 37.984375 14.40625 
Q 37.984375 18.0625 35.515625 20.015625 
Q 33.0625 21.96875 24.703125 23.78125 
L 21.578125 24.515625 
Q 13.234375 26.265625 9.515625 29.90625 
Q 5.8125 33.546875 5.8125 39.890625 
Q 5.8125 47.609375 11.28125 51.796875 
Q 16.75 56 26.8125 56 
Q 31.78125 56 36.171875 55.265625 
Q 40.578125 54.546875 44.28125 53.078125 
z
" id="DejaVuSans-115"/>
      <path d="M 54.890625 33.015625 
L 54.890625 0 
L 45.90625 0 
L 45.90625 32.71875 
Q 45.90625 40.484375 42.875 44.328125 
Q 39.84375 48.1875 33.796875 48.1875 
Q 26.515625 48.1875 22.3125 43.546875 
Q 18.109375 38.921875 18.109375 30.90625 
L 18.109375 0 
L 9.078125 0 
L 9.078125 54.6875 
L 18.109375 54.6875 
L 18.109375 46.1875 
Q 21.34375 51.125 25.703125 53.5625 
Q 30.078125 56 35.796875 56 
Q 45.21875 56 50.046875 50.171875 
Q 54.890625 44.34375 54.890625 33.015625 
z
" id="DejaVuSans-110"/>
      <path id="DejaVuSans-32"/>
      <path d="M 8.59375 75.984375 
L 29.296875 75.984375 
L 29.296875 69 
L 17.578125 69 
L 17.578125 -6.203125 
L 29.296875 -6.203125 
L 29.296875 -13.1875 
L 8.59375 -13.1875 
z
" id="DejaVuSans-91"/>
      <path d="M 52 44.1875 
Q 55.375 50.25 60.0625 53.125 
Q 64.75 56 71.09375 56 
Q 79.640625 56 84.28125 50.015625 
Q 88.921875 44.046875 88.921875 33.015625 
L 88.921875 0 
L 79.890625 0 
L 79.890625 32.71875 
Q 79.890625 40.578125 77.09375 44.375 
Q 74.3125 48.1875 68.609375 48.1875 
Q 61.625 48.1875 57.5625 43.546875 
Q 53.515625 38.921875 53.515625 30.90625 
L 53.515625 0 
L 44.484375 0 
L 44.484375 32.71875 
Q 44.484375 40.625 41.703125 44.40625 
Q 38.921875 48.1875 33.109375 48.1875 
Q 26.21875 48.1875 22.15625 43.53125 
Q 18.109375 38.875 18.109375 30.90625 
L 18.109375 0 
L 9.078125 0 
L 9.078125 54.6875 
L 18.109375 54.6875 
L 18.109375 46.1875 
Q 21.1875 51.21875 25.484375 53.609375 
Q 29.78125 56 35.6875 56 
Q 41.65625 56 45.828125 52.96875 
Q 50 49.953125 52 44.1875 
z
" id="DejaVuSans-109"/>
      <path d="M 30.421875 75.984375 
L 30.421875 -13.1875 
L 9.71875 -13.1875 
L 9.71875 -6.203125 
L 21.390625 -6.203125 
L 21.390625 69 
L 9.71875 69 
L 9.71875 75.984375 
z
" id="DejaVuSans-93"/>
     </defs>
     <g transform="translate(21.89625 165.573438)rotate(-90)scale(0.14 -0.14)">
      <use xlink:href="#DejaVuSans-80"/>
      <use x="56.677734" xlink:href="#DejaVuSans-111"/>
      <use x="117.859375" xlink:href="#DejaVuSans-115"/>
      <use x="169.958984" xlink:href="#DejaVuSans-105"/>
      <use x="197.742188" xlink:href="#DejaVuSans-116"/>
      <use x="236.951172" xlink:href="#DejaVuSans-105"/>
      <use x="264.734375" xlink:href="#DejaVuSans-111"/>
      <use x="325.916016" xlink:href="#DejaVuSans-110"/>
      <use x="389.294922" xlink:href="#DejaVuSans-32"/>
      <use x="421.082031" xlink:href="#DejaVuSans-91"/>
      <use x="460.095703" xlink:href="#DejaVuSans-109"/>
      <use x="557.507812" xlink:href="#DejaVuSans-109"/>
      <use x="654.919922" xlink:href="#DejaVuSans-93"/>
     </g>
    </g>
   </g>
   <g id="line2d_6">
    <path clip-path="url(#pac146d0b48)" d="M 93.794198 213.352557 
L 93.794198 213.159659 
L 98.845884 212.580964 
L 124.857836 209.687494 
L 143.784545 207.372718 
L 157.865666 205.443738 
L 170.364316 203.514758 
L 181.421444 201.585778 
L 191.23356 199.656798 
L 200.814873 197.53492 
L 209.333744 195.413042 
L 217.674283 193.098265 
L 230.056731 189.433203 
L 242.297568 185.575243 
L 253.792456 181.717283 
L 264.586922 177.859322 
L 274.713412 174.001362 
L 284.196069 170.143402 
L 292.624774 166.47834 
L 300.500162 162.813278 
L 307.457814 159.341113 
L 313.929898 155.868949 
L 319.597873 152.589683 
L 324.833114 149.310417 
L 329.362453 146.224049 
L 333.501565 143.137681 
L 337.022123 140.24421 
L 340.187551 137.35074 
L 342.813977 134.650168 
L 344.961524 132.142494 
L 346.819923 129.63482 
L 348.269917 127.320044 
L 349.455173 125.005267 
L 350.299192 122.883389 
L 350.900188 120.761511 
L 351.22466 118.832531 
L 351.325391 116.903551 
L 351.19395 114.974571 
L 350.840392 113.045591 
L 350.20896 110.923713 
L 349.335878 108.801835 
L 348.231759 106.679956 
L 346.774152 104.36518 
L 345.061779 102.050404 
L 342.928554 99.54273 
L 340.317251 96.842158 
L 337.388915 94.141586 
L 333.907703 91.248116 
L 330.077736 88.354645 
L 325.614021 85.268277 
L 320.764191 82.181909 
L 315.191366 78.902643 
L 309.187293 75.623377 
L 302.359276 72.151212 
L 295.043878 68.679048 
L 286.786889 65.013986 
L 277.970256 61.348924 
L 268.580049 57.683862 
L 258.59784 54.018799 
L 247.423924 50.160839 
L 235.528567 46.302879 
L 223.508747 42.637817 
L 211.375521 39.165653 
L 203.12053 37.043774 
L 194.744707 35.114794 
L 185.384221 33.185814 
L 174.859256 31.256834 
L 162.97179 29.327854 
L 149.547861 27.398874 
L 134.533351 25.469894 
L 114.685159 23.155118 
L 93.794198 20.840341 
L 93.794198 20.647443 
L 93.794198 20.647443 
" style="fill:none;stroke:#1f77b4;stroke-linecap:square;stroke-width:1.5;"/>
   </g>
   <g id="line2d_7">
    <path clip-path="url(#pac146d0b48)" d="M 93.794198 213.352557 
L 93.794198 213.159659 
L 87.393292 212.966761 
L 113.919233 212.388066 
L 138.661281 211.616474 
L 161.189449 210.651984 
L 178.567183 209.687494 
L 195.257961 208.530106 
L 208.869343 207.372718 
L 221.983369 206.022432 
L 232.894179 204.672146 
L 242.144612 203.32186 
L 251.164989 201.778676 
L 258.910889 200.235492 
L 266.452583 198.49941 
L 273.027012 196.763328 
L 279.443881 194.834347 
L 286.29178 192.519571 
L 294.776587 189.433203 
L 303.66729 185.961039 
L 312.448174 182.295977 
L 321.127628 178.438017 
L 329.691975 174.387158 
L 337.738126 170.3363 
L 345.289725 166.285442 
L 352.030873 162.427482 
L 358.332483 158.569521 
L 363.906883 154.904459 
L 369.071012 151.239397 
L 373.574209 147.767233 
L 377.468088 144.487967 
L 380.802712 141.401598 
L 383.804601 138.31523 
L 386.304031 135.42176 
L 388.349733 132.721188 
L 389.989744 130.213514 
L 391.367748 127.70584 
L 392.39541 125.391063 
L 393.175607 123.076287 
L 393.660738 120.954409 
L 393.911767 118.832531 
L 393.922936 116.903551 
L 393.72143 114.974571 
L 393.269008 112.852693 
L 392.589727 110.730815 
L 391.604932 108.416039 
L 390.379291 106.101262 
L 388.793424 103.593588 
L 386.951693 101.085914 
L 384.694908 98.385342 
L 381.975685 95.491872 
L 378.957443 92.598402 
L 375.421036 89.512033 
L 371.318028 86.232767 
L 366.598789 82.760603 
L 361.50579 79.288439 
L 355.735041 75.623377 
L 349.231429 71.765416 
L 342.292875 67.907456 
L 334.538859 63.856598 
L 326.295387 59.80574 
L 317.539263 55.754881 
L 308.683244 51.896921 
L 299.741706 48.231859 
L 290.707763 44.759695 
L 281.547902 41.480429 
L 273.348226 38.779857 
L 267.371771 37.043774 
L 260.610245 35.307692 
L 253.772554 33.764508 
L 245.946302 32.221324 
L 236.851531 30.67814 
L 227.547899 29.327854 
L 216.60727 27.977568 
L 205.538918 26.82018 
L 192.41823 25.662792 
L 176.516452 24.505404 
L 160.238172 23.540914 
L 139.692834 22.576424 
L 118.090876 21.804832 
L 96.406416 21.226137 
L 87.425921 21.033239 
L 93.794198 20.840341 
L 93.794198 20.647443 
L 93.794198 20.647443 
" style="fill:none;stroke:#ff7f0e;stroke-linecap:square;stroke-width:1.5;"/>
   </g>
   <g id="line2d_8">
    <path clip-path="url(#pac146d0b48)" d="M 93.794198 213.352557 
L 93.794198 213.159659 
L 67.408116 212.966761 
L 82.610213 212.580964 
L 95.742238 212.00227 
L 107.23262 211.230678 
L 117.680428 210.266188 
L 127.481278 209.1088 
L 136.839611 207.758514 
L 145.825473 206.21533 
L 153.547413 204.672146 
L 161.124094 202.936064 
L 168.497162 201.007084 
L 175.020409 199.078104 
L 181.424203 196.956226 
L 187.671193 194.641449 
L 196.216119 191.169285 
L 207.07983 186.539733 
L 217.826215 181.717283 
L 227.605588 177.08773 
L 236.47602 172.651076 
L 244.489087 168.40732 
L 252.026363 164.163564 
L 258.762125 160.112705 
L 264.745554 156.254745 
L 270.025535 152.589683 
L 274.650664 149.117519 
L 278.669201 145.838253 
L 282.334582 142.558986 
L 285.448386 139.472618 
L 288.05892 136.579148 
L 290.214044 133.878576 
L 292.084986 131.178004 
L 293.555573 128.67033 
L 294.673583 126.355554 
L 295.549543 124.040777 
L 296.128023 121.918899 
L 296.47875 119.797021 
L 296.587201 117.868041 
L 296.482948 115.939061 
L 296.129893 113.817183 
L 295.543714 111.695305 
L 294.654613 109.380529 
L 293.519572 107.065752 
L 292.027063 104.558078 
L 290.274532 102.050404 
L 288.109978 99.349832 
L 285.486039 96.456362 
L 282.560314 93.562892 
L 279.120577 90.476523 
L 275.119335 87.197257 
L 270.508657 83.725093 
L 265.527566 80.252929 
L 259.882327 76.587867 
L 253.52499 72.729906 
L 246.407249 68.679048 
L 238.480429 64.435292 
L 229.695348 59.998638 
L 220.416182 55.561983 
L 210.219298 50.932431 
L 199.043542 46.109981 
L 187.762227 41.480429 
L 179.277467 38.201162 
L 173.122177 36.079284 
L 166.240765 33.957406 
L 159.193882 32.028426 
L 152.030196 30.292344 
L 143.857458 28.556262 
L 135.473277 27.013078 
L 126.95633 25.662792 
L 118.397726 24.505404 
L 109.89689 23.540914 
L 99.218837 22.576424 
L 90.843475 21.99773 
L 79.278281 21.419036 
L 67.397727 21.033239 
L 93.794198 20.840341 
L 93.794198 20.647443 
L 93.794198 20.647443 
" style="fill:none;stroke:#2ca02c;stroke-linecap:square;stroke-width:1.5;"/>
   </g>
   <g id="line2d_9">
    <path clip-path="url(#pac146d0b48)" d="M 93.685327 213.545455 
L 97.222169 212.966761 
L 125.180675 209.880392 
L 144.275687 207.565616 
L 158.51738 205.636636 
L 171.169709 203.707656 
L 182.362397 201.778676 
L 192.290105 199.849696 
L 201.14488 197.920716 
L 209.842923 195.798838 
L 217.633566 193.676959 
L 230.139788 190.011897 
L 242.497691 186.153937 
L 254.101151 182.295977 
L 264.998364 178.438017 
L 275.223342 174.580056 
L 284.801289 170.722096 
L 293.318304 167.057034 
L 301.280449 163.391972 
L 308.696115 159.726909 
L 315.222035 156.254745 
L 321.263767 152.782581 
L 326.524525 149.503315 
L 331.078092 146.416947 
L 335.241753 143.330579 
L 338.785727 140.437108 
L 341.975076 137.543638 
L 344.624402 134.843066 
L 346.793819 132.335392 
L 348.674799 129.827718 
L 350.146394 127.512942 
L 351.354126 125.198165 
L 352.219671 123.076287 
L 352.843263 120.954409 
L 353.189406 119.025429 
L 353.313128 117.096449 
L 353.204648 115.167469 
L 352.872732 113.238489 
L 352.263867 111.116611 
L 351.412285 108.994733 
L 350.32878 106.872854 
L 348.892816 104.558078 
L 347.201345 102.243302 
L 345.090066 99.735628 
L 342.697235 97.227954 
L 339.813715 94.527382 
L 336.379493 91.633912 
L 332.595685 88.740441 
L 328.180523 85.654073 
L 323.378765 82.567705 
L 317.856728 79.288439 
L 311.903384 76.009173 
L 305.129277 72.537008 
L 297.86827 69.064844 
L 289.669539 65.399782 
L 280.912402 61.73472 
L 271.583353 58.069658 
L 261.664486 54.404595 
L 250.560384 50.546635 
L 238.739325 46.688675 
L 226.796333 43.023613 
L 214.768487 39.551449 
L 206.678642 37.42957 
L 198.480727 35.50059 
L 189.330663 33.57161 
L 179.054186 31.64263 
L 167.454901 29.71365 
L 154.348263 27.78467 
L 139.646068 25.85569 
L 120.095043 23.540914 
L 93.684964 20.454545 
L 93.684964 20.454545 
" style="fill:none;stroke:#0000ff;stroke-dasharray:5.55,2.4;stroke-dashoffset:0;stroke-width:1.5;"/>
   </g>
   <g id="line2d_10">
    <path clip-path="url(#pac146d0b48)" d="M 93.689454 213.545455 
L 95.85109 213.159659 
L 97.810262 212.966761 
L 124.326382 212.388066 
L 149.068855 211.616474 
L 171.597219 210.651984 
L 188.975041 209.687494 
L 205.665875 208.530106 
L 219.27729 207.372718 
L 232.391342 206.022432 
L 243.302169 204.672146 
L 252.552615 203.32186 
L 261.573004 201.778676 
L 269.318911 200.235492 
L 276.860611 198.49941 
L 283.435045 196.763328 
L 289.851918 194.834347 
L 296.699825 192.519571 
L 305.184632 189.433203 
L 314.075335 185.961039 
L 322.856219 182.295977 
L 331.535673 178.438017 
L 340.10002 174.387158 
L 348.14617 170.3363 
L 355.69777 166.285442 
L 362.438918 162.427482 
L 368.740528 158.569521 
L 374.314927 154.904459 
L 379.479056 151.239397 
L 383.982253 147.767233 
L 387.876133 144.487967 
L 391.210756 141.401598 
L 394.212645 138.31523 
L 396.712075 135.42176 
L 398.757777 132.721188 
L 400.397788 130.213514 
L 401.775793 127.70584 
L 402.803455 125.391063 
L 403.583651 123.076287 
L 404.068783 120.954409 
L 404.319812 118.832531 
L 404.33098 116.903551 
L 404.129475 114.974571 
L 403.677052 112.852693 
L 402.997771 110.730815 
L 402.012976 108.416039 
L 400.787335 106.101262 
L 399.201469 103.593588 
L 397.359737 101.085914 
L 395.102952 98.385342 
L 392.383729 95.491872 
L 389.365488 92.598402 
L 385.82908 89.512033 
L 381.726072 86.232767 
L 377.006833 82.760603 
L 371.913834 79.288439 
L 366.143085 75.623377 
L 359.639473 71.765416 
L 352.70092 67.907456 
L 344.946903 63.856598 
L 336.703431 59.80574 
L 327.947308 55.754881 
L 319.091289 51.896921 
L 310.149752 48.231859 
L 301.115808 44.759695 
L 291.955947 41.480429 
L 283.756262 38.779857 
L 277.779803 37.043774 
L 271.018272 35.307692 
L 264.180576 33.764508 
L 256.354316 32.221324 
L 247.259534 30.67814 
L 237.95589 29.327854 
L 227.015243 27.977568 
L 215.94687 26.82018 
L 202.826152 25.662792 
L 186.924327 24.505404 
L 170.645976 23.540914 
L 150.100493 22.576424 
L 128.498257 21.804832 
L 106.813266 21.226137 
L 97.842078 21.033239 
L 94.77998 20.647443 
L 93.680837 20.454545 
L 93.680837 20.454545 
" style="fill:none;stroke:#ffa500;stroke-dasharray:5.55,2.4;stroke-dashoffset:0;stroke-width:1.5;"/>
   </g>
   <g id="line2d_11">
    <path clip-path="url(#pac146d0b48)" d="M 93.689866 213.545455 
L 95.849852 213.159659 
L 97.807523 212.966761 
L 112.995196 212.580964 
L 126.128784 212.00227 
L 137.619654 211.230678 
L 148.067653 210.266188 
L 157.868595 209.1088 
L 167.226979 207.758514 
L 176.212875 206.21533 
L 183.934839 204.672146 
L 191.511539 202.936064 
L 198.884623 201.007084 
L 205.407882 199.078104 
L 211.811687 196.956226 
L 218.058686 194.641449 
L 226.603622 191.169285 
L 237.467333 186.539733 
L 248.213717 181.717283 
L 257.993089 177.08773 
L 266.86352 172.651076 
L 274.876587 168.40732 
L 282.413862 164.163564 
L 289.149624 160.112705 
L 295.133052 156.254745 
L 300.413033 152.589683 
L 305.038163 149.117519 
L 309.0567 145.838253 
L 312.722081 142.558986 
L 315.835885 139.472618 
L 318.44642 136.579148 
L 320.601545 133.878576 
L 322.472487 131.178004 
L 323.943075 128.67033 
L 325.061086 126.355554 
L 325.937047 124.040777 
L 326.515528 121.918899 
L 326.866256 119.797021 
L 326.974709 117.868041 
L 326.870454 115.939061 
L 326.517397 113.817183 
L 325.931217 111.695305 
L 325.042116 109.380529 
L 323.907073 107.065752 
L 322.414564 104.558078 
L 320.662032 102.050404 
L 318.497478 99.349832 
L 315.873538 96.456362 
L 312.947813 93.562892 
L 309.508075 90.476523 
L 305.506833 87.197257 
L 300.896155 83.725093 
L 295.915065 80.252929 
L 290.269825 76.587867 
L 283.912489 72.729906 
L 276.794748 68.679048 
L 268.867929 64.435292 
L 260.082849 59.998638 
L 250.803683 55.561983 
L 240.606799 50.932431 
L 229.431045 46.109981 
L 218.149731 41.480429 
L 209.664956 38.201162 
L 203.509656 36.079284 
L 196.628232 33.957406 
L 189.581335 32.028426 
L 182.417632 30.292344 
L 174.244872 28.556262 
L 165.860664 27.013078 
L 157.343681 25.662792 
L 148.785025 24.505404 
L 140.284106 23.540914 
L 129.605852 22.576424 
L 121.230171 21.99773 
L 109.663967 21.419036 
L 95.87818 20.840341 
L 93.680424 20.454545 
L 93.680424 20.454545 
" style="fill:none;stroke:#008000;stroke-dasharray:5.55,2.4;stroke-dashoffset:0;stroke-width:1.5;"/>
   </g>
   <g id="patch_3">
    <path d="M 50.55 223.2 
L 50.55 10.8 
" style="fill:none;stroke:#000000;stroke-linecap:square;stroke-linejoin:miter;stroke-width:0.8;"/>
   </g>
   <g id="patch_4">
    <path d="M 421.2 223.2 
L 421.2 10.8 
" style="fill:none;stroke:#000000;stroke-linecap:square;stroke-linejoin:miter;stroke-width:0.8;"/>
   </g>
   <g id="patch_5">
    <path d="M 50.55 223.2 
L 421.2 223.2 
" style="fill:none;stroke:#000000;stroke-linecap:square;stroke-linejoin:miter;stroke-width:0.8;"/>
   </g>
   <g id="patch_6">
    <path d="M 50.55 10.8 
L 421.2 10.8 
" style="fill:none;stroke:#000000;stroke-linecap:square;stroke-linejoin:miter;stroke-width:0.8;"/>
   </g>
   <g id="legend_1">
    <g id="patch_7">
     <path d="M 57.55 142.8 
L 163.75 142.8 
Q 165.75 142.8 165.75 140.8 
L 165.75 93.2 
Q 165.75 91.2 163.75 91.2 
L 57.55 91.2 
Q 55.55 91.2 55.55 93.2 
L 55.55 140.8 
Q 55.55 142.8 57.55 142.8 
z
" style="fill:#ffffff;opacity:0.8;stroke:#cccccc;stroke-linejoin:miter;"/>
    </g>
    <g id="line2d_12">
     <path d="M 59.55 100.8 
L 79.55 100.8 
" style="fill:none;stroke:#1f77b4;stroke-linecap:square;stroke-width:1.5;"/>
    </g>
    <g id="line2d_13"/>
    <g id="text_8">
     <!-- $\rho = 1096 \mathrm{kg/m^3}$ -->
     <defs>
      <path d="M 18.796875 44.921875 
Q 22.703125 49.90625 30.953125 54.296875 
Q 34.1875 56 43.0625 56 
Q 53.03125 56 57.71875 48.09375 
Q 62.40625 40.1875 59.90625 27.296875 
Q 57.375 14.40625 49.609375 6.484375 
Q 41.84375 -1.421875 31.890625 -1.421875 
Q 25.875 -1.421875 22.015625 0.984375 
Q 18.171875 3.328125 16.3125 8.203125 
L 10.640625 -20.796875 
L 1.609375 -20.796875 
L 10.890625 26.8125 
Q 13.09375 38.09375 18.796875 44.921875 
z
M 50.59375 27.296875 
Q 52.484375 37.203125 49.515625 42.875 
Q 46.53125 48.484375 39.40625 48.484375 
Q 32.28125 48.484375 27.09375 42.875 
Q 21.921875 37.203125 20.015625 27.296875 
Q 18.0625 17.390625 21.046875 11.71875 
Q 24.03125 6.109375 31.15625 6.109375 
Q 38.28125 6.109375 43.453125 11.71875 
Q 48.640625 17.390625 50.59375 27.296875 
z
" id="DejaVuSans-Oblique-961"/>
      <path d="M 10.59375 45.40625 
L 73.1875 45.40625 
L 73.1875 37.203125 
L 10.59375 37.203125 
z
M 10.59375 25.484375 
L 73.1875 25.484375 
L 73.1875 17.1875 
L 10.59375 17.1875 
z
" id="DejaVuSans-61"/>
      <path d="M 10.984375 1.515625 
L 10.984375 10.5 
Q 14.703125 8.734375 18.5 7.8125 
Q 22.3125 6.890625 25.984375 6.890625 
Q 35.75 6.890625 40.890625 13.453125 
Q 46.046875 20.015625 46.78125 33.40625 
Q 43.953125 29.203125 39.59375 26.953125 
Q 35.25 24.703125 29.984375 24.703125 
Q 19.046875 24.703125 12.671875 31.3125 
Q 6.296875 37.9375 6.296875 49.421875 
Q 6.296875 60.640625 12.9375 67.421875 
Q 19.578125 74.21875 30.609375 74.21875 
Q 43.265625 74.21875 49.921875 64.515625 
Q 56.59375 54.828125 56.59375 36.375 
Q 56.59375 19.140625 48.40625 8.859375 
Q 40.234375 -1.421875 26.421875 -1.421875 
Q 22.703125 -1.421875 18.890625 -0.6875 
Q 15.09375 0.046875 10.984375 1.515625 
z
M 30.609375 32.421875 
Q 37.25 32.421875 41.125 36.953125 
Q 45.015625 41.5 45.015625 49.421875 
Q 45.015625 57.28125 41.125 61.84375 
Q 37.25 66.40625 30.609375 66.40625 
Q 23.96875 66.40625 20.09375 61.84375 
Q 16.21875 57.28125 16.21875 49.421875 
Q 16.21875 41.5 20.09375 36.953125 
Q 23.96875 32.421875 30.609375 32.421875 
z
" id="DejaVuSans-57"/>
      <path d="M 33.015625 40.375 
Q 26.375 40.375 22.484375 35.828125 
Q 18.609375 31.296875 18.609375 23.390625 
Q 18.609375 15.53125 22.484375 10.953125 
Q 26.375 6.390625 33.015625 6.390625 
Q 39.65625 6.390625 43.53125 10.953125 
Q 47.40625 15.53125 47.40625 23.390625 
Q 47.40625 31.296875 43.53125 35.828125 
Q 39.65625 40.375 33.015625 40.375 
z
M 52.59375 71.296875 
L 52.59375 62.3125 
Q 48.875 64.0625 45.09375 64.984375 
Q 41.3125 65.921875 37.59375 65.921875 
Q 27.828125 65.921875 22.671875 59.328125 
Q 17.53125 52.734375 16.796875 39.40625 
Q 19.671875 43.65625 24.015625 45.921875 
Q 28.375 48.1875 33.59375 48.1875 
Q 44.578125 48.1875 50.953125 41.515625 
Q 57.328125 34.859375 57.328125 23.390625 
Q 57.328125 12.15625 50.6875 5.359375 
Q 44.046875 -1.421875 33.015625 -1.421875 
Q 20.359375 -1.421875 13.671875 8.265625 
Q 6.984375 17.96875 6.984375 36.375 
Q 6.984375 53.65625 15.1875 63.9375 
Q 23.390625 74.21875 37.203125 74.21875 
Q 40.921875 74.21875 44.703125 73.484375 
Q 48.484375 72.75 52.59375 71.296875 
z
" id="DejaVuSans-54"/>
      <path d="M 9.078125 75.984375 
L 18.109375 75.984375 
L 18.109375 31.109375 
L 44.921875 54.6875 
L 56.390625 54.6875 
L 27.390625 29.109375 
L 57.625 0 
L 45.90625 0 
L 18.109375 26.703125 
L 18.109375 0 
L 9.078125 0 
z
" id="DejaVuSans-107"/>
      <path d="M 45.40625 27.984375 
Q 45.40625 37.75 41.375 43.109375 
Q 37.359375 48.484375 30.078125 48.484375 
Q 22.859375 48.484375 18.828125 43.109375 
Q 14.796875 37.75 14.796875 27.984375 
Q 14.796875 18.265625 18.828125 12.890625 
Q 22.859375 7.515625 30.078125 7.515625 
Q 37.359375 7.515625 41.375 12.890625 
Q 45.40625 18.265625 45.40625 27.984375 
z
M 54.390625 6.78125 
Q 54.390625 -7.171875 48.1875 -13.984375 
Q 42 -20.796875 29.203125 -20.796875 
Q 24.46875 -20.796875 20.265625 -20.09375 
Q 16.0625 -19.390625 12.109375 -17.921875 
L 12.109375 -9.1875 
Q 16.0625 -11.328125 19.921875 -12.34375 
Q 23.78125 -13.375 27.78125 -13.375 
Q 36.625 -13.375 41.015625 -8.765625 
Q 45.40625 -4.15625 45.40625 5.171875 
L 45.40625 9.625 
Q 42.625 4.78125 38.28125 2.390625 
Q 33.9375 0 27.875 0 
Q 17.828125 0 11.671875 7.65625 
Q 5.515625 15.328125 5.515625 27.984375 
Q 5.515625 40.671875 11.671875 48.328125 
Q 17.828125 56 27.875 56 
Q 33.9375 56 38.28125 53.609375 
Q 42.625 51.21875 45.40625 46.390625 
L 45.40625 54.6875 
L 54.390625 54.6875 
z
" id="DejaVuSans-103"/>
      <path d="M 25.390625 72.90625 
L 33.6875 72.90625 
L 8.296875 -9.28125 
L 0 -9.28125 
z
" id="DejaVuSans-47"/>
      <path d="M 40.578125 39.3125 
Q 47.65625 37.796875 51.625 33 
Q 55.609375 28.21875 55.609375 21.1875 
Q 55.609375 10.40625 48.1875 4.484375 
Q 40.765625 -1.421875 27.09375 -1.421875 
Q 22.515625 -1.421875 17.65625 -0.515625 
Q 12.796875 0.390625 7.625 2.203125 
L 7.625 11.71875 
Q 11.71875 9.328125 16.59375 8.109375 
Q 21.484375 6.890625 26.8125 6.890625 
Q 36.078125 6.890625 40.9375 10.546875 
Q 45.796875 14.203125 45.796875 21.1875 
Q 45.796875 27.640625 41.28125 31.265625 
Q 36.765625 34.90625 28.71875 34.90625 
L 20.21875 34.90625 
L 20.21875 43.015625 
L 29.109375 43.015625 
Q 36.375 43.015625 40.234375 45.921875 
Q 44.09375 48.828125 44.09375 54.296875 
Q 44.09375 59.90625 40.109375 62.90625 
Q 36.140625 65.921875 28.71875 65.921875 
Q 24.65625 65.921875 20.015625 65.03125 
Q 15.375 64.15625 9.8125 62.3125 
L 9.8125 71.09375 
Q 15.4375 72.65625 20.34375 73.4375 
Q 25.25 74.21875 29.59375 74.21875 
Q 40.828125 74.21875 47.359375 69.109375 
Q 53.90625 64.015625 53.90625 55.328125 
Q 53.90625 49.265625 50.4375 45.09375 
Q 46.96875 40.921875 40.578125 39.3125 
z
" id="DejaVuSans-51"/>
     </defs>
     <g transform="translate(87.55 104.3)scale(0.1 -0.1)">
      <use transform="translate(0 0.765625)" xlink:href="#DejaVuSans-Oblique-961"/>
      <use transform="translate(82.958984 0.765625)" xlink:href="#DejaVuSans-61"/>
      <use transform="translate(186.230469 0.765625)" xlink:href="#DejaVuSans-49"/>
      <use transform="translate(249.853516 0.765625)" xlink:href="#DejaVuSans-48"/>
      <use transform="translate(313.476562 0.765625)" xlink:href="#DejaVuSans-57"/>
      <use transform="translate(377.099609 0.765625)" xlink:href="#DejaVuSans-54"/>
      <use transform="translate(440.722656 0.765625)" xlink:href="#DejaVuSans-107"/>
      <use transform="translate(498.632812 0.765625)" xlink:href="#DejaVuSans-103"/>
      <use transform="translate(562.109375 0.765625)" xlink:href="#DejaVuSans-47"/>
      <use transform="translate(595.800781 0.765625)" xlink:href="#DejaVuSans-109"/>
      <use transform="translate(694.169922 39.046875)scale(0.7)" xlink:href="#DejaVuSans-51"/>
     </g>
    </g>
    <g id="line2d_14">
     <path d="M 59.55 117 
L 79.55 117 
" style="fill:none;stroke:#ff7f0e;stroke-linecap:square;stroke-width:1.5;"/>
    </g>
    <g id="line2d_15"/>
    <g id="text_9">
     <!-- $\rho = 1500 \mathrm{kg/m^3}$ -->
     <defs>
      <path d="M 10.796875 72.90625 
L 49.515625 72.90625 
L 49.515625 64.59375 
L 19.828125 64.59375 
L 19.828125 46.734375 
Q 21.96875 47.46875 24.109375 47.828125 
Q 26.265625 48.1875 28.421875 48.1875 
Q 40.625 48.1875 47.75 41.5 
Q 54.890625 34.8125 54.890625 23.390625 
Q 54.890625 11.625 47.5625 5.09375 
Q 40.234375 -1.421875 26.90625 -1.421875 
Q 22.3125 -1.421875 17.546875 -0.640625 
Q 12.796875 0.140625 7.71875 1.703125 
L 7.71875 11.625 
Q 12.109375 9.234375 16.796875 8.0625 
Q 21.484375 6.890625 26.703125 6.890625 
Q 35.15625 6.890625 40.078125 11.328125 
Q 45.015625 15.765625 45.015625 23.390625 
Q 45.015625 31 40.078125 35.4375 
Q 35.15625 39.890625 26.703125 39.890625 
Q 22.75 39.890625 18.8125 39.015625 
Q 14.890625 38.140625 10.796875 36.28125 
z
" id="DejaVuSans-53"/>
     </defs>
     <g transform="translate(87.55 120.5)scale(0.1 -0.1)">
      <use transform="translate(0 0.765625)" xlink:href="#DejaVuSans-Oblique-961"/>
      <use transform="translate(82.958984 0.765625)" xlink:href="#DejaVuSans-61"/>
      <use transform="translate(186.230469 0.765625)" xlink:href="#DejaVuSans-49"/>
      <use transform="translate(249.853516 0.765625)" xlink:href="#DejaVuSans-53"/>
      <use transform="translate(313.476562 0.765625)" xlink:href="#DejaVuSans-48"/>
      <use transform="translate(377.099609 0.765625)" xlink:href="#DejaVuSans-48"/>
      <use transform="translate(440.722656 0.765625)" xlink:href="#DejaVuSans-107"/>
      <use transform="translate(498.632812 0.765625)" xlink:href="#DejaVuSans-103"/>
      <use transform="translate(562.109375 0.765625)" xlink:href="#DejaVuSans-47"/>
      <use transform="translate(595.800781 0.765625)" xlink:href="#DejaVuSans-109"/>
      <use transform="translate(694.169922 39.046875)scale(0.7)" xlink:href="#DejaVuSans-51"/>
     </g>
    </g>
    <g id="line2d_16">
     <path d="M 59.55 133.2 
L 79.55 133.2 
" style="fill:none;stroke:#2ca02c;stroke-linecap:square;stroke-width:1.5;"/>
    </g>
    <g id="line2d_17"/>
    <g id="text_10">
     <!-- $\rho = 2500 \mathrm{kg/m^3}$ -->
     <g transform="translate(87.55 136.7)scale(0.1 -0.1)">
      <use transform="translate(0 0.765625)" xlink:href="#DejaVuSans-Oblique-961"/>
      <use transform="translate(82.958984 0.765625)" xlink:href="#DejaVuSans-61"/>
      <use transform="translate(186.230469 0.765625)" xlink:href="#DejaVuSans-50"/>
      <use transform="translate(249.853516 0.765625)" xlink:href="#DejaVuSans-53"/>
      <use transform="translate(313.476562 0.765625)" xlink:href="#DejaVuSans-48"/>
      <use transform="translate(377.099609 0.765625)" xlink:href="#DejaVuSans-48"/>
      <use transform="translate(440.722656 0.765625)" xlink:href="#DejaVuSans-107"/>
      <use transform="translate(498.632812 0.765625)" xlink:href="#DejaVuSans-103"/>
      <use transform="translate(562.109375 0.765625)" xlink:href="#DejaVuSans-47"/>
      <use transform="translate(595.800781 0.765625)" xlink:href="#DejaVuSans-109"/>
      <use transform="translate(694.169922 39.046875)scale(0.7)" xlink:href="#DejaVuSans-51"/>
     </g>
    </g>
   </g>
  </g>
 </g>
 <defs>
  <clipPath id="pac146d0b48">
   <rect height="212.4" width="370.65" x="50.55" y="10.8"/>
  </clipPath>
 </defs>
</svg>
