<?xml version="1.0" encoding="utf-8" standalone="no"?>
<!DOCTYPE svg PUBLIC "-//W3C//DTD SVG 1.1//EN"
  "http://www.w3.org/Graphics/SVG/1.1/DTD/svg11.dtd">
<!-- Created with matplotlib (https://matplotlib.org/) -->
<svg height="252pt" version="1.1" viewBox="0 0 288 252" width="288pt" xmlns="http://www.w3.org/2000/svg" xmlns:xlink="http://www.w3.org/1999/xlink">
 <defs>
  <style type="text/css">
*{stroke-linecap:butt;stroke-linejoin:round;}
  </style>
 </defs>
 <g id="figure_1">
  <g id="patch_1">
   <path d="M 0 252 
L 288 252 
L 288 0 
L 0 0 
z
" style="fill:#ffffff;"/>
  </g>
  <g id="axes_1">
   <g id="patch_2">
    <path d="M 50.55 206.2 
L 277.2 206.2 
L 277.2 10.8 
L 50.55 10.8 
z
" style="fill:#ffffff;"/>
   </g>
   <g id="matplotlib.axis_1">
    <g id="xtick_1">
     <g id="line2d_1">
      <defs>
       <path d="M 0 0 
L 0 3.5 
" id="m365617a04b" style="stroke:#000000;stroke-width:0.8;"/>
      </defs>
      <g>
       <use style="stroke:#000000;stroke-width:0.8;" x="60.934526" xlink:href="#m365617a04b" y="206.2"/>
      </g>
     </g>
     <g id="text_1">
      <!-- 0.00 -->
      <defs>
       <path d="M 31.78125 66.40625 
Q 24.171875 66.40625 20.328125 58.90625 
Q 16.5 51.421875 16.5 36.375 
Q 16.5 21.390625 20.328125 13.890625 
Q 24.171875 6.390625 31.78125 6.390625 
Q 39.453125 6.390625 43.28125 13.890625 
Q 47.125 21.390625 47.125 36.375 
Q 47.125 51.421875 43.28125 58.90625 
Q 39.453125 66.40625 31.78125 66.40625 
z
M 31.78125 74.21875 
Q 44.046875 74.21875 50.515625 64.515625 
Q 56.984375 54.828125 56.984375 36.375 
Q 56.984375 17.96875 50.515625 8.265625 
Q 44.046875 -1.421875 31.78125 -1.421875 
Q 19.53125 -1.421875 13.0625 8.265625 
Q 6.59375 17.96875 6.59375 36.375 
Q 6.59375 54.828125 13.0625 64.515625 
Q 19.53125 74.21875 31.78125 74.21875 
z
" id="DejaVuSans-48"/>
       <path d="M 10.6875 12.40625 
L 21 12.40625 
L 21 0 
L 10.6875 0 
z
" id="DejaVuSans-46"/>
      </defs>
      <g transform="translate(49.801714 220.798438)scale(0.1 -0.1)">
       <use xlink:href="#DejaVuSans-48"/>
       <use x="63.623047" xlink:href="#DejaVuSans-46"/>
       <use x="95.410156" xlink:href="#DejaVuSans-48"/>
       <use x="159.033203" xlink:href="#DejaVuSans-48"/>
      </g>
     </g>
    </g>
    <g id="xtick_2">
     <g id="line2d_2">
      <g>
       <use style="stroke:#000000;stroke-width:0.8;" x="98.092707" xlink:href="#m365617a04b" y="206.2"/>
      </g>
     </g>
     <g id="text_2">
      <!-- 0.01 -->
      <defs>
       <path d="M 12.40625 8.296875 
L 28.515625 8.296875 
L 28.515625 63.921875 
L 10.984375 60.40625 
L 10.984375 69.390625 
L 28.421875 72.90625 
L 38.28125 72.90625 
L 38.28125 8.296875 
L 54.390625 8.296875 
L 54.390625 0 
L 12.40625 0 
z
" id="DejaVuSans-49"/>
      </defs>
      <g transform="translate(86.959894 220.798438)scale(0.1 -0.1)">
       <use xlink:href="#DejaVuSans-48"/>
       <use x="63.623047" xlink:href="#DejaVuSans-46"/>
       <use x="95.410156" xlink:href="#DejaVuSans-48"/>
       <use x="159.033203" xlink:href="#DejaVuSans-49"/>
      </g>
     </g>
    </g>
    <g id="xtick_3">
     <g id="line2d_3">
      <g>
       <use style="stroke:#000000;stroke-width:0.8;" x="135.250887" xlink:href="#m365617a04b" y="206.2"/>
      </g>
     </g>
     <g id="text_3">
      <!-- 0.02 -->
      <defs>
       <path d="M 19.1875 8.296875 
L 53.609375 8.296875 
L 53.609375 0 
L 7.328125 0 
L 7.328125 8.296875 
Q 12.9375 14.109375 22.625 23.890625 
Q 32.328125 33.6875 34.8125 36.53125 
Q 39.546875 41.84375 41.421875 45.53125 
Q 43.3125 49.21875 43.3125 52.78125 
Q 43.3125 58.59375 39.234375 62.25 
Q 35.15625 65.921875 28.609375 65.921875 
Q 23.96875 65.921875 18.8125 64.3125 
Q 13.671875 62.703125 7.8125 59.421875 
L 7.8125 69.390625 
Q 13.765625 71.78125 18.9375 73 
Q 24.125 74.21875 28.421875 74.21875 
Q 39.75 74.21875 46.484375 68.546875 
Q 53.21875 62.890625 53.21875 53.421875 
Q 53.21875 48.921875 51.53125 44.890625 
Q 49.859375 40.875 45.40625 35.40625 
Q 44.1875 33.984375 37.640625 27.21875 
Q 31.109375 20.453125 19.1875 8.296875 
z
" id="DejaVuSans-50"/>
      </defs>
      <g transform="translate(124.118074 220.798438)scale(0.1 -0.1)">
       <use xlink:href="#DejaVuSans-48"/>
       <use x="63.623047" xlink:href="#DejaVuSans-46"/>
       <use x="95.410156" xlink:href="#DejaVuSans-48"/>
       <use x="159.033203" xlink:href="#DejaVuSans-50"/>
      </g>
     </g>
    </g>
    <g id="xtick_4">
     <g id="line2d_4">
      <g>
       <use style="stroke:#000000;stroke-width:0.8;" x="172.409067" xlink:href="#m365617a04b" y="206.2"/>
      </g>
     </g>
     <g id="text_4">
      <!-- 0.03 -->
      <defs>
       <path d="M 40.578125 39.3125 
Q 47.65625 37.796875 51.625 33 
Q 55.609375 28.21875 55.609375 21.1875 
Q 55.609375 10.40625 48.1875 4.484375 
Q 40.765625 -1.421875 27.09375 -1.421875 
Q 22.515625 -1.421875 17.65625 -0.515625 
Q 12.796875 0.390625 7.625 2.203125 
L 7.625 11.71875 
Q 11.71875 9.328125 16.59375 8.109375 
Q 21.484375 6.890625 26.8125 6.890625 
Q 36.078125 6.890625 40.9375 10.546875 
Q 45.796875 14.203125 45.796875 21.1875 
Q 45.796875 27.640625 41.28125 31.265625 
Q 36.765625 34.90625 28.71875 34.90625 
L 20.21875 34.90625 
L 20.21875 43.015625 
L 29.109375 43.015625 
Q 36.375 43.015625 40.234375 45.921875 
Q 44.09375 48.828125 44.09375 54.296875 
Q 44.09375 59.90625 40.109375 62.90625 
Q 36.140625 65.921875 28.71875 65.921875 
Q 24.65625 65.921875 20.015625 65.03125 
Q 15.375 64.15625 9.8125 62.3125 
L 9.8125 71.09375 
Q 15.4375 72.65625 20.34375 73.4375 
Q 25.25 74.21875 29.59375 74.21875 
Q 40.828125 74.21875 47.359375 69.109375 
Q 53.90625 64.015625 53.90625 55.328125 
Q 53.90625 49.265625 50.4375 45.09375 
Q 46.96875 40.921875 40.578125 39.3125 
z
" id="DejaVuSans-51"/>
      </defs>
      <g transform="translate(161.276254 220.798438)scale(0.1 -0.1)">
       <use xlink:href="#DejaVuSans-48"/>
       <use x="63.623047" xlink:href="#DejaVuSans-46"/>
       <use x="95.410156" xlink:href="#DejaVuSans-48"/>
       <use x="159.033203" xlink:href="#DejaVuSans-51"/>
      </g>
     </g>
    </g>
    <g id="xtick_5">
     <g id="line2d_5">
      <g>
       <use style="stroke:#000000;stroke-width:0.8;" x="209.567247" xlink:href="#m365617a04b" y="206.2"/>
      </g>
     </g>
     <g id="text_5">
      <!-- 0.04 -->
      <defs>
       <path d="M 37.796875 64.3125 
L 12.890625 25.390625 
L 37.796875 25.390625 
z
M 35.203125 72.90625 
L 47.609375 72.90625 
L 47.609375 25.390625 
L 58.015625 25.390625 
L 58.015625 17.1875 
L 47.609375 17.1875 
L 47.609375 0 
L 37.796875 0 
L 37.796875 17.1875 
L 4.890625 17.1875 
L 4.890625 26.703125 
z
" id="DejaVuSans-52"/>
      </defs>
      <g transform="translate(198.434434 220.798438)scale(0.1 -0.1)">
       <use xlink:href="#DejaVuSans-48"/>
       <use x="63.623047" xlink:href="#DejaVuSans-46"/>
       <use x="95.410156" xlink:href="#DejaVuSans-48"/>
       <use x="159.033203" xlink:href="#DejaVuSans-52"/>
      </g>
     </g>
    </g>
    <g id="xtick_6">
     <g id="line2d_6">
      <g>
       <use style="stroke:#000000;stroke-width:0.8;" x="246.725427" xlink:href="#m365617a04b" y="206.2"/>
      </g>
     </g>
     <g id="text_6">
      <!-- 0.05 -->
      <defs>
       <path d="M 10.796875 72.90625 
L 49.515625 72.90625 
L 49.515625 64.59375 
L 19.828125 64.59375 
L 19.828125 46.734375 
Q 21.96875 47.46875 24.109375 47.828125 
Q 26.265625 48.1875 28.421875 48.1875 
Q 40.625 48.1875 47.75 41.5 
Q 54.890625 34.8125 54.890625 23.390625 
Q 54.890625 11.625 47.5625 5.09375 
Q 40.234375 -1.421875 26.90625 -1.421875 
Q 22.3125 -1.421875 17.546875 -0.640625 
Q 12.796875 0.140625 7.71875 1.703125 
L 7.71875 11.625 
Q 12.109375 9.234375 16.796875 8.0625 
Q 21.484375 6.890625 26.703125 6.890625 
Q 35.15625 6.890625 40.078125 11.328125 
Q 45.015625 15.765625 45.015625 23.390625 
Q 45.015625 31 40.078125 35.4375 
Q 35.15625 39.890625 26.703125 39.890625 
Q 22.75 39.890625 18.8125 39.015625 
Q 14.890625 38.140625 10.796875 36.28125 
z
" id="DejaVuSans-53"/>
      </defs>
      <g transform="translate(235.592614 220.798438)scale(0.1 -0.1)">
       <use xlink:href="#DejaVuSans-48"/>
       <use x="63.623047" xlink:href="#DejaVuSans-46"/>
       <use x="95.410156" xlink:href="#DejaVuSans-48"/>
       <use x="159.033203" xlink:href="#DejaVuSans-53"/>
      </g>
     </g>
    </g>
    <g id="text_7">
     <!-- Velocity [m/s] -->
     <defs>
      <path d="M 28.609375 0 
L 0.78125 72.90625 
L 11.078125 72.90625 
L 34.1875 11.53125 
L 57.328125 72.90625 
L 67.578125 72.90625 
L 39.796875 0 
z
" id="DejaVuSans-86"/>
      <path d="M 56.203125 29.59375 
L 56.203125 25.203125 
L 14.890625 25.203125 
Q 15.484375 15.921875 20.484375 11.0625 
Q 25.484375 6.203125 34.421875 6.203125 
Q 39.59375 6.203125 44.453125 7.46875 
Q 49.3125 8.734375 54.109375 11.28125 
L 54.109375 2.78125 
Q 49.265625 0.734375 44.1875 -0.34375 
Q 39.109375 -1.421875 33.890625 -1.421875 
Q 20.796875 -1.421875 13.15625 6.1875 
Q 5.515625 13.8125 5.515625 26.8125 
Q 5.515625 40.234375 12.765625 48.109375 
Q 20.015625 56 32.328125 56 
Q 43.359375 56 49.78125 48.890625 
Q 56.203125 41.796875 56.203125 29.59375 
z
M 47.21875 32.234375 
Q 47.125 39.59375 43.09375 43.984375 
Q 39.0625 48.390625 32.421875 48.390625 
Q 24.90625 48.390625 20.390625 44.140625 
Q 15.875 39.890625 15.1875 32.171875 
z
" id="DejaVuSans-101"/>
      <path d="M 9.421875 75.984375 
L 18.40625 75.984375 
L 18.40625 0 
L 9.421875 0 
z
" id="DejaVuSans-108"/>
      <path d="M 30.609375 48.390625 
Q 23.390625 48.390625 19.1875 42.75 
Q 14.984375 37.109375 14.984375 27.296875 
Q 14.984375 17.484375 19.15625 11.84375 
Q 23.34375 6.203125 30.609375 6.203125 
Q 37.796875 6.203125 41.984375 11.859375 
Q 46.1875 17.53125 46.1875 27.296875 
Q 46.1875 37.015625 41.984375 42.703125 
Q 37.796875 48.390625 30.609375 48.390625 
z
M 30.609375 56 
Q 42.328125 56 49.015625 48.375 
Q 55.71875 40.765625 55.71875 27.296875 
Q 55.71875 13.875 49.015625 6.21875 
Q 42.328125 -1.421875 30.609375 -1.421875 
Q 18.84375 -1.421875 12.171875 6.21875 
Q 5.515625 13.875 5.515625 27.296875 
Q 5.515625 40.765625 12.171875 48.375 
Q 18.84375 56 30.609375 56 
z
" id="DejaVuSans-111"/>
      <path d="M 48.78125 52.59375 
L 48.78125 44.1875 
Q 44.96875 46.296875 41.140625 47.34375 
Q 37.3125 48.390625 33.40625 48.390625 
Q 24.65625 48.390625 19.8125 42.84375 
Q 14.984375 37.3125 14.984375 27.296875 
Q 14.984375 17.28125 19.8125 11.734375 
Q 24.65625 6.203125 33.40625 6.203125 
Q 37.3125 6.203125 41.140625 7.25 
Q 44.96875 8.296875 48.78125 10.40625 
L 48.78125 2.09375 
Q 45.015625 0.34375 40.984375 -0.53125 
Q 36.96875 -1.421875 32.421875 -1.421875 
Q 20.0625 -1.421875 12.78125 6.34375 
Q 5.515625 14.109375 5.515625 27.296875 
Q 5.515625 40.671875 12.859375 48.328125 
Q 20.21875 56 33.015625 56 
Q 37.15625 56 41.109375 55.140625 
Q 45.0625 54.296875 48.78125 52.59375 
z
" id="DejaVuSans-99"/>
      <path d="M 9.421875 54.6875 
L 18.40625 54.6875 
L 18.40625 0 
L 9.421875 0 
z
M 9.421875 75.984375 
L 18.40625 75.984375 
L 18.40625 64.59375 
L 9.421875 64.59375 
z
" id="DejaVuSans-105"/>
      <path d="M 18.3125 70.21875 
L 18.3125 54.6875 
L 36.8125 54.6875 
L 36.8125 47.703125 
L 18.3125 47.703125 
L 18.3125 18.015625 
Q 18.3125 11.328125 20.140625 9.421875 
Q 21.96875 7.515625 27.59375 7.515625 
L 36.8125 7.515625 
L 36.8125 0 
L 27.59375 0 
Q 17.1875 0 13.234375 3.875 
Q 9.28125 7.765625 9.28125 18.015625 
L 9.28125 47.703125 
L 2.6875 47.703125 
L 2.6875 54.6875 
L 9.28125 54.6875 
L 9.28125 70.21875 
z
" id="DejaVuSans-116"/>
      <path d="M 32.171875 -5.078125 
Q 28.375 -14.84375 24.75 -17.8125 
Q 21.140625 -20.796875 15.09375 -20.796875 
L 7.90625 -20.796875 
L 7.90625 -13.28125 
L 13.1875 -13.28125 
Q 16.890625 -13.28125 18.9375 -11.515625 
Q 21 -9.765625 23.484375 -3.21875 
L 25.09375 0.875 
L 2.984375 54.6875 
L 12.5 54.6875 
L 29.59375 11.921875 
L 46.6875 54.6875 
L 56.203125 54.6875 
z
" id="DejaVuSans-121"/>
      <path id="DejaVuSans-32"/>
      <path d="M 8.59375 75.984375 
L 29.296875 75.984375 
L 29.296875 69 
L 17.578125 69 
L 17.578125 -6.203125 
L 29.296875 -6.203125 
L 29.296875 -13.1875 
L 8.59375 -13.1875 
z
" id="DejaVuSans-91"/>
      <path d="M 52 44.1875 
Q 55.375 50.25 60.0625 53.125 
Q 64.75 56 71.09375 56 
Q 79.640625 56 84.28125 50.015625 
Q 88.921875 44.046875 88.921875 33.015625 
L 88.921875 0 
L 79.890625 0 
L 79.890625 32.71875 
Q 79.890625 40.578125 77.09375 44.375 
Q 74.3125 48.1875 68.609375 48.1875 
Q 61.625 48.1875 57.5625 43.546875 
Q 53.515625 38.921875 53.515625 30.90625 
L 53.515625 0 
L 44.484375 0 
L 44.484375 32.71875 
Q 44.484375 40.625 41.703125 44.40625 
Q 38.921875 48.1875 33.109375 48.1875 
Q 26.21875 48.1875 22.15625 43.53125 
Q 18.109375 38.875 18.109375 30.90625 
L 18.109375 0 
L 9.078125 0 
L 9.078125 54.6875 
L 18.109375 54.6875 
L 18.109375 46.1875 
Q 21.1875 51.21875 25.484375 53.609375 
Q 29.78125 56 35.6875 56 
Q 41.65625 56 45.828125 52.96875 
Q 50 49.953125 52 44.1875 
z
" id="DejaVuSans-109"/>
      <path d="M 25.390625 72.90625 
L 33.6875 72.90625 
L 8.296875 -9.28125 
L 0 -9.28125 
z
" id="DejaVuSans-47"/>
      <path d="M 44.28125 53.078125 
L 44.28125 44.578125 
Q 40.484375 46.53125 36.375 47.5 
Q 32.28125 48.484375 27.875 48.484375 
Q 21.1875 48.484375 17.84375 46.4375 
Q 14.5 44.390625 14.5 40.28125 
Q 14.5 37.15625 16.890625 35.375 
Q 19.28125 33.59375 26.515625 31.984375 
L 29.59375 31.296875 
Q 39.15625 29.25 43.1875 25.515625 
Q 47.21875 21.78125 47.21875 15.09375 
Q 47.21875 7.46875 41.1875 3.015625 
Q 35.15625 -1.421875 24.609375 -1.421875 
Q 20.21875 -1.421875 15.453125 -0.5625 
Q 10.6875 0.296875 5.421875 2 
L 5.421875 11.28125 
Q 10.40625 8.6875 15.234375 7.390625 
Q 20.0625 6.109375 24.8125 6.109375 
Q 31.15625 6.109375 34.5625 8.28125 
Q 37.984375 10.453125 37.984375 14.40625 
Q 37.984375 18.0625 35.515625 20.015625 
Q 33.0625 21.96875 24.703125 23.78125 
L 21.578125 24.515625 
Q 13.234375 26.265625 9.515625 29.90625 
Q 5.8125 33.546875 5.8125 39.890625 
Q 5.8125 47.609375 11.28125 51.796875 
Q 16.75 56 26.8125 56 
Q 31.78125 56 36.171875 55.265625 
Q 40.578125 54.546875 44.28125 53.078125 
z
" id="DejaVuSans-115"/>
      <path d="M 30.421875 75.984375 
L 30.421875 -13.1875 
L 9.71875 -13.1875 
L 9.71875 -6.203125 
L 21.390625 -6.203125 
L 21.390625 69 
L 9.71875 69 
L 9.71875 75.984375 
z
" id="DejaVuSans-93"/>
     </defs>
     <g transform="translate(115.903125 237.515938)scale(0.14 -0.14)">
      <use xlink:href="#DejaVuSans-86"/>
      <use x="60.658203" xlink:href="#DejaVuSans-101"/>
      <use x="122.181641" xlink:href="#DejaVuSans-108"/>
      <use x="149.964844" xlink:href="#DejaVuSans-111"/>
      <use x="211.146484" xlink:href="#DejaVuSans-99"/>
      <use x="266.126953" xlink:href="#DejaVuSans-105"/>
      <use x="293.910156" xlink:href="#DejaVuSans-116"/>
      <use x="333.119141" xlink:href="#DejaVuSans-121"/>
      <use x="392.298828" xlink:href="#DejaVuSans-32"/>
      <use x="424.085938" xlink:href="#DejaVuSans-91"/>
      <use x="463.099609" xlink:href="#DejaVuSans-109"/>
      <use x="560.511719" xlink:href="#DejaVuSans-47"/>
      <use x="594.203125" xlink:href="#DejaVuSans-115"/>
      <use x="646.302734" xlink:href="#DejaVuSans-93"/>
     </g>
    </g>
   </g>
   <g id="matplotlib.axis_2">
    <g id="ytick_1">
     <g id="line2d_7">
      <defs>
       <path d="M 0 0 
L -3.5 0 
" id="m43b7dd4b5f" style="stroke:#000000;stroke-width:0.8;"/>
      </defs>
      <g>
       <use style="stroke:#000000;stroke-width:0.8;" x="50.55" xlink:href="#m43b7dd4b5f" y="179.483562"/>
      </g>
     </g>
     <g id="text_8">
      <!-- −2 -->
      <defs>
       <path d="M 10.59375 35.5 
L 73.1875 35.5 
L 73.1875 27.203125 
L 10.59375 27.203125 
z
" id="DejaVuSans-8722"/>
      </defs>
      <g transform="translate(28.807813 183.282781)scale(0.1 -0.1)">
       <use xlink:href="#DejaVuSans-8722"/>
       <use x="83.789062" xlink:href="#DejaVuSans-50"/>
      </g>
     </g>
    </g>
    <g id="ytick_2">
     <g id="line2d_8">
      <g>
       <use style="stroke:#000000;stroke-width:0.8;" x="50.55" xlink:href="#m43b7dd4b5f" y="143.991781"/>
      </g>
     </g>
     <g id="text_9">
      <!-- −1 -->
      <g transform="translate(28.807813 147.791)scale(0.1 -0.1)">
       <use xlink:href="#DejaVuSans-8722"/>
       <use x="83.789062" xlink:href="#DejaVuSans-49"/>
      </g>
     </g>
    </g>
    <g id="ytick_3">
     <g id="line2d_9">
      <g>
       <use style="stroke:#000000;stroke-width:0.8;" x="50.55" xlink:href="#m43b7dd4b5f" y="108.5"/>
      </g>
     </g>
     <g id="text_10">
      <!-- 0 -->
      <g transform="translate(37.1875 112.299219)scale(0.1 -0.1)">
       <use xlink:href="#DejaVuSans-48"/>
      </g>
     </g>
    </g>
    <g id="ytick_4">
     <g id="line2d_10">
      <g>
       <use style="stroke:#000000;stroke-width:0.8;" x="50.55" xlink:href="#m43b7dd4b5f" y="73.008219"/>
      </g>
     </g>
     <g id="text_11">
      <!-- 1 -->
      <g transform="translate(37.1875 76.807438)scale(0.1 -0.1)">
       <use xlink:href="#DejaVuSans-49"/>
      </g>
     </g>
    </g>
    <g id="ytick_5">
     <g id="line2d_11">
      <g>
       <use style="stroke:#000000;stroke-width:0.8;" x="50.55" xlink:href="#m43b7dd4b5f" y="37.516438"/>
      </g>
     </g>
     <g id="text_12">
      <!-- 2 -->
      <g transform="translate(37.1875 41.315657)scale(0.1 -0.1)">
       <use xlink:href="#DejaVuSans-50"/>
      </g>
     </g>
    </g>
    <g id="text_13">
     <!-- Position [mm] -->
     <defs>
      <path d="M 19.671875 64.796875 
L 19.671875 37.40625 
L 32.078125 37.40625 
Q 38.96875 37.40625 42.71875 40.96875 
Q 46.484375 44.53125 46.484375 51.125 
Q 46.484375 57.671875 42.71875 61.234375 
Q 38.96875 64.796875 32.078125 64.796875 
z
M 9.8125 72.90625 
L 32.078125 72.90625 
Q 44.34375 72.90625 50.609375 67.359375 
Q 56.890625 61.8125 56.890625 51.125 
Q 56.890625 40.328125 50.609375 34.8125 
Q 44.34375 29.296875 32.078125 29.296875 
L 19.671875 29.296875 
L 19.671875 0 
L 9.8125 0 
z
" id="DejaVuSans-80"/>
      <path d="M 54.890625 33.015625 
L 54.890625 0 
L 45.90625 0 
L 45.90625 32.71875 
Q 45.90625 40.484375 42.875 44.328125 
Q 39.84375 48.1875 33.796875 48.1875 
Q 26.515625 48.1875 22.3125 43.546875 
Q 18.109375 38.921875 18.109375 30.90625 
L 18.109375 0 
L 9.078125 0 
L 9.078125 54.6875 
L 18.109375 54.6875 
L 18.109375 46.1875 
Q 21.34375 51.125 25.703125 53.5625 
Q 30.078125 56 35.796875 56 
Q 45.21875 56 50.046875 50.171875 
Q 54.890625 44.34375 54.890625 33.015625 
z
" id="DejaVuSans-110"/>
     </defs>
     <g transform="translate(21.89625 157.073438)rotate(-90)scale(0.14 -0.14)">
      <use xlink:href="#DejaVuSans-80"/>
      <use x="56.677734" xlink:href="#DejaVuSans-111"/>
      <use x="117.859375" xlink:href="#DejaVuSans-115"/>
      <use x="169.958984" xlink:href="#DejaVuSans-105"/>
      <use x="197.742188" xlink:href="#DejaVuSans-116"/>
      <use x="236.951172" xlink:href="#DejaVuSans-105"/>
      <use x="264.734375" xlink:href="#DejaVuSans-111"/>
      <use x="325.916016" xlink:href="#DejaVuSans-110"/>
      <use x="389.294922" xlink:href="#DejaVuSans-32"/>
      <use x="421.082031" xlink:href="#DejaVuSans-91"/>
      <use x="460.095703" xlink:href="#DejaVuSans-109"/>
      <use x="557.507812" xlink:href="#DejaVuSans-109"/>
      <use x="654.919922" xlink:href="#DejaVuSans-93"/>
     </g>
    </g>
   </g>
   <g id="line2d_12">
    <path clip-path="url(#pcd168b49ea)" d="M 60.852273 197.318182 
L 80.922169 192.881709 
L 99.963895 188.445237 
L 117.276648 184.186223 
L 132.978875 180.104668 
L 147.810857 176.023113 
L 161.18366 172.119017 
L 173.760247 168.214921 
L 185.02242 164.488284 
L 195.073819 160.939106 
L 204.467188 157.389928 
L 212.78139 154.018209 
L 220.50172 150.64649 
L 227.267907 147.45223 
L 233.168786 144.435428 
L 238.594238 141.418627 
L 243.266247 138.579284 
L 247.517116 135.739942 
L 251.119827 133.078058 
L 254.352397 130.416175 
L 257.035512 127.93175 
L 259.396192 125.447325 
L 261.299542 123.14036 
L 262.924875 120.833394 
L 264.27219 118.526428 
L 265.269105 116.396921 
L 266.029128 114.267414 
L 266.552262 112.137908 
L 266.838505 110.008401 
L 266.887857 107.878894 
L 266.700318 105.749387 
L 266.275889 103.61988 
L 265.61457 101.490373 
L 264.71636 99.360866 
L 263.581259 97.23136 
L 262.084242 94.924394 
L 260.309208 92.617428 
L 258.256156 90.310462 
L 255.734259 87.826038 
L 252.889927 85.341613 
L 249.484624 82.679729 
L 245.709181 80.017846 
L 241.274063 77.178503 
L 236.417806 74.339161 
L 230.79659 71.322359 
L 224.699947 68.305558 
L 217.726481 65.111298 
L 210.22001 61.917038 
L 201.718271 58.545318 
L 192.622659 55.173599 
L 182.406753 51.624421 
L 170.971847 47.897784 
L 158.811464 44.171147 
L 145.293895 40.267051 
L 130.980111 36.362955 
L 115.164374 32.2814 
L 97.733175 28.022387 
L 79.354414 23.763373 
L 60.852273 19.681818 
L 60.852273 19.681818 
" style="fill:none;stroke:#1f77b4;stroke-linecap:square;stroke-width:1.5;"/>
   </g>
   <g id="line2d_13">
    <path clip-path="url(#pcd168b49ea)" d="M 60.852292 197.318182 
L 75.161542 194.123922 
L 84.465916 191.816956 
L 92.136985 189.687449 
L 98.97639 187.557942 
L 105.081236 185.428435 
L 110.552978 183.298928 
L 115.871193 180.991963 
L 121.025098 178.507538 
L 130.777486 173.538689 
L 139.703256 168.747298 
L 147.840051 164.133367 
L 155.22549 159.696894 
L 161.897149 155.43788 
L 167.892559 151.356325 
L 173.249189 147.45223 
L 178.004439 143.725593 
L 182.396296 139.998956 
L 186.22715 136.449777 
L 189.534605 133.078058 
L 192.356207 129.883798 
L 194.729421 126.866997 
L 196.691617 124.027654 
L 198.280042 121.365771 
L 199.612346 118.703887 
L 200.611464 116.219462 
L 201.314923 113.912497 
L 201.787972 111.605531 
L 202.005237 109.476024 
L 201.99558 107.346517 
L 201.760134 105.21701 
L 201.268794 102.910045 
L 200.54823 100.603079 
L 199.531782 98.118654 
L 198.280042 95.634229 
L 196.691617 92.972346 
L 194.729421 90.133003 
L 192.356207 87.116202 
L 189.699449 84.099401 
L 186.59078 80.90514 
L 182.993169 77.533421 
L 178.869443 73.984243 
L 174.182313 70.257606 
L 168.894394 66.35351 
L 163.234144 62.449414 
L 156.932389 58.367859 
L 149.951931 54.108846 
L 142.25548 49.672373 
L 133.805673 45.058442 
L 124.565081 40.267051 
L 116.256817 36.185496 
L 110.983324 33.878531 
L 105.560055 31.749024 
L 99.511747 29.619517 
L 92.737501 27.49001 
L 85.805383 25.537962 
L 77.398589 23.408455 
L 67.365477 21.101489 
L 60.852292 19.681818 
L 60.852292 19.681818 
" style="fill:none;stroke:#ff7f0e;stroke-linecap:square;stroke-width:1.5;"/>
   </g>
   <g id="line2d_14">
    <path clip-path="url(#pcd168b49ea)" d="M 60.852273 197.318182 
L 78.461342 193.414086 
L 87.970276 191.10712 
L 95.804174 188.977613 
L 102.17191 187.025565 
L 108.331214 184.896058 
L 113.796899 182.766552 
L 118.686038 180.637045 
L 124.202475 177.975161 
L 133.280191 173.36123 
L 142.214134 168.569839 
L 150.348049 163.955908 
L 157.726568 159.519435 
L 164.389396 155.260421 
L 170.374773 151.178867 
L 175.720455 147.274771 
L 180.463998 143.548134 
L 184.642828 139.998956 
L 188.477596 136.449777 
L 191.788259 133.078058 
L 194.612438 129.883798 
L 196.987676 126.866997 
L 198.951416 124.027654 
L 200.540975 121.365771 
L 201.874122 118.703887 
L 202.873779 116.219462 
L 203.577545 113.912497 
L 204.050744 111.605531 
L 204.268048 109.476024 
L 204.25839 107.346517 
L 204.022899 105.21701 
L 203.531399 102.910045 
L 202.810514 100.603079 
L 201.793511 98.118654 
L 200.540975 95.634229 
L 198.951416 92.972346 
L 196.987676 90.133003 
L 194.612438 87.116202 
L 191.953258 84.099401 
L 188.841587 80.90514 
L 185.240323 77.533421 
L 181.112216 73.984243 
L 176.419896 70.257606 
L 171.125885 66.35351 
L 165.458833 62.449414 
L 159.149084 58.367859 
L 152.158916 54.108846 
L 144.449546 49.672373 
L 135.9789 45.058442 
L 127.046745 40.44451 
L 118.686038 36.362955 
L 113.796899 34.233448 
L 108.331214 32.103942 
L 102.71488 30.151894 
L 96.414256 28.199846 
L 89.342 26.247798 
L 80.738858 24.118291 
L 68.194205 21.278948 
L 60.852273 19.681818 
L 60.852273 19.681818 
" style="fill:none;stroke:#2ca02c;stroke-linecap:square;stroke-width:1.5;"/>
   </g>
   <g id="line2d_15">
    <path clip-path="url(#pcd168b49ea)" d="M 60.852273 197.318182 
L 78.461342 193.414086 
L 87.970276 191.10712 
L 95.804174 188.977613 
L 102.171901 187.025565 
L 108.331158 184.896058 
L 113.796728 182.766552 
L 118.685679 180.637045 
L 124.2019 177.975161 
L 133.279544 173.36123 
L 142.213535 168.569839 
L 150.347514 163.955908 
L 157.726084 159.519435 
L 164.38895 155.260421 
L 170.374352 151.178867 
L 175.720052 147.274771 
L 180.463606 143.548134 
L 184.642442 139.998956 
L 188.477214 136.449777 
L 191.787879 133.078058 
L 194.61206 129.883798 
L 196.987298 126.866997 
L 198.951038 124.027654 
L 200.540597 121.365771 
L 201.873744 118.703887 
L 202.873402 116.219462 
L 203.577167 113.912497 
L 204.050366 111.605531 
L 204.26767 109.476024 
L 204.258012 107.346517 
L 204.022521 105.21701 
L 203.531021 102.910045 
L 202.810136 100.603079 
L 201.793133 98.118654 
L 200.540597 95.634229 
L 198.951038 92.972346 
L 196.987298 90.133003 
L 194.61206 87.116202 
L 191.952878 84.099401 
L 188.841206 80.90514 
L 185.239938 77.533421 
L 181.111825 73.984243 
L 176.419495 70.257606 
L 171.125467 66.35351 
L 165.458392 62.449414 
L 159.148609 58.367859 
L 152.158394 54.108846 
L 144.448965 49.672373 
L 135.978262 45.058442 
L 127.046122 40.44451 
L 118.685679 36.362955 
L 113.796728 34.233448 
L 108.331158 32.103942 
L 102.714868 30.151894 
L 96.414255 28.199846 
L 89.342 26.247798 
L 80.738858 24.118291 
L 68.194205 21.278948 
L 60.852273 19.681818 
L 60.852273 19.681818 
" style="fill:none;stroke:#d62728;stroke-linecap:square;stroke-width:1.5;"/>
   </g>
   <g id="line2d_16">
    <path clip-path="url(#pcd168b49ea)" d="M 60.852273 197.318182 
L 78.461342 193.414086 
L 87.970276 191.10712 
L 95.804174 188.977613 
L 102.171903 187.025565 
L 108.331174 184.896058 
L 113.796784 182.766552 
L 118.685811 180.637045 
L 124.202126 177.975161 
L 133.279802 173.36123 
L 142.213772 168.569839 
L 150.347725 163.955908 
L 157.726275 159.519435 
L 164.389125 155.260421 
L 170.374518 151.178867 
L 175.720212 147.274771 
L 180.463762 143.548134 
L 184.642596 139.998956 
L 188.477367 136.449777 
L 191.788032 133.078058 
L 194.612212 129.883798 
L 196.98745 126.866997 
L 198.95119 124.027654 
L 200.540749 121.365771 
L 201.873896 118.703887 
L 202.873553 116.219462 
L 203.577319 113.912497 
L 204.050518 111.605531 
L 204.267822 109.476024 
L 204.258164 107.346517 
L 204.022673 105.21701 
L 203.531173 102.910045 
L 202.810288 100.603079 
L 201.793285 98.118654 
L 200.540749 95.634229 
L 198.95119 92.972346 
L 196.98745 90.133003 
L 194.612212 87.116202 
L 191.95303 84.099401 
L 188.841358 80.90514 
L 185.240092 77.533421 
L 181.111981 73.984243 
L 176.419654 70.257606 
L 171.125632 66.35351 
L 165.458566 62.449414 
L 159.148796 58.367859 
L 152.158599 54.108846 
L 144.449195 49.672373 
L 135.978516 45.058442 
L 127.046369 40.44451 
L 118.685811 36.362955 
L 113.796784 34.233448 
L 108.331174 32.103942 
L 102.714871 30.151894 
L 96.414255 28.199846 
L 89.342 26.247798 
L 80.738858 24.118291 
L 68.194205 21.278948 
L 60.852273 19.681818 
L 60.852273 19.681818 
" style="fill:none;stroke:#9467bd;stroke-linecap:square;stroke-width:1.5;"/>
   </g>
   <g id="patch_3">
    <path d="M 50.55 206.2 
L 50.55 10.8 
" style="fill:none;stroke:#000000;stroke-linecap:square;stroke-linejoin:miter;stroke-width:0.8;"/>
   </g>
   <g id="patch_4">
    <path d="M 277.2 206.2 
L 277.2 10.8 
" style="fill:none;stroke:#000000;stroke-linecap:square;stroke-linejoin:miter;stroke-width:0.8;"/>
   </g>
   <g id="patch_5">
    <path d="M 50.55 206.2 
L 277.2 206.2 
" style="fill:none;stroke:#000000;stroke-linecap:square;stroke-linejoin:miter;stroke-width:0.8;"/>
   </g>
   <g id="patch_6">
    <path d="M 50.55 10.8 
L 277.2 10.8 
" style="fill:none;stroke:#000000;stroke-linecap:square;stroke-linejoin:miter;stroke-width:0.8;"/>
   </g>
   <g id="legend_1">
    <g id="patch_7">
     <path d="M 57.55 146.695312 
L 184.89375 146.695312 
Q 186.89375 146.695312 186.89375 144.695312 
L 186.89375 72.304688 
Q 186.89375 70.304688 184.89375 70.304688 
L 57.55 70.304688 
Q 55.55 70.304688 55.55 72.304688 
L 55.55 144.695312 
Q 55.55 146.695312 57.55 146.695312 
z
" style="fill:#ffffff;opacity:0.8;stroke:#cccccc;stroke-linejoin:miter;"/>
    </g>
    <g id="line2d_17">
     <path d="M 59.55 78.403125 
L 79.55 78.403125 
" style="fill:none;stroke:#1f77b4;stroke-linecap:square;stroke-width:1.5;"/>
    </g>
    <g id="line2d_18"/>
    <g id="text_14">
     <!-- Laminar -->
     <defs>
      <path d="M 9.8125 72.90625 
L 19.671875 72.90625 
L 19.671875 8.296875 
L 55.171875 8.296875 
L 55.171875 0 
L 9.8125 0 
z
" id="DejaVuSans-76"/>
      <path d="M 34.28125 27.484375 
Q 23.390625 27.484375 19.1875 25 
Q 14.984375 22.515625 14.984375 16.5 
Q 14.984375 11.71875 18.140625 8.90625 
Q 21.296875 6.109375 26.703125 6.109375 
Q 34.1875 6.109375 38.703125 11.40625 
Q 43.21875 16.703125 43.21875 25.484375 
L 43.21875 27.484375 
z
M 52.203125 31.203125 
L 52.203125 0 
L 43.21875 0 
L 43.21875 8.296875 
Q 40.140625 3.328125 35.546875 0.953125 
Q 30.953125 -1.421875 24.3125 -1.421875 
Q 15.921875 -1.421875 10.953125 3.296875 
Q 6 8.015625 6 15.921875 
Q 6 25.140625 12.171875 29.828125 
Q 18.359375 34.515625 30.609375 34.515625 
L 43.21875 34.515625 
L 43.21875 35.40625 
Q 43.21875 41.609375 39.140625 45 
Q 35.0625 48.390625 27.6875 48.390625 
Q 23 48.390625 18.546875 47.265625 
Q 14.109375 46.140625 10.015625 43.890625 
L 10.015625 52.203125 
Q 14.9375 54.109375 19.578125 55.046875 
Q 24.21875 56 28.609375 56 
Q 40.484375 56 46.34375 49.84375 
Q 52.203125 43.703125 52.203125 31.203125 
z
" id="DejaVuSans-97"/>
      <path d="M 41.109375 46.296875 
Q 39.59375 47.171875 37.8125 47.578125 
Q 36.03125 48 33.890625 48 
Q 26.265625 48 22.1875 43.046875 
Q 18.109375 38.09375 18.109375 28.8125 
L 18.109375 0 
L 9.078125 0 
L 9.078125 54.6875 
L 18.109375 54.6875 
L 18.109375 46.1875 
Q 20.953125 51.171875 25.484375 53.578125 
Q 30.03125 56 36.53125 56 
Q 37.453125 56 38.578125 55.875 
Q 39.703125 55.765625 41.0625 55.515625 
z
" id="DejaVuSans-114"/>
     </defs>
     <g transform="translate(87.55 81.903125)scale(0.1 -0.1)">
      <use xlink:href="#DejaVuSans-76"/>
      <use x="55.712891" xlink:href="#DejaVuSans-97"/>
      <use x="116.992188" xlink:href="#DejaVuSans-109"/>
      <use x="214.404297" xlink:href="#DejaVuSans-105"/>
      <use x="242.1875" xlink:href="#DejaVuSans-110"/>
      <use x="305.566406" xlink:href="#DejaVuSans-97"/>
      <use x="366.845703" xlink:href="#DejaVuSans-114"/>
     </g>
    </g>
    <g id="line2d_19">
     <path d="M 59.55 93.08125 
L 79.55 93.08125 
" style="fill:none;stroke:#ff7f0e;stroke-linecap:square;stroke-width:1.5;"/>
    </g>
    <g id="line2d_20"/>
    <g id="text_15">
     <!-- Damping: None -->
     <defs>
      <path d="M 19.671875 64.796875 
L 19.671875 8.109375 
L 31.59375 8.109375 
Q 46.6875 8.109375 53.6875 14.9375 
Q 60.6875 21.78125 60.6875 36.53125 
Q 60.6875 51.171875 53.6875 57.984375 
Q 46.6875 64.796875 31.59375 64.796875 
z
M 9.8125 72.90625 
L 30.078125 72.90625 
Q 51.265625 72.90625 61.171875 64.09375 
Q 71.09375 55.28125 71.09375 36.53125 
Q 71.09375 17.671875 61.125 8.828125 
Q 51.171875 0 30.078125 0 
L 9.8125 0 
z
" id="DejaVuSans-68"/>
      <path d="M 18.109375 8.203125 
L 18.109375 -20.796875 
L 9.078125 -20.796875 
L 9.078125 54.6875 
L 18.109375 54.6875 
L 18.109375 46.390625 
Q 20.953125 51.265625 25.265625 53.625 
Q 29.59375 56 35.59375 56 
Q 45.5625 56 51.78125 48.09375 
Q 58.015625 40.1875 58.015625 27.296875 
Q 58.015625 14.40625 51.78125 6.484375 
Q 45.5625 -1.421875 35.59375 -1.421875 
Q 29.59375 -1.421875 25.265625 0.953125 
Q 20.953125 3.328125 18.109375 8.203125 
z
M 48.6875 27.296875 
Q 48.6875 37.203125 44.609375 42.84375 
Q 40.53125 48.484375 33.40625 48.484375 
Q 26.265625 48.484375 22.1875 42.84375 
Q 18.109375 37.203125 18.109375 27.296875 
Q 18.109375 17.390625 22.1875 11.75 
Q 26.265625 6.109375 33.40625 6.109375 
Q 40.53125 6.109375 44.609375 11.75 
Q 48.6875 17.390625 48.6875 27.296875 
z
" id="DejaVuSans-112"/>
      <path d="M 45.40625 27.984375 
Q 45.40625 37.75 41.375 43.109375 
Q 37.359375 48.484375 30.078125 48.484375 
Q 22.859375 48.484375 18.828125 43.109375 
Q 14.796875 37.75 14.796875 27.984375 
Q 14.796875 18.265625 18.828125 12.890625 
Q 22.859375 7.515625 30.078125 7.515625 
Q 37.359375 7.515625 41.375 12.890625 
Q 45.40625 18.265625 45.40625 27.984375 
z
M 54.390625 6.78125 
Q 54.390625 -7.171875 48.1875 -13.984375 
Q 42 -20.796875 29.203125 -20.796875 
Q 24.46875 -20.796875 20.265625 -20.09375 
Q 16.0625 -19.390625 12.109375 -17.921875 
L 12.109375 -9.1875 
Q 16.0625 -11.328125 19.921875 -12.34375 
Q 23.78125 -13.375 27.78125 -13.375 
Q 36.625 -13.375 41.015625 -8.765625 
Q 45.40625 -4.15625 45.40625 5.171875 
L 45.40625 9.625 
Q 42.625 4.78125 38.28125 2.390625 
Q 33.9375 0 27.875 0 
Q 17.828125 0 11.671875 7.65625 
Q 5.515625 15.328125 5.515625 27.984375 
Q 5.515625 40.671875 11.671875 48.328125 
Q 17.828125 56 27.875 56 
Q 33.9375 56 38.28125 53.609375 
Q 42.625 51.21875 45.40625 46.390625 
L 45.40625 54.6875 
L 54.390625 54.6875 
z
" id="DejaVuSans-103"/>
      <path d="M 11.71875 12.40625 
L 22.015625 12.40625 
L 22.015625 0 
L 11.71875 0 
z
M 11.71875 51.703125 
L 22.015625 51.703125 
L 22.015625 39.3125 
L 11.71875 39.3125 
z
" id="DejaVuSans-58"/>
      <path d="M 9.8125 72.90625 
L 23.09375 72.90625 
L 55.421875 11.921875 
L 55.421875 72.90625 
L 64.984375 72.90625 
L 64.984375 0 
L 51.703125 0 
L 19.390625 60.984375 
L 19.390625 0 
L 9.8125 0 
z
" id="DejaVuSans-78"/>
     </defs>
     <g transform="translate(87.55 96.58125)scale(0.1 -0.1)">
      <use xlink:href="#DejaVuSans-68"/>
      <use x="77.001953" xlink:href="#DejaVuSans-97"/>
      <use x="138.28125" xlink:href="#DejaVuSans-109"/>
      <use x="235.693359" xlink:href="#DejaVuSans-112"/>
      <use x="299.169922" xlink:href="#DejaVuSans-105"/>
      <use x="326.953125" xlink:href="#DejaVuSans-110"/>
      <use x="390.332031" xlink:href="#DejaVuSans-103"/>
      <use x="453.808594" xlink:href="#DejaVuSans-58"/>
      <use x="487.5" xlink:href="#DejaVuSans-32"/>
      <use x="519.287109" xlink:href="#DejaVuSans-78"/>
      <use x="594.091797" xlink:href="#DejaVuSans-111"/>
      <use x="655.273438" xlink:href="#DejaVuSans-110"/>
      <use x="718.652344" xlink:href="#DejaVuSans-101"/>
     </g>
    </g>
    <g id="line2d_21">
     <path d="M 59.55 107.759375 
L 79.55 107.759375 
" style="fill:none;stroke:#2ca02c;stroke-linecap:square;stroke-width:1.5;"/>
    </g>
    <g id="line2d_22"/>
    <g id="text_16">
     <!-- Damping: Spalding -->
     <defs>
      <path d="M 53.515625 70.515625 
L 53.515625 60.890625 
Q 47.90625 63.578125 42.921875 64.890625 
Q 37.9375 66.21875 33.296875 66.21875 
Q 25.25 66.21875 20.875 63.09375 
Q 16.5 59.96875 16.5 54.203125 
Q 16.5 49.359375 19.40625 46.890625 
Q 22.3125 44.4375 30.421875 42.921875 
L 36.375 41.703125 
Q 47.40625 39.59375 52.65625 34.296875 
Q 57.90625 29 57.90625 20.125 
Q 57.90625 9.515625 50.796875 4.046875 
Q 43.703125 -1.421875 29.984375 -1.421875 
Q 24.8125 -1.421875 18.96875 -0.25 
Q 13.140625 0.921875 6.890625 3.21875 
L 6.890625 13.375 
Q 12.890625 10.015625 18.65625 8.296875 
Q 24.421875 6.59375 29.984375 6.59375 
Q 38.421875 6.59375 43.015625 9.90625 
Q 47.609375 13.234375 47.609375 19.390625 
Q 47.609375 24.75 44.3125 27.78125 
Q 41.015625 30.8125 33.5 32.328125 
L 27.484375 33.5 
Q 16.453125 35.6875 11.515625 40.375 
Q 6.59375 45.0625 6.59375 53.421875 
Q 6.59375 63.09375 13.40625 68.65625 
Q 20.21875 74.21875 32.171875 74.21875 
Q 37.3125 74.21875 42.625 73.28125 
Q 47.953125 72.359375 53.515625 70.515625 
z
" id="DejaVuSans-83"/>
      <path d="M 45.40625 46.390625 
L 45.40625 75.984375 
L 54.390625 75.984375 
L 54.390625 0 
L 45.40625 0 
L 45.40625 8.203125 
Q 42.578125 3.328125 38.25 0.953125 
Q 33.9375 -1.421875 27.875 -1.421875 
Q 17.96875 -1.421875 11.734375 6.484375 
Q 5.515625 14.40625 5.515625 27.296875 
Q 5.515625 40.1875 11.734375 48.09375 
Q 17.96875 56 27.875 56 
Q 33.9375 56 38.25 53.625 
Q 42.578125 51.265625 45.40625 46.390625 
z
M 14.796875 27.296875 
Q 14.796875 17.390625 18.875 11.75 
Q 22.953125 6.109375 30.078125 6.109375 
Q 37.203125 6.109375 41.296875 11.75 
Q 45.40625 17.390625 45.40625 27.296875 
Q 45.40625 37.203125 41.296875 42.84375 
Q 37.203125 48.484375 30.078125 48.484375 
Q 22.953125 48.484375 18.875 42.84375 
Q 14.796875 37.203125 14.796875 27.296875 
z
" id="DejaVuSans-100"/>
     </defs>
     <g transform="translate(87.55 111.259375)scale(0.1 -0.1)">
      <use xlink:href="#DejaVuSans-68"/>
      <use x="77.001953" xlink:href="#DejaVuSans-97"/>
      <use x="138.28125" xlink:href="#DejaVuSans-109"/>
      <use x="235.693359" xlink:href="#DejaVuSans-112"/>
      <use x="299.169922" xlink:href="#DejaVuSans-105"/>
      <use x="326.953125" xlink:href="#DejaVuSans-110"/>
      <use x="390.332031" xlink:href="#DejaVuSans-103"/>
      <use x="453.808594" xlink:href="#DejaVuSans-58"/>
      <use x="487.5" xlink:href="#DejaVuSans-32"/>
      <use x="519.287109" xlink:href="#DejaVuSans-83"/>
      <use x="582.763672" xlink:href="#DejaVuSans-112"/>
      <use x="646.240234" xlink:href="#DejaVuSans-97"/>
      <use x="707.519531" xlink:href="#DejaVuSans-108"/>
      <use x="735.302734" xlink:href="#DejaVuSans-100"/>
      <use x="798.779297" xlink:href="#DejaVuSans-105"/>
      <use x="826.5625" xlink:href="#DejaVuSans-110"/>
      <use x="889.941406" xlink:href="#DejaVuSans-103"/>
     </g>
    </g>
    <g id="line2d_23">
     <path d="M 59.55 122.4375 
L 79.55 122.4375 
" style="fill:none;stroke:#d62728;stroke-linecap:square;stroke-width:1.5;"/>
    </g>
    <g id="line2d_24"/>
    <g id="text_17">
     <!-- Damping: Driest -->
     <g transform="translate(87.55 125.9375)scale(0.1 -0.1)">
      <use xlink:href="#DejaVuSans-68"/>
      <use x="77.001953" xlink:href="#DejaVuSans-97"/>
      <use x="138.28125" xlink:href="#DejaVuSans-109"/>
      <use x="235.693359" xlink:href="#DejaVuSans-112"/>
      <use x="299.169922" xlink:href="#DejaVuSans-105"/>
      <use x="326.953125" xlink:href="#DejaVuSans-110"/>
      <use x="390.332031" xlink:href="#DejaVuSans-103"/>
      <use x="453.808594" xlink:href="#DejaVuSans-58"/>
      <use x="487.5" xlink:href="#DejaVuSans-32"/>
      <use x="519.287109" xlink:href="#DejaVuSans-68"/>
      <use x="596.289062" xlink:href="#DejaVuSans-114"/>
      <use x="637.402344" xlink:href="#DejaVuSans-105"/>
      <use x="665.185547" xlink:href="#DejaVuSans-101"/>
      <use x="726.708984" xlink:href="#DejaVuSans-115"/>
      <use x="778.808594" xlink:href="#DejaVuSans-116"/>
     </g>
    </g>
    <g id="line2d_25">
     <path d="M 59.55 137.115625 
L 79.55 137.115625 
" style="fill:none;stroke:#9467bd;stroke-linecap:square;stroke-width:1.5;"/>
    </g>
    <g id="line2d_26"/>
    <g id="text_18">
     <!-- Damping: Jones -->
     <defs>
      <path d="M 9.8125 72.90625 
L 19.671875 72.90625 
L 19.671875 5.078125 
Q 19.671875 -8.109375 14.671875 -14.0625 
Q 9.671875 -20.015625 -1.421875 -20.015625 
L -5.171875 -20.015625 
L -5.171875 -11.71875 
L -2.09375 -11.71875 
Q 4.4375 -11.71875 7.125 -8.046875 
Q 9.8125 -4.390625 9.8125 5.078125 
z
" id="DejaVuSans-74"/>
     </defs>
     <g transform="translate(87.55 140.615625)scale(0.1 -0.1)">
      <use xlink:href="#DejaVuSans-68"/>
      <use x="77.001953" xlink:href="#DejaVuSans-97"/>
      <use x="138.28125" xlink:href="#DejaVuSans-109"/>
      <use x="235.693359" xlink:href="#DejaVuSans-112"/>
      <use x="299.169922" xlink:href="#DejaVuSans-105"/>
      <use x="326.953125" xlink:href="#DejaVuSans-110"/>
      <use x="390.332031" xlink:href="#DejaVuSans-103"/>
      <use x="453.808594" xlink:href="#DejaVuSans-58"/>
      <use x="487.5" xlink:href="#DejaVuSans-32"/>
      <use x="519.287109" xlink:href="#DejaVuSans-74"/>
      <use x="548.779297" xlink:href="#DejaVuSans-111"/>
      <use x="609.960938" xlink:href="#DejaVuSans-110"/>
      <use x="673.339844" xlink:href="#DejaVuSans-101"/>
      <use x="734.863281" xlink:href="#DejaVuSans-115"/>
     </g>
    </g>
   </g>
  </g>
 </g>
 <defs>
  <clipPath id="pcd168b49ea">
   <rect height="195.4" width="226.65" x="50.55" y="10.8"/>
  </clipPath>
 </defs>
</svg>
