<?xml version="1.0" encoding="utf-8" standalone="no"?>
<!DOCTYPE svg PUBLIC "-//W3C//DTD SVG 1.1//EN"
  "http://www.w3.org/Graphics/SVG/1.1/DTD/svg11.dtd">
<!-- Created with matplotlib (https://matplotlib.org/) -->
<svg height="252pt" version="1.1" viewBox="0 0 432 252" width="432pt" xmlns="http://www.w3.org/2000/svg" xmlns:xlink="http://www.w3.org/1999/xlink">
 <metadata>
  <rdf:RDF xmlns:cc="http://creativecommons.org/ns#" xmlns:dc="http://purl.org/dc/elements/1.1/" xmlns:rdf="http://www.w3.org/1999/02/22-rdf-syntax-ns#">
   <cc:Work>
    <dc:type rdf:resource="http://purl.org/dc/dcmitype/StillImage"/>
    <dc:date>2022-06-08T12:16:37.144874</dc:date>
    <dc:format>image/svg+xml</dc:format>
    <dc:creator>
     <cc:Agent>
      <dc:title>Matplotlib v3.3.4, https://matplotlib.org/</dc:title>
     </cc:Agent>
    </dc:creator>
   </cc:Work>
  </rdf:RDF>
 </metadata>
 <defs>
  <style type="text/css">*{stroke-linecap:butt;stroke-linejoin:round;}</style>
 </defs>
 <g id="figure_1">
  <g id="patch_1">
   <path d="M 0 252 
L 432 252 
L 432 0 
L 0 0 
z
" style="fill:none;"/>
  </g>
  <g id="axes_1">
   <g id="patch_2">
    <path d="M 50.55 206.2 
L 418.693324 206.2 
L 418.693324 10.8 
L 50.55 10.8 
z
" style="fill:#ffffff;"/>
   </g>
   <g id="matplotlib.axis_1">
    <g id="xtick_1">
     <g id="line2d_1">
      <defs>
       <path d="M 0 0 
L 0 3.5 
" id="m00a49103fb" style="stroke:#000000;stroke-width:0.8;"/>
      </defs>
      <g>
       <use style="stroke:#000000;stroke-width:0.8;" x="67.283787" xlink:href="#m00a49103fb" y="206.2"/>
      </g>
     </g>
     <g id="text_1">
      <!-- 0.0 -->
      <g transform="translate(59.332225 220.798438)scale(0.1 -0.1)">
       <defs>
        <path d="M 31.78125 66.40625 
Q 24.171875 66.40625 20.328125 58.90625 
Q 16.5 51.421875 16.5 36.375 
Q 16.5 21.390625 20.328125 13.890625 
Q 24.171875 6.390625 31.78125 6.390625 
Q 39.453125 6.390625 43.28125 13.890625 
Q 47.125 21.390625 47.125 36.375 
Q 47.125 51.421875 43.28125 58.90625 
Q 39.453125 66.40625 31.78125 66.40625 
z
M 31.78125 74.21875 
Q 44.046875 74.21875 50.515625 64.515625 
Q 56.984375 54.828125 56.984375 36.375 
Q 56.984375 17.96875 50.515625 8.265625 
Q 44.046875 -1.421875 31.78125 -1.421875 
Q 19.53125 -1.421875 13.0625 8.265625 
Q 6.59375 17.96875 6.59375 36.375 
Q 6.59375 54.828125 13.0625 64.515625 
Q 19.53125 74.21875 31.78125 74.21875 
z
" id="DejaVuSans-48"/>
        <path d="M 10.6875 12.40625 
L 21 12.40625 
L 21 0 
L 10.6875 0 
z
" id="DejaVuSans-46"/>
       </defs>
       <use xlink:href="#DejaVuSans-48"/>
       <use x="63.623047" xlink:href="#DejaVuSans-46"/>
       <use x="95.410156" xlink:href="#DejaVuSans-48"/>
      </g>
     </g>
    </g>
    <g id="xtick_2">
     <g id="line2d_2">
      <g>
       <use style="stroke:#000000;stroke-width:0.8;" x="110.454928" xlink:href="#m00a49103fb" y="206.2"/>
      </g>
     </g>
     <g id="text_2">
      <!-- 0.5 -->
      <g transform="translate(102.503365 220.798438)scale(0.1 -0.1)">
       <defs>
        <path d="M 10.796875 72.90625 
L 49.515625 72.90625 
L 49.515625 64.59375 
L 19.828125 64.59375 
L 19.828125 46.734375 
Q 21.96875 47.46875 24.109375 47.828125 
Q 26.265625 48.1875 28.421875 48.1875 
Q 40.625 48.1875 47.75 41.5 
Q 54.890625 34.8125 54.890625 23.390625 
Q 54.890625 11.625 47.5625 5.09375 
Q 40.234375 -1.421875 26.90625 -1.421875 
Q 22.3125 -1.421875 17.546875 -0.640625 
Q 12.796875 0.140625 7.71875 1.703125 
L 7.71875 11.625 
Q 12.109375 9.234375 16.796875 8.0625 
Q 21.484375 6.890625 26.703125 6.890625 
Q 35.15625 6.890625 40.078125 11.328125 
Q 45.015625 15.765625 45.015625 23.390625 
Q 45.015625 31 40.078125 35.4375 
Q 35.15625 39.890625 26.703125 39.890625 
Q 22.75 39.890625 18.8125 39.015625 
Q 14.890625 38.140625 10.796875 36.28125 
z
" id="DejaVuSans-53"/>
       </defs>
       <use xlink:href="#DejaVuSans-48"/>
       <use x="63.623047" xlink:href="#DejaVuSans-46"/>
       <use x="95.410156" xlink:href="#DejaVuSans-53"/>
      </g>
     </g>
    </g>
    <g id="xtick_3">
     <g id="line2d_3">
      <g>
       <use style="stroke:#000000;stroke-width:0.8;" x="153.626068" xlink:href="#m00a49103fb" y="206.2"/>
      </g>
     </g>
     <g id="text_3">
      <!-- 1.0 -->
      <g transform="translate(145.674506 220.798438)scale(0.1 -0.1)">
       <defs>
        <path d="M 12.40625 8.296875 
L 28.515625 8.296875 
L 28.515625 63.921875 
L 10.984375 60.40625 
L 10.984375 69.390625 
L 28.421875 72.90625 
L 38.28125 72.90625 
L 38.28125 8.296875 
L 54.390625 8.296875 
L 54.390625 0 
L 12.40625 0 
z
" id="DejaVuSans-49"/>
       </defs>
       <use xlink:href="#DejaVuSans-49"/>
       <use x="63.623047" xlink:href="#DejaVuSans-46"/>
       <use x="95.410156" xlink:href="#DejaVuSans-48"/>
      </g>
     </g>
    </g>
    <g id="xtick_4">
     <g id="line2d_4">
      <g>
       <use style="stroke:#000000;stroke-width:0.8;" x="196.797208" xlink:href="#m00a49103fb" y="206.2"/>
      </g>
     </g>
     <g id="text_4">
      <!-- 1.5 -->
      <g transform="translate(188.845646 220.798438)scale(0.1 -0.1)">
       <use xlink:href="#DejaVuSans-49"/>
       <use x="63.623047" xlink:href="#DejaVuSans-46"/>
       <use x="95.410156" xlink:href="#DejaVuSans-53"/>
      </g>
     </g>
    </g>
    <g id="xtick_5">
     <g id="line2d_5">
      <g>
       <use style="stroke:#000000;stroke-width:0.8;" x="239.968349" xlink:href="#m00a49103fb" y="206.2"/>
      </g>
     </g>
     <g id="text_5">
      <!-- 2.0 -->
      <g transform="translate(232.016786 220.798438)scale(0.1 -0.1)">
       <defs>
        <path d="M 19.1875 8.296875 
L 53.609375 8.296875 
L 53.609375 0 
L 7.328125 0 
L 7.328125 8.296875 
Q 12.9375 14.109375 22.625 23.890625 
Q 32.328125 33.6875 34.8125 36.53125 
Q 39.546875 41.84375 41.421875 45.53125 
Q 43.3125 49.21875 43.3125 52.78125 
Q 43.3125 58.59375 39.234375 62.25 
Q 35.15625 65.921875 28.609375 65.921875 
Q 23.96875 65.921875 18.8125 64.3125 
Q 13.671875 62.703125 7.8125 59.421875 
L 7.8125 69.390625 
Q 13.765625 71.78125 18.9375 73 
Q 24.125 74.21875 28.421875 74.21875 
Q 39.75 74.21875 46.484375 68.546875 
Q 53.21875 62.890625 53.21875 53.421875 
Q 53.21875 48.921875 51.53125 44.890625 
Q 49.859375 40.875 45.40625 35.40625 
Q 44.1875 33.984375 37.640625 27.21875 
Q 31.109375 20.453125 19.1875 8.296875 
z
" id="DejaVuSans-50"/>
       </defs>
       <use xlink:href="#DejaVuSans-50"/>
       <use x="63.623047" xlink:href="#DejaVuSans-46"/>
       <use x="95.410156" xlink:href="#DejaVuSans-48"/>
      </g>
     </g>
    </g>
    <g id="xtick_6">
     <g id="line2d_6">
      <g>
       <use style="stroke:#000000;stroke-width:0.8;" x="283.139489" xlink:href="#m00a49103fb" y="206.2"/>
      </g>
     </g>
     <g id="text_6">
      <!-- 2.5 -->
      <g transform="translate(275.187927 220.798438)scale(0.1 -0.1)">
       <use xlink:href="#DejaVuSans-50"/>
       <use x="63.623047" xlink:href="#DejaVuSans-46"/>
       <use x="95.410156" xlink:href="#DejaVuSans-53"/>
      </g>
     </g>
    </g>
    <g id="xtick_7">
     <g id="line2d_7">
      <g>
       <use style="stroke:#000000;stroke-width:0.8;" x="326.31063" xlink:href="#m00a49103fb" y="206.2"/>
      </g>
     </g>
     <g id="text_7">
      <!-- 3.0 -->
      <g transform="translate(318.359067 220.798438)scale(0.1 -0.1)">
       <defs>
        <path d="M 40.578125 39.3125 
Q 47.65625 37.796875 51.625 33 
Q 55.609375 28.21875 55.609375 21.1875 
Q 55.609375 10.40625 48.1875 4.484375 
Q 40.765625 -1.421875 27.09375 -1.421875 
Q 22.515625 -1.421875 17.65625 -0.515625 
Q 12.796875 0.390625 7.625 2.203125 
L 7.625 11.71875 
Q 11.71875 9.328125 16.59375 8.109375 
Q 21.484375 6.890625 26.8125 6.890625 
Q 36.078125 6.890625 40.9375 10.546875 
Q 45.796875 14.203125 45.796875 21.1875 
Q 45.796875 27.640625 41.28125 31.265625 
Q 36.765625 34.90625 28.71875 34.90625 
L 20.21875 34.90625 
L 20.21875 43.015625 
L 29.109375 43.015625 
Q 36.375 43.015625 40.234375 45.921875 
Q 44.09375 48.828125 44.09375 54.296875 
Q 44.09375 59.90625 40.109375 62.90625 
Q 36.140625 65.921875 28.71875 65.921875 
Q 24.65625 65.921875 20.015625 65.03125 
Q 15.375 64.15625 9.8125 62.3125 
L 9.8125 71.09375 
Q 15.4375 72.65625 20.34375 73.4375 
Q 25.25 74.21875 29.59375 74.21875 
Q 40.828125 74.21875 47.359375 69.109375 
Q 53.90625 64.015625 53.90625 55.328125 
Q 53.90625 49.265625 50.4375 45.09375 
Q 46.96875 40.921875 40.578125 39.3125 
z
" id="DejaVuSans-51"/>
       </defs>
       <use xlink:href="#DejaVuSans-51"/>
       <use x="63.623047" xlink:href="#DejaVuSans-46"/>
       <use x="95.410156" xlink:href="#DejaVuSans-48"/>
      </g>
     </g>
    </g>
    <g id="xtick_8">
     <g id="line2d_8">
      <g>
       <use style="stroke:#000000;stroke-width:0.8;" x="369.48177" xlink:href="#m00a49103fb" y="206.2"/>
      </g>
     </g>
     <g id="text_8">
      <!-- 3.5 -->
      <g transform="translate(361.530207 220.798438)scale(0.1 -0.1)">
       <use xlink:href="#DejaVuSans-51"/>
       <use x="63.623047" xlink:href="#DejaVuSans-46"/>
       <use x="95.410156" xlink:href="#DejaVuSans-53"/>
      </g>
     </g>
    </g>
    <g id="xtick_9">
     <g id="line2d_9">
      <g>
       <use style="stroke:#000000;stroke-width:0.8;" x="412.65291" xlink:href="#m00a49103fb" y="206.2"/>
      </g>
     </g>
     <g id="text_9">
      <!-- 4.0 -->
      <g transform="translate(404.701348 220.798438)scale(0.1 -0.1)">
       <defs>
        <path d="M 37.796875 64.3125 
L 12.890625 25.390625 
L 37.796875 25.390625 
z
M 35.203125 72.90625 
L 47.609375 72.90625 
L 47.609375 25.390625 
L 58.015625 25.390625 
L 58.015625 17.1875 
L 47.609375 17.1875 
L 47.609375 0 
L 37.796875 0 
L 37.796875 17.1875 
L 4.890625 17.1875 
L 4.890625 26.703125 
z
" id="DejaVuSans-52"/>
       </defs>
       <use xlink:href="#DejaVuSans-52"/>
       <use x="63.623047" xlink:href="#DejaVuSans-46"/>
       <use x="95.410156" xlink:href="#DejaVuSans-48"/>
      </g>
     </g>
    </g>
    <g id="text_10">
     <!-- Particle Velocity [m/s] -->
     <g transform="translate(158.562287 237.515938)scale(0.14 -0.14)">
      <defs>
       <path d="M 19.671875 64.796875 
L 19.671875 37.40625 
L 32.078125 37.40625 
Q 38.96875 37.40625 42.71875 40.96875 
Q 46.484375 44.53125 46.484375 51.125 
Q 46.484375 57.671875 42.71875 61.234375 
Q 38.96875 64.796875 32.078125 64.796875 
z
M 9.8125 72.90625 
L 32.078125 72.90625 
Q 44.34375 72.90625 50.609375 67.359375 
Q 56.890625 61.8125 56.890625 51.125 
Q 56.890625 40.328125 50.609375 34.8125 
Q 44.34375 29.296875 32.078125 29.296875 
L 19.671875 29.296875 
L 19.671875 0 
L 9.8125 0 
z
" id="DejaVuSans-80"/>
       <path d="M 34.28125 27.484375 
Q 23.390625 27.484375 19.1875 25 
Q 14.984375 22.515625 14.984375 16.5 
Q 14.984375 11.71875 18.140625 8.90625 
Q 21.296875 6.109375 26.703125 6.109375 
Q 34.1875 6.109375 38.703125 11.40625 
Q 43.21875 16.703125 43.21875 25.484375 
L 43.21875 27.484375 
z
M 52.203125 31.203125 
L 52.203125 0 
L 43.21875 0 
L 43.21875 8.296875 
Q 40.140625 3.328125 35.546875 0.953125 
Q 30.953125 -1.421875 24.3125 -1.421875 
Q 15.921875 -1.421875 10.953125 3.296875 
Q 6 8.015625 6 15.921875 
Q 6 25.140625 12.171875 29.828125 
Q 18.359375 34.515625 30.609375 34.515625 
L 43.21875 34.515625 
L 43.21875 35.40625 
Q 43.21875 41.609375 39.140625 45 
Q 35.0625 48.390625 27.6875 48.390625 
Q 23 48.390625 18.546875 47.265625 
Q 14.109375 46.140625 10.015625 43.890625 
L 10.015625 52.203125 
Q 14.9375 54.109375 19.578125 55.046875 
Q 24.21875 56 28.609375 56 
Q 40.484375 56 46.34375 49.84375 
Q 52.203125 43.703125 52.203125 31.203125 
z
" id="DejaVuSans-97"/>
       <path d="M 41.109375 46.296875 
Q 39.59375 47.171875 37.8125 47.578125 
Q 36.03125 48 33.890625 48 
Q 26.265625 48 22.1875 43.046875 
Q 18.109375 38.09375 18.109375 28.8125 
L 18.109375 0 
L 9.078125 0 
L 9.078125 54.6875 
L 18.109375 54.6875 
L 18.109375 46.1875 
Q 20.953125 51.171875 25.484375 53.578125 
Q 30.03125 56 36.53125 56 
Q 37.453125 56 38.578125 55.875 
Q 39.703125 55.765625 41.0625 55.515625 
z
" id="DejaVuSans-114"/>
       <path d="M 18.3125 70.21875 
L 18.3125 54.6875 
L 36.8125 54.6875 
L 36.8125 47.703125 
L 18.3125 47.703125 
L 18.3125 18.015625 
Q 18.3125 11.328125 20.140625 9.421875 
Q 21.96875 7.515625 27.59375 7.515625 
L 36.8125 7.515625 
L 36.8125 0 
L 27.59375 0 
Q 17.1875 0 13.234375 3.875 
Q 9.28125 7.765625 9.28125 18.015625 
L 9.28125 47.703125 
L 2.6875 47.703125 
L 2.6875 54.6875 
L 9.28125 54.6875 
L 9.28125 70.21875 
z
" id="DejaVuSans-116"/>
       <path d="M 9.421875 54.6875 
L 18.40625 54.6875 
L 18.40625 0 
L 9.421875 0 
z
M 9.421875 75.984375 
L 18.40625 75.984375 
L 18.40625 64.59375 
L 9.421875 64.59375 
z
" id="DejaVuSans-105"/>
       <path d="M 48.78125 52.59375 
L 48.78125 44.1875 
Q 44.96875 46.296875 41.140625 47.34375 
Q 37.3125 48.390625 33.40625 48.390625 
Q 24.65625 48.390625 19.8125 42.84375 
Q 14.984375 37.3125 14.984375 27.296875 
Q 14.984375 17.28125 19.8125 11.734375 
Q 24.65625 6.203125 33.40625 6.203125 
Q 37.3125 6.203125 41.140625 7.25 
Q 44.96875 8.296875 48.78125 10.40625 
L 48.78125 2.09375 
Q 45.015625 0.34375 40.984375 -0.53125 
Q 36.96875 -1.421875 32.421875 -1.421875 
Q 20.0625 -1.421875 12.78125 6.34375 
Q 5.515625 14.109375 5.515625 27.296875 
Q 5.515625 40.671875 12.859375 48.328125 
Q 20.21875 56 33.015625 56 
Q 37.15625 56 41.109375 55.140625 
Q 45.0625 54.296875 48.78125 52.59375 
z
" id="DejaVuSans-99"/>
       <path d="M 9.421875 75.984375 
L 18.40625 75.984375 
L 18.40625 0 
L 9.421875 0 
z
" id="DejaVuSans-108"/>
       <path d="M 56.203125 29.59375 
L 56.203125 25.203125 
L 14.890625 25.203125 
Q 15.484375 15.921875 20.484375 11.0625 
Q 25.484375 6.203125 34.421875 6.203125 
Q 39.59375 6.203125 44.453125 7.46875 
Q 49.3125 8.734375 54.109375 11.28125 
L 54.109375 2.78125 
Q 49.265625 0.734375 44.1875 -0.34375 
Q 39.109375 -1.421875 33.890625 -1.421875 
Q 20.796875 -1.421875 13.15625 6.1875 
Q 5.515625 13.8125 5.515625 26.8125 
Q 5.515625 40.234375 12.765625 48.109375 
Q 20.015625 56 32.328125 56 
Q 43.359375 56 49.78125 48.890625 
Q 56.203125 41.796875 56.203125 29.59375 
z
M 47.21875 32.234375 
Q 47.125 39.59375 43.09375 43.984375 
Q 39.0625 48.390625 32.421875 48.390625 
Q 24.90625 48.390625 20.390625 44.140625 
Q 15.875 39.890625 15.1875 32.171875 
z
" id="DejaVuSans-101"/>
       <path id="DejaVuSans-32"/>
       <path d="M 28.609375 0 
L 0.78125 72.90625 
L 11.078125 72.90625 
L 34.1875 11.53125 
L 57.328125 72.90625 
L 67.578125 72.90625 
L 39.796875 0 
z
" id="DejaVuSans-86"/>
       <path d="M 30.609375 48.390625 
Q 23.390625 48.390625 19.1875 42.75 
Q 14.984375 37.109375 14.984375 27.296875 
Q 14.984375 17.484375 19.15625 11.84375 
Q 23.34375 6.203125 30.609375 6.203125 
Q 37.796875 6.203125 41.984375 11.859375 
Q 46.1875 17.53125 46.1875 27.296875 
Q 46.1875 37.015625 41.984375 42.703125 
Q 37.796875 48.390625 30.609375 48.390625 
z
M 30.609375 56 
Q 42.328125 56 49.015625 48.375 
Q 55.71875 40.765625 55.71875 27.296875 
Q 55.71875 13.875 49.015625 6.21875 
Q 42.328125 -1.421875 30.609375 -1.421875 
Q 18.84375 -1.421875 12.171875 6.21875 
Q 5.515625 13.875 5.515625 27.296875 
Q 5.515625 40.765625 12.171875 48.375 
Q 18.84375 56 30.609375 56 
z
" id="DejaVuSans-111"/>
       <path d="M 32.171875 -5.078125 
Q 28.375 -14.84375 24.75 -17.8125 
Q 21.140625 -20.796875 15.09375 -20.796875 
L 7.90625 -20.796875 
L 7.90625 -13.28125 
L 13.1875 -13.28125 
Q 16.890625 -13.28125 18.9375 -11.515625 
Q 21 -9.765625 23.484375 -3.21875 
L 25.09375 0.875 
L 2.984375 54.6875 
L 12.5 54.6875 
L 29.59375 11.921875 
L 46.6875 54.6875 
L 56.203125 54.6875 
z
" id="DejaVuSans-121"/>
       <path d="M 8.59375 75.984375 
L 29.296875 75.984375 
L 29.296875 69 
L 17.578125 69 
L 17.578125 -6.203125 
L 29.296875 -6.203125 
L 29.296875 -13.1875 
L 8.59375 -13.1875 
z
" id="DejaVuSans-91"/>
       <path d="M 52 44.1875 
Q 55.375 50.25 60.0625 53.125 
Q 64.75 56 71.09375 56 
Q 79.640625 56 84.28125 50.015625 
Q 88.921875 44.046875 88.921875 33.015625 
L 88.921875 0 
L 79.890625 0 
L 79.890625 32.71875 
Q 79.890625 40.578125 77.09375 44.375 
Q 74.3125 48.1875 68.609375 48.1875 
Q 61.625 48.1875 57.5625 43.546875 
Q 53.515625 38.921875 53.515625 30.90625 
L 53.515625 0 
L 44.484375 0 
L 44.484375 32.71875 
Q 44.484375 40.625 41.703125 44.40625 
Q 38.921875 48.1875 33.109375 48.1875 
Q 26.21875 48.1875 22.15625 43.53125 
Q 18.109375 38.875 18.109375 30.90625 
L 18.109375 0 
L 9.078125 0 
L 9.078125 54.6875 
L 18.109375 54.6875 
L 18.109375 46.1875 
Q 21.1875 51.21875 25.484375 53.609375 
Q 29.78125 56 35.6875 56 
Q 41.65625 56 45.828125 52.96875 
Q 50 49.953125 52 44.1875 
z
" id="DejaVuSans-109"/>
       <path d="M 25.390625 72.90625 
L 33.6875 72.90625 
L 8.296875 -9.28125 
L 0 -9.28125 
z
" id="DejaVuSans-47"/>
       <path d="M 44.28125 53.078125 
L 44.28125 44.578125 
Q 40.484375 46.53125 36.375 47.5 
Q 32.28125 48.484375 27.875 48.484375 
Q 21.1875 48.484375 17.84375 46.4375 
Q 14.5 44.390625 14.5 40.28125 
Q 14.5 37.15625 16.890625 35.375 
Q 19.28125 33.59375 26.515625 31.984375 
L 29.59375 31.296875 
Q 39.15625 29.25 43.1875 25.515625 
Q 47.21875 21.78125 47.21875 15.09375 
Q 47.21875 7.46875 41.1875 3.015625 
Q 35.15625 -1.421875 24.609375 -1.421875 
Q 20.21875 -1.421875 15.453125 -0.5625 
Q 10.6875 0.296875 5.421875 2 
L 5.421875 11.28125 
Q 10.40625 8.6875 15.234375 7.390625 
Q 20.0625 6.109375 24.8125 6.109375 
Q 31.15625 6.109375 34.5625 8.28125 
Q 37.984375 10.453125 37.984375 14.40625 
Q 37.984375 18.0625 35.515625 20.015625 
Q 33.0625 21.96875 24.703125 23.78125 
L 21.578125 24.515625 
Q 13.234375 26.265625 9.515625 29.90625 
Q 5.8125 33.546875 5.8125 39.890625 
Q 5.8125 47.609375 11.28125 51.796875 
Q 16.75 56 26.8125 56 
Q 31.78125 56 36.171875 55.265625 
Q 40.578125 54.546875 44.28125 53.078125 
z
" id="DejaVuSans-115"/>
       <path d="M 30.421875 75.984375 
L 30.421875 -13.1875 
L 9.71875 -13.1875 
L 9.71875 -6.203125 
L 21.390625 -6.203125 
L 21.390625 69 
L 9.71875 69 
L 9.71875 75.984375 
z
" id="DejaVuSans-93"/>
      </defs>
      <use xlink:href="#DejaVuSans-80"/>
      <use x="55.802734" xlink:href="#DejaVuSans-97"/>
      <use x="117.082031" xlink:href="#DejaVuSans-114"/>
      <use x="158.195312" xlink:href="#DejaVuSans-116"/>
      <use x="197.404297" xlink:href="#DejaVuSans-105"/>
      <use x="225.1875" xlink:href="#DejaVuSans-99"/>
      <use x="280.167969" xlink:href="#DejaVuSans-108"/>
      <use x="307.951172" xlink:href="#DejaVuSans-101"/>
      <use x="369.474609" xlink:href="#DejaVuSans-32"/>
      <use x="401.261719" xlink:href="#DejaVuSans-86"/>
      <use x="461.919922" xlink:href="#DejaVuSans-101"/>
      <use x="523.443359" xlink:href="#DejaVuSans-108"/>
      <use x="551.226562" xlink:href="#DejaVuSans-111"/>
      <use x="612.408203" xlink:href="#DejaVuSans-99"/>
      <use x="667.388672" xlink:href="#DejaVuSans-105"/>
      <use x="695.171875" xlink:href="#DejaVuSans-116"/>
      <use x="734.380859" xlink:href="#DejaVuSans-121"/>
      <use x="793.560547" xlink:href="#DejaVuSans-32"/>
      <use x="825.347656" xlink:href="#DejaVuSans-91"/>
      <use x="864.361328" xlink:href="#DejaVuSans-109"/>
      <use x="961.773438" xlink:href="#DejaVuSans-47"/>
      <use x="995.464844" xlink:href="#DejaVuSans-115"/>
      <use x="1047.564453" xlink:href="#DejaVuSans-93"/>
     </g>
    </g>
   </g>
   <g id="matplotlib.axis_2">
    <g id="ytick_1">
     <g id="line2d_10">
      <defs>
       <path d="M 0 0 
L -3.5 0 
" id="ma1af07d36a" style="stroke:#000000;stroke-width:0.8;"/>
      </defs>
      <g>
       <use style="stroke:#000000;stroke-width:0.8;" x="50.55" xlink:href="#ma1af07d36a" y="179.625671"/>
      </g>
     </g>
     <g id="text_11">
      <!-- −2 -->
      <g transform="translate(28.807813 183.42489)scale(0.1 -0.1)">
       <defs>
        <path d="M 10.59375 35.5 
L 73.1875 35.5 
L 73.1875 27.203125 
L 10.59375 27.203125 
z
" id="DejaVuSans-8722"/>
       </defs>
       <use xlink:href="#DejaVuSans-8722"/>
       <use x="83.789062" xlink:href="#DejaVuSans-50"/>
      </g>
     </g>
    </g>
    <g id="ytick_2">
     <g id="line2d_11">
      <g>
       <use style="stroke:#000000;stroke-width:0.8;" x="50.55" xlink:href="#ma1af07d36a" y="144.062836"/>
      </g>
     </g>
     <g id="text_12">
      <!-- −1 -->
      <g transform="translate(28.807813 147.862054)scale(0.1 -0.1)">
       <use xlink:href="#DejaVuSans-8722"/>
       <use x="83.789062" xlink:href="#DejaVuSans-49"/>
      </g>
     </g>
    </g>
    <g id="ytick_3">
     <g id="line2d_12">
      <g>
       <use style="stroke:#000000;stroke-width:0.8;" x="50.55" xlink:href="#ma1af07d36a" y="108.5"/>
      </g>
     </g>
     <g id="text_13">
      <!-- 0 -->
      <g transform="translate(37.1875 112.299219)scale(0.1 -0.1)">
       <use xlink:href="#DejaVuSans-48"/>
      </g>
     </g>
    </g>
    <g id="ytick_4">
     <g id="line2d_13">
      <g>
       <use style="stroke:#000000;stroke-width:0.8;" x="50.55" xlink:href="#ma1af07d36a" y="72.937164"/>
      </g>
     </g>
     <g id="text_14">
      <!-- 1 -->
      <g transform="translate(37.1875 76.736383)scale(0.1 -0.1)">
       <use xlink:href="#DejaVuSans-49"/>
      </g>
     </g>
    </g>
    <g id="ytick_5">
     <g id="line2d_14">
      <g>
       <use style="stroke:#000000;stroke-width:0.8;" x="50.55" xlink:href="#ma1af07d36a" y="37.374329"/>
      </g>
     </g>
     <g id="text_15">
      <!-- 2 -->
      <g transform="translate(37.1875 41.173548)scale(0.1 -0.1)">
       <use xlink:href="#DejaVuSans-50"/>
      </g>
     </g>
    </g>
    <g id="text_16">
     <!-- Position [mm] -->
     <g transform="translate(21.89625 157.073438)rotate(-90)scale(0.14 -0.14)">
      <defs>
       <path d="M 54.890625 33.015625 
L 54.890625 0 
L 45.90625 0 
L 45.90625 32.71875 
Q 45.90625 40.484375 42.875 44.328125 
Q 39.84375 48.1875 33.796875 48.1875 
Q 26.515625 48.1875 22.3125 43.546875 
Q 18.109375 38.921875 18.109375 30.90625 
L 18.109375 0 
L 9.078125 0 
L 9.078125 54.6875 
L 18.109375 54.6875 
L 18.109375 46.1875 
Q 21.34375 51.125 25.703125 53.5625 
Q 30.078125 56 35.796875 56 
Q 45.21875 56 50.046875 50.171875 
Q 54.890625 44.34375 54.890625 33.015625 
z
" id="DejaVuSans-110"/>
      </defs>
      <use xlink:href="#DejaVuSans-80"/>
      <use x="56.677734" xlink:href="#DejaVuSans-111"/>
      <use x="117.859375" xlink:href="#DejaVuSans-115"/>
      <use x="169.958984" xlink:href="#DejaVuSans-105"/>
      <use x="197.742188" xlink:href="#DejaVuSans-116"/>
      <use x="236.951172" xlink:href="#DejaVuSans-105"/>
      <use x="264.734375" xlink:href="#DejaVuSans-111"/>
      <use x="325.916016" xlink:href="#DejaVuSans-110"/>
      <use x="389.294922" xlink:href="#DejaVuSans-32"/>
      <use x="421.082031" xlink:href="#DejaVuSans-91"/>
      <use x="460.095703" xlink:href="#DejaVuSans-109"/>
      <use x="557.507812" xlink:href="#DejaVuSans-109"/>
      <use x="654.919922" xlink:href="#DejaVuSans-93"/>
     </g>
    </g>
   </g>
   <g id="line2d_15">
    <path clip-path="url(#pc0d95a6153)" d="M 67.283787 197.318182 
L 67.283787 197.140368 
L 69.91467 196.962553 
L 111.063362 195.895668 
L 143.689014 194.828783 
L 170.27607 193.761898 
L 195.653098 192.517199 
L 216.444836 191.2725 
L 233.737457 190.027801 
L 248.305797 188.783101 
L 262.341417 187.360588 
L 274.180235 185.938074 
L 284.27937 184.515561 
L 293.982734 182.915233 
L 302.277062 181.314906 
L 309.433722 179.714578 
L 317.804179 177.580808 
L 325.939944 175.269224 
L 333.251015 172.957639 
L 339.84888 170.646055 
L 345.819482 168.334471 
L 351.624752 165.845072 
L 356.846574 163.355674 
L 361.537052 160.866275 
L 365.737503 158.376877 
L 369.480796 155.887478 
L 372.57029 153.575894 
L 375.304824 151.26431 
L 377.697604 148.952725 
L 379.758895 146.641141 
L 381.374095 144.507371 
L 382.717736 142.373601 
L 383.792604 140.239831 
L 384.542981 138.283875 
L 385.068718 136.327919 
L 385.368913 134.371963 
L 385.44172 132.416007 
L 385.284324 130.460051 
L 384.892902 128.504095 
L 384.262546 126.548139 
L 383.387167 124.592183 
L 382.259349 122.636227 
L 380.87016 120.680271 
L 379.208888 118.724315 
L 377.262686 116.768359 
L 375.016078 114.812403 
L 372.450264 112.856447 
L 369.542095 110.900491 
L 366.262545 108.944535 
L 360.649871 105.921694 
L 352.949156 102.009783 
L 344.395517 97.920056 
L 334.940479 93.652516 
L 324.537608 89.207162 
L 313.141261 84.583993 
L 300.705927 79.78301 
L 287.185864 74.804213 
L 272.534897 69.647602 
L 256.706307 64.313177 
L 239.652791 58.800937 
L 221.326458 53.110884 
L 201.678853 47.243016 
L 180.661002 41.197334 
L 161.996781 36.040723 
L 152.671621 33.729138 
L 143.158259 31.595368 
L 132.625771 29.461598 
L 120.91078 27.327828 
L 107.856323 25.194058 
L 93.37883 23.060288 
L 74.882809 20.570889 
L 70.759815 20.037447 
L 67.283787 19.859632 
L 67.283787 19.681818 
L 67.283787 19.681818 
" style="fill:none;stroke:#1f77b4;stroke-linecap:square;stroke-width:1.5;"/>
   </g>
   <g id="line2d_16">
    <path clip-path="url(#pc0d95a6153)" d="M 67.283787 197.318182 
L 67.283787 197.140368 
L 74.051184 196.784739 
L 103.524023 195.362226 
L 128.832725 193.939712 
L 150.506006 192.517199 
L 169.076703 191.094686 
L 185.043636 189.672172 
L 200.435013 188.071845 
L 213.59738 186.471517 
L 224.943016 184.871189 
L 234.797836 183.270862 
L 244.310198 181.49272 
L 252.57501 179.714578 
L 262.113059 177.402994 
L 271.488419 174.913595 
L 280.049718 172.424197 
L 288.423141 169.756984 
L 296.056652 167.089772 
L 303.021192 164.422559 
L 309.373544 161.755346 
L 315.159424 159.088134 
L 320.41573 156.420921 
L 325.172198 153.753708 
L 329.181691 151.26431 
L 332.791995 148.774911 
L 336.015256 146.285513 
L 338.860726 143.796114 
L 341.170507 141.48453 
L 343.163724 139.172946 
L 344.724171 137.039176 
L 346.01649 134.905405 
L 347.039593 132.771635 
L 347.738985 130.815679 
L 348.207508 128.859723 
L 348.441479 126.903767 
L 348.436169 124.947811 
L 348.218773 123.16967 
L 347.793415 121.391528 
L 347.153704 119.613386 
L 346.29205 117.835244 
L 345.199435 116.057103 
L 343.865101 114.278961 
L 342.102639 112.323005 
L 340.010851 110.367049 
L 337.563479 108.411093 
L 333.566466 105.566066 
L 328.948639 102.543225 
L 323.362002 99.164756 
L 317.024145 95.608472 
L 309.892941 91.874374 
L 301.926283 87.962462 
L 293.081932 83.872736 
L 283.317386 79.605196 
L 272.589778 75.159842 
L 260.855794 70.536673 
L 248.07161 65.73569 
L 234.192846 60.756893 
L 218.645239 55.422468 
L 201.867291 49.910228 
L 183.812731 44.220175 
L 164.434657 38.352307 
L 153.876675 35.329466 
L 144.85208 33.017882 
L 135.614735 30.884111 
L 125.357481 28.750341 
L 113.922755 26.616571 
L 101.173552 24.482801 
L 87.07754 22.349031 
L 70.556772 20.037447 
L 67.283787 19.859632 
L 67.283787 19.681818 
L 67.283787 19.681818 
" style="fill:none;stroke:#ff7f0e;stroke-linecap:square;stroke-width:1.5;"/>
   </g>
   <g id="line2d_17">
    <path clip-path="url(#pc0d95a6153)" d="M 67.283787 197.318182 
L 67.283787 197.140368 
L 69.967198 196.962553 
L 103.95795 195.895668 
L 136.456175 194.650969 
L 163.112599 193.40627 
L 185.255956 192.161571 
L 203.850527 190.916871 
L 221.678112 189.494358 
L 236.626225 188.071845 
L 249.300408 186.649331 
L 260.155882 185.226818 
L 270.621938 183.62649 
L 279.59571 182.026163 
L 287.359457 180.425835 
L 294.884617 178.647693 
L 303.70734 176.336109 
L 311.66981 174.024525 
L 318.88818 171.71294 
L 325.93239 169.223542 
L 332.305394 166.734143 
L 338.075932 164.244745 
L 343.298457 161.755346 
L 348.016431 159.265948 
L 352.264687 156.776549 
L 356.071156 154.287151 
L 359.45814 151.797752 
L 362.243059 149.486168 
L 364.692561 147.174584 
L 366.815121 144.862999 
L 368.489611 142.729229 
L 369.894119 140.595459 
L 371.030532 138.461689 
L 371.837223 136.505733 
L 372.418573 134.549777 
L 372.773114 132.593821 
L 372.89844 130.637865 
L 372.791164 128.681909 
L 372.446854 126.725953 
L 371.859939 124.769997 
L 371.023579 122.814041 
L 369.929487 120.858085 
L 368.567689 118.902129 
L 366.926188 116.946173 
L 364.990516 114.990217 
L 362.743083 113.034262 
L 360.162249 111.078306 
L 357.220914 109.12235 
L 352.721829 106.455137 
L 346.317539 102.898853 
L 339.134383 99.164756 
L 331.127021 95.252844 
L 322.251219 91.163118 
L 312.463124 86.895577 
L 301.718849 82.450223 
L 289.974224 77.827054 
L 276.699609 72.848257 
L 262.290027 67.691646 
L 246.699591 62.357221 
L 229.881731 56.844981 
L 211.789212 51.154928 
L 192.374173 45.28706 
L 171.588177 39.241378 
L 158.11614 35.50728 
L 148.769265 33.195696 
L 139.215524 31.061926 
L 128.620311 28.928155 
L 116.821105 26.794385 
L 103.672677 24.660615 
L 89.128708 22.526845 
L 70.693344 20.037447 
L 67.283787 19.859632 
L 67.283787 19.681818 
L 67.283787 19.681818 
" style="fill:none;stroke:#2ca02c;stroke-linecap:square;stroke-width:1.5;"/>
   </g>
   <g id="line2d_18">
    <path clip-path="url(#pc0d95a6153)" d="M 67.283787 197.318182 
L 67.283787 197.140368 
L 88.154913 195.717854 
L 111.526901 193.939712 
L 131.963121 192.161571 
L 149.669711 190.383429 
L 164.988875 188.605287 
L 178.281029 186.827145 
L 189.871709 185.049004 
L 200.036528 183.270862 
L 209.002491 181.49272 
L 217.700193 179.536764 
L 229.087544 176.691737 
L 239.583759 173.84671 
L 249.272599 171.001684 
L 258.222458 168.156657 
L 266.984534 165.133816 
L 274.576314 162.288789 
L 281.571555 159.443762 
L 288.001171 156.598735 
L 293.890433 153.753708 
L 299.259761 150.908681 
L 303.835735 148.241469 
L 307.979271 145.574256 
L 311.697971 142.907043 
L 314.789982 140.417645 
L 317.518596 137.928246 
L 319.727317 135.616662 
L 321.622008 133.305078 
L 323.090104 131.171308 
L 324.285444 129.037538 
L 325.137957 127.081582 
L 325.7535 125.125626 
L 326.126831 123.16967 
L 326.250677 121.391528 
L 326.163302 119.613386 
L 325.857856 117.835244 
L 325.326205 116.057103 
L 324.558654 114.278961 
L 323.543559 112.500819 
L 322.266788 110.722677 
L 320.710926 108.944535 
L 318.510271 106.810765 
L 315.640431 104.321367 
L 312.233479 101.654154 
L 308.245064 98.809127 
L 303.631259 95.786286 
L 298.348514 92.585631 
L 292.353608 89.207162 
L 285.254649 85.473064 
L 277.31299 81.561152 
L 268.486202 77.471426 
L 258.731797 73.203886 
L 248.007139 68.758531 
L 236.269363 64.135363 
L 223.4753 59.33438 
L 209.581414 54.355583 
L 194.543756 49.198972 
L 177.765592 43.686732 
L 159.708997 37.996678 
L 150.72354 35.329466 
L 142.04978 33.017882 
L 133.163326 30.884111 
L 123.287447 28.750341 
L 112.26918 26.616571 
L 99.975141 24.482801 
L 86.372783 22.349031 
L 70.419484 20.037447 
L 67.283787 19.859632 
L 67.283787 19.681818 
L 67.283787 19.681818 
" style="fill:none;stroke:#d62728;stroke-linecap:square;stroke-width:1.5;"/>
   </g>
   <g id="line2d_19">
    <path clip-path="url(#pc0d95a6153)" d="M 67.283787 197.318182 
L 67.283787 197.140368 
L 73.980817 196.606925 
L 102.145027 193.939712 
L 122.517166 191.805942 
L 140.762045 189.672172 
L 157.01956 187.538402 
L 171.528932 185.404632 
L 184.534171 183.270862 
L 196.251693 181.137092 
L 207.746574 178.825507 
L 230.33628 174.024525 
L 251.017798 169.401356 
L 269.882704 164.956001 
L 287.022085 160.688461 
L 302.52652 156.598735 
L 316.486076 152.686823 
L 328.990275 148.952725 
L 340.128061 145.396442 
L 349.98775 142.017973 
L 358.65696 138.817317 
L 366.222527 135.794476 
L 372.770391 132.949449 
L 378.385451 130.282237 
L 383.151386 127.792838 
L 387.440567 125.30344 
L 390.978812 122.991855 
L 393.848635 120.858085 
L 396.130747 118.902129 
L 398.064642 116.946173 
L 399.506739 115.168032 
L 400.535244 113.567704 
L 401.296248 111.967376 
L 401.73707 110.544863 
L 401.944513 109.12235 
L 401.906599 107.699836 
L 401.625538 106.277323 
L 401.113745 104.854809 
L 400.275689 103.254482 
L 399.172772 101.654154 
L 397.650778 99.876012 
L 395.830086 98.097871 
L 393.496899 96.141915 
L 390.573114 94.008145 
L 387.270338 91.874374 
L 383.281516 89.56279 
L 378.526422 87.073392 
L 372.923238 84.406179 
L 366.388854 81.561152 
L 359.300123 78.716125 
L 351.182763 75.693284 
L 341.953249 72.492629 
L 331.527247 69.11416 
L 319.819778 65.557876 
L 306.745364 61.823778 
L 292.21815 57.911866 
L 276.152012 53.82214 
L 258.460653 49.5546 
L 239.057688 45.109246 
L 217.856726 40.486077 
L 198.162516 36.396351 
L 186.78369 34.262581 
L 174.177692 32.128811 
L 160.139527 29.99504 
L 145.812806 28.039085 
L 129.898069 26.083129 
L 112.247367 24.127173 
L 91.010414 21.993402 
L 70.061995 20.037447 
L 67.283787 19.859632 
L 67.283787 19.681818 
L 67.283787 19.681818 
" style="fill:none;stroke:#9467bd;stroke-linecap:square;stroke-width:1.5;"/>
   </g>
   <g id="patch_3">
    <path d="M 50.55 206.2 
L 50.55 10.8 
" style="fill:none;stroke:#000000;stroke-linecap:square;stroke-linejoin:miter;stroke-width:0.8;"/>
   </g>
   <g id="patch_4">
    <path d="M 418.693324 206.2 
L 418.693324 10.8 
" style="fill:none;stroke:#000000;stroke-linecap:square;stroke-linejoin:miter;stroke-width:0.8;"/>
   </g>
   <g id="patch_5">
    <path d="M 50.55 206.2 
L 418.693324 206.2 
" style="fill:none;stroke:#000000;stroke-linecap:square;stroke-linejoin:miter;stroke-width:0.8;"/>
   </g>
   <g id="patch_6">
    <path d="M 50.55 10.8 
L 418.693324 10.8 
" style="fill:none;stroke:#000000;stroke-linecap:square;stroke-linejoin:miter;stroke-width:0.8;"/>
   </g>
   <g id="legend_1">
    <g id="patch_7">
     <path d="M 57.55 146.695312 
L 106.95 146.695312 
Q 108.95 146.695312 108.95 144.695312 
L 108.95 72.304688 
Q 108.95 70.304688 106.95 70.304688 
L 57.55 70.304688 
Q 55.55 70.304688 55.55 72.304688 
L 55.55 144.695312 
Q 55.55 146.695312 57.55 146.695312 
z
" style="fill:#ffffff;opacity:0.8;stroke:#cccccc;stroke-linejoin:miter;"/>
    </g>
    <g id="line2d_20">
     <path d="M 59.55 78.403125 
L 79.55 78.403125 
" style="fill:none;stroke:#1f77b4;stroke-linecap:square;stroke-width:1.5;"/>
    </g>
    <g id="line2d_21"/>
    <g id="text_17">
     <!-- $90^o$ -->
     <g transform="translate(87.55 81.903125)scale(0.1 -0.1)">
      <defs>
       <path d="M 10.984375 1.515625 
L 10.984375 10.5 
Q 14.703125 8.734375 18.5 7.8125 
Q 22.3125 6.890625 25.984375 6.890625 
Q 35.75 6.890625 40.890625 13.453125 
Q 46.046875 20.015625 46.78125 33.40625 
Q 43.953125 29.203125 39.59375 26.953125 
Q 35.25 24.703125 29.984375 24.703125 
Q 19.046875 24.703125 12.671875 31.3125 
Q 6.296875 37.9375 6.296875 49.421875 
Q 6.296875 60.640625 12.9375 67.421875 
Q 19.578125 74.21875 30.609375 74.21875 
Q 43.265625 74.21875 49.921875 64.515625 
Q 56.59375 54.828125 56.59375 36.375 
Q 56.59375 19.140625 48.40625 8.859375 
Q 40.234375 -1.421875 26.421875 -1.421875 
Q 22.703125 -1.421875 18.890625 -0.6875 
Q 15.09375 0.046875 10.984375 1.515625 
z
M 30.609375 32.421875 
Q 37.25 32.421875 41.125 36.953125 
Q 45.015625 41.5 45.015625 49.421875 
Q 45.015625 57.28125 41.125 61.84375 
Q 37.25 66.40625 30.609375 66.40625 
Q 23.96875 66.40625 20.09375 61.84375 
Q 16.21875 57.28125 16.21875 49.421875 
Q 16.21875 41.5 20.09375 36.953125 
Q 23.96875 32.421875 30.609375 32.421875 
z
" id="DejaVuSans-57"/>
       <path d="M 25.390625 -1.421875 
Q 15.765625 -1.421875 10.171875 4.515625 
Q 4.59375 10.453125 4.59375 20.703125 
Q 4.59375 26.65625 6.515625 32.828125 
Q 8.453125 39.015625 11.53125 43.21875 
Q 16.359375 49.75 22.3125 52.875 
Q 28.265625 56 35.796875 56 
Q 45.125 56 50.859375 50.1875 
Q 56.59375 44.390625 56.59375 35.015625 
Q 56.59375 28.515625 54.6875 22.0625 
Q 52.78125 15.625 49.703125 11.375 
Q 44.921875 4.828125 38.96875 1.703125 
Q 33.015625 -1.421875 25.390625 -1.421875 
z
M 13.921875 21 
Q 13.921875 13.578125 17.015625 9.890625 
Q 20.125 6.203125 26.421875 6.203125 
Q 35.453125 6.203125 41.375 14.078125 
Q 47.3125 21.96875 47.3125 34.078125 
Q 47.3125 41.15625 44.140625 44.765625 
Q 40.96875 48.390625 34.8125 48.390625 
Q 29.734375 48.390625 25.78125 46.015625 
Q 21.828125 43.65625 18.703125 38.8125 
Q 16.40625 35.203125 15.15625 30.5625 
Q 13.921875 25.921875 13.921875 21 
z
" id="DejaVuSans-Oblique-111"/>
      </defs>
      <use transform="translate(0 0.51875)" xlink:href="#DejaVuSans-57"/>
      <use transform="translate(63.623047 0.51875)" xlink:href="#DejaVuSans-48"/>
      <use transform="translate(128.203125 38.8)scale(0.7)" xlink:href="#DejaVuSans-Oblique-111"/>
     </g>
    </g>
    <g id="line2d_22">
     <path d="M 59.55 93.08125 
L 79.55 93.08125 
" style="fill:none;stroke:#ff7f0e;stroke-linecap:square;stroke-width:1.5;"/>
    </g>
    <g id="line2d_23"/>
    <g id="text_18">
     <!-- $60^o$ -->
     <g transform="translate(87.55 96.58125)scale(0.1 -0.1)">
      <defs>
       <path d="M 33.015625 40.375 
Q 26.375 40.375 22.484375 35.828125 
Q 18.609375 31.296875 18.609375 23.390625 
Q 18.609375 15.53125 22.484375 10.953125 
Q 26.375 6.390625 33.015625 6.390625 
Q 39.65625 6.390625 43.53125 10.953125 
Q 47.40625 15.53125 47.40625 23.390625 
Q 47.40625 31.296875 43.53125 35.828125 
Q 39.65625 40.375 33.015625 40.375 
z
M 52.59375 71.296875 
L 52.59375 62.3125 
Q 48.875 64.0625 45.09375 64.984375 
Q 41.3125 65.921875 37.59375 65.921875 
Q 27.828125 65.921875 22.671875 59.328125 
Q 17.53125 52.734375 16.796875 39.40625 
Q 19.671875 43.65625 24.015625 45.921875 
Q 28.375 48.1875 33.59375 48.1875 
Q 44.578125 48.1875 50.953125 41.515625 
Q 57.328125 34.859375 57.328125 23.390625 
Q 57.328125 12.15625 50.6875 5.359375 
Q 44.046875 -1.421875 33.015625 -1.421875 
Q 20.359375 -1.421875 13.671875 8.265625 
Q 6.984375 17.96875 6.984375 36.375 
Q 6.984375 53.65625 15.1875 63.9375 
Q 23.390625 74.21875 37.203125 74.21875 
Q 40.921875 74.21875 44.703125 73.484375 
Q 48.484375 72.75 52.59375 71.296875 
z
" id="DejaVuSans-54"/>
      </defs>
      <use transform="translate(0 0.51875)" xlink:href="#DejaVuSans-54"/>
      <use transform="translate(63.623047 0.51875)" xlink:href="#DejaVuSans-48"/>
      <use transform="translate(128.203125 38.8)scale(0.7)" xlink:href="#DejaVuSans-Oblique-111"/>
     </g>
    </g>
    <g id="line2d_24">
     <path d="M 59.55 107.759375 
L 79.55 107.759375 
" style="fill:none;stroke:#2ca02c;stroke-linecap:square;stroke-width:1.5;"/>
    </g>
    <g id="line2d_25"/>
    <g id="text_19">
     <!-- $75^o$ -->
     <g transform="translate(87.55 111.259375)scale(0.1 -0.1)">
      <defs>
       <path d="M 8.203125 72.90625 
L 55.078125 72.90625 
L 55.078125 68.703125 
L 28.609375 0 
L 18.3125 0 
L 43.21875 64.59375 
L 8.203125 64.59375 
z
" id="DejaVuSans-55"/>
      </defs>
      <use transform="translate(0 0.51875)" xlink:href="#DejaVuSans-55"/>
      <use transform="translate(63.623047 0.51875)" xlink:href="#DejaVuSans-53"/>
      <use transform="translate(128.203125 38.8)scale(0.7)" xlink:href="#DejaVuSans-Oblique-111"/>
     </g>
    </g>
    <g id="line2d_26">
     <path d="M 59.55 122.4375 
L 79.55 122.4375 
" style="fill:none;stroke:#d62728;stroke-linecap:square;stroke-width:1.5;"/>
    </g>
    <g id="line2d_27"/>
    <g id="text_20">
     <!-- $45^o$ -->
     <g transform="translate(87.55 125.9375)scale(0.1 -0.1)">
      <use transform="translate(0 0.51875)" xlink:href="#DejaVuSans-52"/>
      <use transform="translate(63.623047 0.51875)" xlink:href="#DejaVuSans-53"/>
      <use transform="translate(128.203125 38.8)scale(0.7)" xlink:href="#DejaVuSans-Oblique-111"/>
     </g>
    </g>
    <g id="line2d_28">
     <path d="M 59.55 137.115625 
L 79.55 137.115625 
" style="fill:none;stroke:#9467bd;stroke-linecap:square;stroke-width:1.5;"/>
    </g>
    <g id="line2d_29"/>
    <g id="text_21">
     <!-- $0^o$ -->
     <g transform="translate(87.55 140.615625)scale(0.1 -0.1)">
      <use transform="translate(0 0.51875)" xlink:href="#DejaVuSans-48"/>
      <use transform="translate(64.580078 38.8)scale(0.7)" xlink:href="#DejaVuSans-Oblique-111"/>
     </g>
    </g>
   </g>
  </g>
 </g>
 <defs>
  <clipPath id="pc0d95a6153">
   <rect height="195.4" width="368.143324" x="50.55" y="10.8"/>
  </clipPath>
 </defs>
</svg>
