<?xml version="1.0" encoding="utf-8" standalone="no"?>
<!DOCTYPE svg PUBLIC "-//W3C//DTD SVG 1.1//EN"
  "http://www.w3.org/Graphics/SVG/1.1/DTD/svg11.dtd">
<!-- Created with matplotlib (https://matplotlib.org/) -->
<svg height="252pt" version="1.1" viewBox="0 0 288 252" width="288pt" xmlns="http://www.w3.org/2000/svg" xmlns:xlink="http://www.w3.org/1999/xlink">
 <defs>
  <style type="text/css">
*{stroke-linecap:butt;stroke-linejoin:round;}
  </style>
 </defs>
 <g id="figure_1">
  <g id="patch_1">
   <path d="M 0 252 
L 288 252 
L 288 0 
L 0 0 
z
" style="fill:#ffffff;"/>
  </g>
  <g id="axes_1">
   <g id="patch_2">
    <path d="M 50.55 206.2 
L 274.433171 206.2 
L 274.433171 10.8 
L 50.55 10.8 
z
" style="fill:#ffffff;"/>
   </g>
   <g id="matplotlib.axis_1">
    <g id="xtick_1">
     <g id="line2d_1">
      <defs>
       <path d="M 0 0 
L 0 3.5 
" id="m8869986577" style="stroke:#000000;stroke-width:0.8;"/>
      </defs>
      <g>
       <use style="stroke:#000000;stroke-width:0.8;" x="60.857818" xlink:href="#m8869986577" y="206.2"/>
      </g>
     </g>
     <g id="text_1">
      <!-- 0.00 -->
      <defs>
       <path d="M 31.78125 66.40625 
Q 24.171875 66.40625 20.328125 58.90625 
Q 16.5 51.421875 16.5 36.375 
Q 16.5 21.390625 20.328125 13.890625 
Q 24.171875 6.390625 31.78125 6.390625 
Q 39.453125 6.390625 43.28125 13.890625 
Q 47.125 21.390625 47.125 36.375 
Q 47.125 51.421875 43.28125 58.90625 
Q 39.453125 66.40625 31.78125 66.40625 
z
M 31.78125 74.21875 
Q 44.046875 74.21875 50.515625 64.515625 
Q 56.984375 54.828125 56.984375 36.375 
Q 56.984375 17.96875 50.515625 8.265625 
Q 44.046875 -1.421875 31.78125 -1.421875 
Q 19.53125 -1.421875 13.0625 8.265625 
Q 6.59375 17.96875 6.59375 36.375 
Q 6.59375 54.828125 13.0625 64.515625 
Q 19.53125 74.21875 31.78125 74.21875 
z
" id="DejaVuSans-48"/>
       <path d="M 10.6875 12.40625 
L 21 12.40625 
L 21 0 
L 10.6875 0 
z
" id="DejaVuSans-46"/>
      </defs>
      <g transform="translate(49.725005 220.798438)scale(0.1 -0.1)">
       <use xlink:href="#DejaVuSans-48"/>
       <use x="63.623047" xlink:href="#DejaVuSans-46"/>
       <use x="95.410156" xlink:href="#DejaVuSans-48"/>
       <use x="159.033203" xlink:href="#DejaVuSans-48"/>
      </g>
     </g>
    </g>
    <g id="xtick_2">
     <g id="line2d_2">
      <g>
       <use style="stroke:#000000;stroke-width:0.8;" x="95.045969" xlink:href="#m8869986577" y="206.2"/>
      </g>
     </g>
     <g id="text_2">
      <!-- 0.05 -->
      <defs>
       <path d="M 10.796875 72.90625 
L 49.515625 72.90625 
L 49.515625 64.59375 
L 19.828125 64.59375 
L 19.828125 46.734375 
Q 21.96875 47.46875 24.109375 47.828125 
Q 26.265625 48.1875 28.421875 48.1875 
Q 40.625 48.1875 47.75 41.5 
Q 54.890625 34.8125 54.890625 23.390625 
Q 54.890625 11.625 47.5625 5.09375 
Q 40.234375 -1.421875 26.90625 -1.421875 
Q 22.3125 -1.421875 17.546875 -0.640625 
Q 12.796875 0.140625 7.71875 1.703125 
L 7.71875 11.625 
Q 12.109375 9.234375 16.796875 8.0625 
Q 21.484375 6.890625 26.703125 6.890625 
Q 35.15625 6.890625 40.078125 11.328125 
Q 45.015625 15.765625 45.015625 23.390625 
Q 45.015625 31 40.078125 35.4375 
Q 35.15625 39.890625 26.703125 39.890625 
Q 22.75 39.890625 18.8125 39.015625 
Q 14.890625 38.140625 10.796875 36.28125 
z
" id="DejaVuSans-53"/>
      </defs>
      <g transform="translate(83.913157 220.798438)scale(0.1 -0.1)">
       <use xlink:href="#DejaVuSans-48"/>
       <use x="63.623047" xlink:href="#DejaVuSans-46"/>
       <use x="95.410156" xlink:href="#DejaVuSans-48"/>
       <use x="159.033203" xlink:href="#DejaVuSans-53"/>
      </g>
     </g>
    </g>
    <g id="xtick_3">
     <g id="line2d_3">
      <g>
       <use style="stroke:#000000;stroke-width:0.8;" x="129.234121" xlink:href="#m8869986577" y="206.2"/>
      </g>
     </g>
     <g id="text_3">
      <!-- 0.10 -->
      <defs>
       <path d="M 12.40625 8.296875 
L 28.515625 8.296875 
L 28.515625 63.921875 
L 10.984375 60.40625 
L 10.984375 69.390625 
L 28.421875 72.90625 
L 38.28125 72.90625 
L 38.28125 8.296875 
L 54.390625 8.296875 
L 54.390625 0 
L 12.40625 0 
z
" id="DejaVuSans-49"/>
      </defs>
      <g transform="translate(118.101308 220.798438)scale(0.1 -0.1)">
       <use xlink:href="#DejaVuSans-48"/>
       <use x="63.623047" xlink:href="#DejaVuSans-46"/>
       <use x="95.410156" xlink:href="#DejaVuSans-49"/>
       <use x="159.033203" xlink:href="#DejaVuSans-48"/>
      </g>
     </g>
    </g>
    <g id="xtick_4">
     <g id="line2d_4">
      <g>
       <use style="stroke:#000000;stroke-width:0.8;" x="163.422272" xlink:href="#m8869986577" y="206.2"/>
      </g>
     </g>
     <g id="text_4">
      <!-- 0.15 -->
      <g transform="translate(152.289459 220.798438)scale(0.1 -0.1)">
       <use xlink:href="#DejaVuSans-48"/>
       <use x="63.623047" xlink:href="#DejaVuSans-46"/>
       <use x="95.410156" xlink:href="#DejaVuSans-49"/>
       <use x="159.033203" xlink:href="#DejaVuSans-53"/>
      </g>
     </g>
    </g>
    <g id="xtick_5">
     <g id="line2d_5">
      <g>
       <use style="stroke:#000000;stroke-width:0.8;" x="197.610423" xlink:href="#m8869986577" y="206.2"/>
      </g>
     </g>
     <g id="text_5">
      <!-- 0.20 -->
      <defs>
       <path d="M 19.1875 8.296875 
L 53.609375 8.296875 
L 53.609375 0 
L 7.328125 0 
L 7.328125 8.296875 
Q 12.9375 14.109375 22.625 23.890625 
Q 32.328125 33.6875 34.8125 36.53125 
Q 39.546875 41.84375 41.421875 45.53125 
Q 43.3125 49.21875 43.3125 52.78125 
Q 43.3125 58.59375 39.234375 62.25 
Q 35.15625 65.921875 28.609375 65.921875 
Q 23.96875 65.921875 18.8125 64.3125 
Q 13.671875 62.703125 7.8125 59.421875 
L 7.8125 69.390625 
Q 13.765625 71.78125 18.9375 73 
Q 24.125 74.21875 28.421875 74.21875 
Q 39.75 74.21875 46.484375 68.546875 
Q 53.21875 62.890625 53.21875 53.421875 
Q 53.21875 48.921875 51.53125 44.890625 
Q 49.859375 40.875 45.40625 35.40625 
Q 44.1875 33.984375 37.640625 27.21875 
Q 31.109375 20.453125 19.1875 8.296875 
z
" id="DejaVuSans-50"/>
      </defs>
      <g transform="translate(186.477611 220.798438)scale(0.1 -0.1)">
       <use xlink:href="#DejaVuSans-48"/>
       <use x="63.623047" xlink:href="#DejaVuSans-46"/>
       <use x="95.410156" xlink:href="#DejaVuSans-50"/>
       <use x="159.033203" xlink:href="#DejaVuSans-48"/>
      </g>
     </g>
    </g>
    <g id="xtick_6">
     <g id="line2d_6">
      <g>
       <use style="stroke:#000000;stroke-width:0.8;" x="231.798575" xlink:href="#m8869986577" y="206.2"/>
      </g>
     </g>
     <g id="text_6">
      <!-- 0.25 -->
      <g transform="translate(220.665762 220.798438)scale(0.1 -0.1)">
       <use xlink:href="#DejaVuSans-48"/>
       <use x="63.623047" xlink:href="#DejaVuSans-46"/>
       <use x="95.410156" xlink:href="#DejaVuSans-50"/>
       <use x="159.033203" xlink:href="#DejaVuSans-53"/>
      </g>
     </g>
    </g>
    <g id="xtick_7">
     <g id="line2d_7">
      <g>
       <use style="stroke:#000000;stroke-width:0.8;" x="265.986726" xlink:href="#m8869986577" y="206.2"/>
      </g>
     </g>
     <g id="text_7">
      <!-- 0.30 -->
      <defs>
       <path d="M 40.578125 39.3125 
Q 47.65625 37.796875 51.625 33 
Q 55.609375 28.21875 55.609375 21.1875 
Q 55.609375 10.40625 48.1875 4.484375 
Q 40.765625 -1.421875 27.09375 -1.421875 
Q 22.515625 -1.421875 17.65625 -0.515625 
Q 12.796875 0.390625 7.625 2.203125 
L 7.625 11.71875 
Q 11.71875 9.328125 16.59375 8.109375 
Q 21.484375 6.890625 26.8125 6.890625 
Q 36.078125 6.890625 40.9375 10.546875 
Q 45.796875 14.203125 45.796875 21.1875 
Q 45.796875 27.640625 41.28125 31.265625 
Q 36.765625 34.90625 28.71875 34.90625 
L 20.21875 34.90625 
L 20.21875 43.015625 
L 29.109375 43.015625 
Q 36.375 43.015625 40.234375 45.921875 
Q 44.09375 48.828125 44.09375 54.296875 
Q 44.09375 59.90625 40.109375 62.90625 
Q 36.140625 65.921875 28.71875 65.921875 
Q 24.65625 65.921875 20.015625 65.03125 
Q 15.375 64.15625 9.8125 62.3125 
L 9.8125 71.09375 
Q 15.4375 72.65625 20.34375 73.4375 
Q 25.25 74.21875 29.59375 74.21875 
Q 40.828125 74.21875 47.359375 69.109375 
Q 53.90625 64.015625 53.90625 55.328125 
Q 53.90625 49.265625 50.4375 45.09375 
Q 46.96875 40.921875 40.578125 39.3125 
z
" id="DejaVuSans-51"/>
      </defs>
      <g transform="translate(254.853913 220.798438)scale(0.1 -0.1)">
       <use xlink:href="#DejaVuSans-48"/>
       <use x="63.623047" xlink:href="#DejaVuSans-46"/>
       <use x="95.410156" xlink:href="#DejaVuSans-51"/>
       <use x="159.033203" xlink:href="#DejaVuSans-48"/>
      </g>
     </g>
    </g>
    <g id="text_8">
     <!-- Velocity [m/s] -->
     <defs>
      <path d="M 28.609375 0 
L 0.78125 72.90625 
L 11.078125 72.90625 
L 34.1875 11.53125 
L 57.328125 72.90625 
L 67.578125 72.90625 
L 39.796875 0 
z
" id="DejaVuSans-86"/>
      <path d="M 56.203125 29.59375 
L 56.203125 25.203125 
L 14.890625 25.203125 
Q 15.484375 15.921875 20.484375 11.0625 
Q 25.484375 6.203125 34.421875 6.203125 
Q 39.59375 6.203125 44.453125 7.46875 
Q 49.3125 8.734375 54.109375 11.28125 
L 54.109375 2.78125 
Q 49.265625 0.734375 44.1875 -0.34375 
Q 39.109375 -1.421875 33.890625 -1.421875 
Q 20.796875 -1.421875 13.15625 6.1875 
Q 5.515625 13.8125 5.515625 26.8125 
Q 5.515625 40.234375 12.765625 48.109375 
Q 20.015625 56 32.328125 56 
Q 43.359375 56 49.78125 48.890625 
Q 56.203125 41.796875 56.203125 29.59375 
z
M 47.21875 32.234375 
Q 47.125 39.59375 43.09375 43.984375 
Q 39.0625 48.390625 32.421875 48.390625 
Q 24.90625 48.390625 20.390625 44.140625 
Q 15.875 39.890625 15.1875 32.171875 
z
" id="DejaVuSans-101"/>
      <path d="M 9.421875 75.984375 
L 18.40625 75.984375 
L 18.40625 0 
L 9.421875 0 
z
" id="DejaVuSans-108"/>
      <path d="M 30.609375 48.390625 
Q 23.390625 48.390625 19.1875 42.75 
Q 14.984375 37.109375 14.984375 27.296875 
Q 14.984375 17.484375 19.15625 11.84375 
Q 23.34375 6.203125 30.609375 6.203125 
Q 37.796875 6.203125 41.984375 11.859375 
Q 46.1875 17.53125 46.1875 27.296875 
Q 46.1875 37.015625 41.984375 42.703125 
Q 37.796875 48.390625 30.609375 48.390625 
z
M 30.609375 56 
Q 42.328125 56 49.015625 48.375 
Q 55.71875 40.765625 55.71875 27.296875 
Q 55.71875 13.875 49.015625 6.21875 
Q 42.328125 -1.421875 30.609375 -1.421875 
Q 18.84375 -1.421875 12.171875 6.21875 
Q 5.515625 13.875 5.515625 27.296875 
Q 5.515625 40.765625 12.171875 48.375 
Q 18.84375 56 30.609375 56 
z
" id="DejaVuSans-111"/>
      <path d="M 48.78125 52.59375 
L 48.78125 44.1875 
Q 44.96875 46.296875 41.140625 47.34375 
Q 37.3125 48.390625 33.40625 48.390625 
Q 24.65625 48.390625 19.8125 42.84375 
Q 14.984375 37.3125 14.984375 27.296875 
Q 14.984375 17.28125 19.8125 11.734375 
Q 24.65625 6.203125 33.40625 6.203125 
Q 37.3125 6.203125 41.140625 7.25 
Q 44.96875 8.296875 48.78125 10.40625 
L 48.78125 2.09375 
Q 45.015625 0.34375 40.984375 -0.53125 
Q 36.96875 -1.421875 32.421875 -1.421875 
Q 20.0625 -1.421875 12.78125 6.34375 
Q 5.515625 14.109375 5.515625 27.296875 
Q 5.515625 40.671875 12.859375 48.328125 
Q 20.21875 56 33.015625 56 
Q 37.15625 56 41.109375 55.140625 
Q 45.0625 54.296875 48.78125 52.59375 
z
" id="DejaVuSans-99"/>
      <path d="M 9.421875 54.6875 
L 18.40625 54.6875 
L 18.40625 0 
L 9.421875 0 
z
M 9.421875 75.984375 
L 18.40625 75.984375 
L 18.40625 64.59375 
L 9.421875 64.59375 
z
" id="DejaVuSans-105"/>
      <path d="M 18.3125 70.21875 
L 18.3125 54.6875 
L 36.8125 54.6875 
L 36.8125 47.703125 
L 18.3125 47.703125 
L 18.3125 18.015625 
Q 18.3125 11.328125 20.140625 9.421875 
Q 21.96875 7.515625 27.59375 7.515625 
L 36.8125 7.515625 
L 36.8125 0 
L 27.59375 0 
Q 17.1875 0 13.234375 3.875 
Q 9.28125 7.765625 9.28125 18.015625 
L 9.28125 47.703125 
L 2.6875 47.703125 
L 2.6875 54.6875 
L 9.28125 54.6875 
L 9.28125 70.21875 
z
" id="DejaVuSans-116"/>
      <path d="M 32.171875 -5.078125 
Q 28.375 -14.84375 24.75 -17.8125 
Q 21.140625 -20.796875 15.09375 -20.796875 
L 7.90625 -20.796875 
L 7.90625 -13.28125 
L 13.1875 -13.28125 
Q 16.890625 -13.28125 18.9375 -11.515625 
Q 21 -9.765625 23.484375 -3.21875 
L 25.09375 0.875 
L 2.984375 54.6875 
L 12.5 54.6875 
L 29.59375 11.921875 
L 46.6875 54.6875 
L 56.203125 54.6875 
z
" id="DejaVuSans-121"/>
      <path id="DejaVuSans-32"/>
      <path d="M 8.59375 75.984375 
L 29.296875 75.984375 
L 29.296875 69 
L 17.578125 69 
L 17.578125 -6.203125 
L 29.296875 -6.203125 
L 29.296875 -13.1875 
L 8.59375 -13.1875 
z
" id="DejaVuSans-91"/>
      <path d="M 52 44.1875 
Q 55.375 50.25 60.0625 53.125 
Q 64.75 56 71.09375 56 
Q 79.640625 56 84.28125 50.015625 
Q 88.921875 44.046875 88.921875 33.015625 
L 88.921875 0 
L 79.890625 0 
L 79.890625 32.71875 
Q 79.890625 40.578125 77.09375 44.375 
Q 74.3125 48.1875 68.609375 48.1875 
Q 61.625 48.1875 57.5625 43.546875 
Q 53.515625 38.921875 53.515625 30.90625 
L 53.515625 0 
L 44.484375 0 
L 44.484375 32.71875 
Q 44.484375 40.625 41.703125 44.40625 
Q 38.921875 48.1875 33.109375 48.1875 
Q 26.21875 48.1875 22.15625 43.53125 
Q 18.109375 38.875 18.109375 30.90625 
L 18.109375 0 
L 9.078125 0 
L 9.078125 54.6875 
L 18.109375 54.6875 
L 18.109375 46.1875 
Q 21.1875 51.21875 25.484375 53.609375 
Q 29.78125 56 35.6875 56 
Q 41.65625 56 45.828125 52.96875 
Q 50 49.953125 52 44.1875 
z
" id="DejaVuSans-109"/>
      <path d="M 25.390625 72.90625 
L 33.6875 72.90625 
L 8.296875 -9.28125 
L 0 -9.28125 
z
" id="DejaVuSans-47"/>
      <path d="M 44.28125 53.078125 
L 44.28125 44.578125 
Q 40.484375 46.53125 36.375 47.5 
Q 32.28125 48.484375 27.875 48.484375 
Q 21.1875 48.484375 17.84375 46.4375 
Q 14.5 44.390625 14.5 40.28125 
Q 14.5 37.15625 16.890625 35.375 
Q 19.28125 33.59375 26.515625 31.984375 
L 29.59375 31.296875 
Q 39.15625 29.25 43.1875 25.515625 
Q 47.21875 21.78125 47.21875 15.09375 
Q 47.21875 7.46875 41.1875 3.015625 
Q 35.15625 -1.421875 24.609375 -1.421875 
Q 20.21875 -1.421875 15.453125 -0.5625 
Q 10.6875 0.296875 5.421875 2 
L 5.421875 11.28125 
Q 10.40625 8.6875 15.234375 7.390625 
Q 20.0625 6.109375 24.8125 6.109375 
Q 31.15625 6.109375 34.5625 8.28125 
Q 37.984375 10.453125 37.984375 14.40625 
Q 37.984375 18.0625 35.515625 20.015625 
Q 33.0625 21.96875 24.703125 23.78125 
L 21.578125 24.515625 
Q 13.234375 26.265625 9.515625 29.90625 
Q 5.8125 33.546875 5.8125 39.890625 
Q 5.8125 47.609375 11.28125 51.796875 
Q 16.75 56 26.8125 56 
Q 31.78125 56 36.171875 55.265625 
Q 40.578125 54.546875 44.28125 53.078125 
z
" id="DejaVuSans-115"/>
      <path d="M 30.421875 75.984375 
L 30.421875 -13.1875 
L 9.71875 -13.1875 
L 9.71875 -6.203125 
L 21.390625 -6.203125 
L 21.390625 69 
L 9.71875 69 
L 9.71875 75.984375 
z
" id="DejaVuSans-93"/>
     </defs>
     <g transform="translate(114.519711 237.515938)scale(0.14 -0.14)">
      <use xlink:href="#DejaVuSans-86"/>
      <use x="60.658203" xlink:href="#DejaVuSans-101"/>
      <use x="122.181641" xlink:href="#DejaVuSans-108"/>
      <use x="149.964844" xlink:href="#DejaVuSans-111"/>
      <use x="211.146484" xlink:href="#DejaVuSans-99"/>
      <use x="266.126953" xlink:href="#DejaVuSans-105"/>
      <use x="293.910156" xlink:href="#DejaVuSans-116"/>
      <use x="333.119141" xlink:href="#DejaVuSans-121"/>
      <use x="392.298828" xlink:href="#DejaVuSans-32"/>
      <use x="424.085938" xlink:href="#DejaVuSans-91"/>
      <use x="463.099609" xlink:href="#DejaVuSans-109"/>
      <use x="560.511719" xlink:href="#DejaVuSans-47"/>
      <use x="594.203125" xlink:href="#DejaVuSans-115"/>
      <use x="646.302734" xlink:href="#DejaVuSans-93"/>
     </g>
    </g>
   </g>
   <g id="matplotlib.axis_2">
    <g id="ytick_1">
     <g id="line2d_8">
      <defs>
       <path d="M 0 0 
L -3.5 0 
" id="m75a60c0ed5" style="stroke:#000000;stroke-width:0.8;"/>
      </defs>
      <g>
       <use style="stroke:#000000;stroke-width:0.8;" x="50.55" xlink:href="#m75a60c0ed5" y="179.625671"/>
      </g>
     </g>
     <g id="text_9">
      <!-- −2 -->
      <defs>
       <path d="M 10.59375 35.5 
L 73.1875 35.5 
L 73.1875 27.203125 
L 10.59375 27.203125 
z
" id="DejaVuSans-8722"/>
      </defs>
      <g transform="translate(28.807813 183.42489)scale(0.1 -0.1)">
       <use xlink:href="#DejaVuSans-8722"/>
       <use x="83.789062" xlink:href="#DejaVuSans-50"/>
      </g>
     </g>
    </g>
    <g id="ytick_2">
     <g id="line2d_9">
      <g>
       <use style="stroke:#000000;stroke-width:0.8;" x="50.55" xlink:href="#m75a60c0ed5" y="144.062836"/>
      </g>
     </g>
     <g id="text_10">
      <!-- −1 -->
      <g transform="translate(28.807813 147.862054)scale(0.1 -0.1)">
       <use xlink:href="#DejaVuSans-8722"/>
       <use x="83.789062" xlink:href="#DejaVuSans-49"/>
      </g>
     </g>
    </g>
    <g id="ytick_3">
     <g id="line2d_10">
      <g>
       <use style="stroke:#000000;stroke-width:0.8;" x="50.55" xlink:href="#m75a60c0ed5" y="108.5"/>
      </g>
     </g>
     <g id="text_11">
      <!-- 0 -->
      <g transform="translate(37.1875 112.299219)scale(0.1 -0.1)">
       <use xlink:href="#DejaVuSans-48"/>
      </g>
     </g>
    </g>
    <g id="ytick_4">
     <g id="line2d_11">
      <g>
       <use style="stroke:#000000;stroke-width:0.8;" x="50.55" xlink:href="#m75a60c0ed5" y="72.937164"/>
      </g>
     </g>
     <g id="text_12">
      <!-- 1 -->
      <g transform="translate(37.1875 76.736383)scale(0.1 -0.1)">
       <use xlink:href="#DejaVuSans-49"/>
      </g>
     </g>
    </g>
    <g id="ytick_5">
     <g id="line2d_12">
      <g>
       <use style="stroke:#000000;stroke-width:0.8;" x="50.55" xlink:href="#m75a60c0ed5" y="37.374329"/>
      </g>
     </g>
     <g id="text_13">
      <!-- 2 -->
      <g transform="translate(37.1875 41.173548)scale(0.1 -0.1)">
       <use xlink:href="#DejaVuSans-50"/>
      </g>
     </g>
    </g>
    <g id="text_14">
     <!-- Position [mm] -->
     <defs>
      <path d="M 19.671875 64.796875 
L 19.671875 37.40625 
L 32.078125 37.40625 
Q 38.96875 37.40625 42.71875 40.96875 
Q 46.484375 44.53125 46.484375 51.125 
Q 46.484375 57.671875 42.71875 61.234375 
Q 38.96875 64.796875 32.078125 64.796875 
z
M 9.8125 72.90625 
L 32.078125 72.90625 
Q 44.34375 72.90625 50.609375 67.359375 
Q 56.890625 61.8125 56.890625 51.125 
Q 56.890625 40.328125 50.609375 34.8125 
Q 44.34375 29.296875 32.078125 29.296875 
L 19.671875 29.296875 
L 19.671875 0 
L 9.8125 0 
z
" id="DejaVuSans-80"/>
      <path d="M 54.890625 33.015625 
L 54.890625 0 
L 45.90625 0 
L 45.90625 32.71875 
Q 45.90625 40.484375 42.875 44.328125 
Q 39.84375 48.1875 33.796875 48.1875 
Q 26.515625 48.1875 22.3125 43.546875 
Q 18.109375 38.921875 18.109375 30.90625 
L 18.109375 0 
L 9.078125 0 
L 9.078125 54.6875 
L 18.109375 54.6875 
L 18.109375 46.1875 
Q 21.34375 51.125 25.703125 53.5625 
Q 30.078125 56 35.796875 56 
Q 45.21875 56 50.046875 50.171875 
Q 54.890625 44.34375 54.890625 33.015625 
z
" id="DejaVuSans-110"/>
     </defs>
     <g transform="translate(21.89625 157.073438)rotate(-90)scale(0.14 -0.14)">
      <use xlink:href="#DejaVuSans-80"/>
      <use x="56.677734" xlink:href="#DejaVuSans-111"/>
      <use x="117.859375" xlink:href="#DejaVuSans-115"/>
      <use x="169.958984" xlink:href="#DejaVuSans-105"/>
      <use x="197.742188" xlink:href="#DejaVuSans-116"/>
      <use x="236.951172" xlink:href="#DejaVuSans-105"/>
      <use x="264.734375" xlink:href="#DejaVuSans-111"/>
      <use x="325.916016" xlink:href="#DejaVuSans-110"/>
      <use x="389.294922" xlink:href="#DejaVuSans-32"/>
      <use x="421.082031" xlink:href="#DejaVuSans-91"/>
      <use x="460.095703" xlink:href="#DejaVuSans-109"/>
      <use x="557.507812" xlink:href="#DejaVuSans-109"/>
      <use x="654.919922" xlink:href="#DejaVuSans-93"/>
     </g>
    </g>
   </g>
   <g id="line2d_13">
    <path clip-path="url(#p0be1f67547)" d="M 60.857818 197.318182 
L 60.857818 197.140368 
L 64.817094 196.606925 
L 86.499166 193.761898 
L 101.198201 191.628128 
L 113.130165 189.672172 
L 122.688764 187.89403 
L 131.147081 186.115889 
L 139.365827 184.159933 
L 146.632877 182.203977 
L 153.661104 180.070207 
L 162.109757 177.22518 
L 172.04649 173.668896 
L 181.822963 169.934798 
L 190.976235 166.200701 
L 199.540693 162.466603 
L 207.541135 158.732505 
L 214.653061 155.176222 
L 221.281668 151.619938 
L 227.435045 148.063655 
L 232.845052 144.685185 
L 237.832217 141.306716 
L 242.166113 138.106061 
L 245.907555 135.08322 
L 249.303126 132.060379 
L 252.177576 129.215352 
L 254.733447 126.370325 
L 256.832463 123.703112 
L 258.523984 121.213714 
L 259.947869 118.724315 
L 261.020662 116.412731 
L 261.842076 114.101147 
L 262.365513 111.967376 
L 262.649976 109.833606 
L 262.686772 107.87765 
L 262.50524 105.921694 
L 262.072748 103.787924 
L 261.409665 101.654154 
L 260.4446 99.34257 
L 259.234641 97.030986 
L 257.668994 94.541587 
L 255.840804 92.052189 
L 253.600003 89.384976 
L 251.075442 86.717763 
L 248.077151 83.872736 
L 244.552709 80.849895 
L 240.684514 77.827054 
L 236.218036 74.626399 
L 231.372321 71.425744 
L 225.846104 68.047275 
L 219.895255 64.668805 
L 213.167227 61.112522 
L 205.954759 57.556238 
L 198.245596 53.999954 
L 190.023234 50.443671 
L 180.813214 46.709573 
L 171.460911 43.15329 
L 161.496247 39.597006 
L 151.889011 36.396351 
L 145.285525 34.440395 
L 137.864249 32.484439 
L 130.269892 30.706297 
L 121.716953 28.928155 
L 112.050755 27.150014 
L 101.153225 25.371872 
L 87.755862 23.415916 
L 69.011746 20.926517 
L 60.857818 19.859632 
L 60.857818 19.681818 
L 60.857818 19.681818 
" style="fill:none;stroke:#808080;stroke-linecap:square;stroke-width:1.5;"/>
   </g>
   <g id="line2d_14">
    <path clip-path="url(#p0be1f67547)" d="M 61.626909 197.318182 
L 63.544502 196.962553 
L 86.761622 193.939712 
L 101.595493 191.805942 
L 113.665897 189.849986 
L 123.342499 188.071845 
L 131.903899 186.293703 
L 140.218235 184.337747 
L 147.564718 182.381791 
L 154.10544 180.425835 
L 161.601056 177.936436 
L 171.667418 174.380153 
L 181.567681 170.646055 
L 190.836631 166.911957 
L 199.511096 163.17786 
L 207.617386 159.443762 
L 214.827247 155.887478 
L 221.551764 152.331195 
L 227.799697 148.774911 
L 233.298847 145.396442 
L 238.375019 142.017973 
L 242.793586 138.817317 
L 246.829878 135.616662 
L 250.286871 132.593821 
L 253.22024 129.748794 
L 255.83645 126.903767 
L 257.993671 124.236555 
L 259.741294 121.747156 
L 261.223393 119.257758 
L 262.352557 116.946173 
L 263.233079 114.634589 
L 263.814076 112.500819 
L 264.159696 110.367049 
L 264.256354 108.411093 
L 264.133293 106.455137 
L 263.760588 104.321367 
L 263.153962 102.187597 
L 262.325725 100.053827 
L 261.189977 97.742242 
L 259.701102 95.252844 
L 257.947011 92.763445 
L 255.78319 90.096233 
L 253.333594 87.42902 
L 250.413517 84.583993 
L 246.970672 81.561152 
L 243.182974 78.538311 
L 238.800992 75.337656 
L 234.039469 72.137001 
L 228.602282 68.758531 
L 222.741137 65.380062 
L 216.10885 61.823778 
L 208.994129 58.267495 
L 201.385476 54.711211 
L 193.267313 51.154928 
L 184.172056 47.42083 
L 174.459055 43.686732 
L 164.589995 40.130449 
L 154.570163 36.751979 
L 148.100284 34.796023 
L 140.838951 32.840067 
L 133.418065 31.061926 
L 125.069347 29.283784 
L 115.63741 27.505642 
L 104.991175 25.7275 
L 91.850469 23.771544 
L 74.709456 21.45996 
L 61.627193 19.681818 
L 61.627193 19.681818 
" style="fill:none;stroke:#808080;stroke-dasharray:5.55,2.4;stroke-dashoffset:0;stroke-width:1.5;"/>
   </g>
   <g id="line2d_15">
    <path clip-path="url(#p0be1f67547)" d="M 60.857818 197.318182 
L 60.857818 197.140368 
L 64.482338 196.784739 
L 83.326309 194.295341 
L 96.557482 192.339385 
L 108.309042 190.383429 
L 118.687339 188.427473 
L 127.859811 186.471517 
L 135.997283 184.515561 
L 143.252395 182.559605 
L 150.312285 180.425835 
L 158.242031 177.758622 
L 168.697068 174.024525 
L 178.502786 170.290427 
L 187.694173 166.556329 
L 196.29958 162.822231 
L 204.34168 159.088134 
L 211.493372 155.53185 
L 218.161802 151.975566 
L 224.355215 148.419283 
L 229.803665 145.040814 
L 234.8299 141.662344 
L 239.201606 138.461689 
L 243.191224 135.261034 
L 246.604072 132.238193 
L 249.495616 129.393166 
L 252.069496 126.548139 
L 254.186335 123.880926 
L 255.895417 121.391528 
L 257.337876 118.902129 
L 258.428953 116.590545 
L 259.269798 114.278961 
L 259.812356 112.145191 
L 260.117282 110.011421 
L 260.174129 108.055465 
L 260.012018 106.099509 
L 259.599492 103.965738 
L 258.955424 101.831968 
L 258.010159 99.520384 
L 256.819388 97.2088 
L 255.273912 94.719401 
L 253.465544 92.230003 
L 251.245742 89.56279 
L 248.742062 86.895577 
L 245.766039 84.050551 
L 242.265378 81.02771 
L 238.421206 78.004869 
L 233.980556 74.804213 
L 229.161196 71.603558 
L 223.663514 68.225089 
L 217.742099 64.846619 
L 211.046253 61.290336 
L 203.867546 57.734052 
L 196.194337 54.177769 
L 187.588502 50.443671 
L 178.398123 46.709573 
L 168.595076 42.975475 
L 158.144657 39.241378 
L 149.099732 36.218537 
L 142.538558 34.262581 
L 135.214941 32.306625 
L 126.997578 30.350669 
L 117.73215 28.394713 
L 108.255356 26.616571 
L 97.645036 24.838429 
L 84.565371 22.882473 
L 68.675855 20.748703 
L 60.857818 19.681818 
L 60.857818 19.681818 
" style="fill:none;stroke:#0000ff;stroke-linecap:square;stroke-width:1.5;"/>
   </g>
   <g id="line2d_16">
    <path clip-path="url(#p0be1f67547)" d="M 61.824502 197.318182 
L 70.239473 196.251297 
L 87.399977 193.939712 
L 100.360139 191.983756 
L 111.851158 190.027801 
L 121.997172 188.071845 
L 130.969141 186.115889 
L 138.9355 184.159933 
L 146.653077 182.026163 
L 153.511637 179.892392 
L 162.855367 176.691737 
L 173.120881 172.957639 
L 182.747817 169.223542 
L 191.769152 165.489444 
L 200.211529 161.755346 
L 208.096139 158.021249 
L 215.101794 154.464965 
L 221.626999 150.908681 
L 227.679043 147.352398 
L 232.994078 143.973928 
L 237.886972 140.595459 
L 242.13171 137.394804 
L 245.78864 134.371963 
L 249.09895 131.349122 
L 251.892031 128.504095 
L 254.219952 125.836882 
L 256.258879 123.16967 
L 257.892782 120.680271 
L 259.257138 118.190873 
L 260.272479 115.879288 
L 260.984541 113.745518 
L 261.469028 111.611748 
L 261.701492 109.655792 
L 261.718244 107.699836 
L 261.517517 105.74388 
L 261.06546 103.61011 
L 260.384027 101.47634 
L 259.400256 99.164756 
L 258.172653 96.853171 
L 256.589043 94.363773 
L 254.74384 91.874374 
L 252.485746 89.207162 
L 249.76546 86.362135 
L 246.731043 83.517108 
L 243.169415 80.494267 
L 239.265057 77.471426 
L 234.761184 74.270771 
L 229.878787 71.070116 
L 224.314399 67.691646 
L 218.32573 64.313177 
L 211.558063 60.756893 
L 204.306008 57.20061 
L 196.5574 53.644326 
L 187.869558 49.910228 
L 178.593519 46.176131 
L 168.700283 42.442033 
L 158.154111 38.707935 
L 149.515887 35.862908 
L 142.824821 33.906952 
L 135.349153 31.950996 
L 126.953352 29.99504 
L 117.479222 28.039085 
L 107.785188 26.260943 
L 96.935645 24.482801 
L 83.586067 22.526845 
L 67.444866 20.393075 
L 61.824914 19.681818 
L 61.824914 19.681818 
" style="fill:none;stroke:#0000ff;stroke-dasharray:5.55,2.4;stroke-dashoffset:0;stroke-width:1.5;"/>
   </g>
   <g id="line2d_17">
    <path clip-path="url(#p0be1f67547)" d="M 60.857818 197.318182 
L 60.857818 197.140368 
L 62.86457 196.784739 
L 81.708678 194.295341 
L 94.939664 192.339385 
L 106.691045 190.383429 
L 117.069173 188.427473 
L 126.241486 186.471517 
L 134.378807 184.515561 
L 141.633777 182.559605 
L 148.693521 180.425835 
L 156.623091 177.758622 
L 167.077876 174.024525 
L 176.883336 170.290427 
L 186.074457 166.556329 
L 194.679592 162.822231 
L 202.721413 159.088134 
L 209.872835 155.53185 
L 216.540989 151.975566 
L 222.734119 148.419283 
L 228.182295 145.040814 
L 233.208249 141.662344 
L 237.579683 138.461689 
L 241.569024 135.261034 
L 244.981604 132.238193 
L 247.872889 129.393166 
L 250.446504 126.548139 
L 252.563087 123.880926 
L 254.271924 121.391528 
L 255.714133 118.902129 
L 256.804969 116.590545 
L 257.645566 114.278961 
L 258.187887 112.145191 
L 258.492568 110.011421 
L 258.549183 108.055465 
L 258.386842 106.099509 
L 257.974074 103.965738 
L 257.329771 101.831968 
L 256.384258 99.520384 
L 255.193245 97.2088 
L 253.647514 94.719401 
L 251.838896 92.230003 
L 249.618833 89.56279 
L 247.114895 86.895577 
L 244.138601 84.050551 
L 240.637655 81.02771 
L 236.793202 78.004869 
L 232.352256 74.804213 
L 227.532603 71.603558 
L 222.034612 68.225089 
L 216.112888 64.846619 
L 209.416716 61.290336 
L 202.23768 57.734052 
L 194.564138 54.177769 
L 185.957949 50.443671 
L 176.767207 46.709573 
L 166.963789 42.975475 
L 156.512988 39.241378 
L 147.46774 36.218537 
L 140.906335 34.262581 
L 133.582463 32.306625 
L 125.364816 30.350669 
L 116.09907 28.394713 
L 106.621951 26.616571 
L 96.011269 24.838429 
L 82.931158 22.882473 
L 67.0411 20.748703 
L 60.857818 19.859632 
L 60.857818 19.681818 
L 60.857818 19.681818 
" style="fill:none;stroke:#ffa500;stroke-linecap:square;stroke-width:1.5;"/>
   </g>
   <g id="line2d_18">
    <path clip-path="url(#p0be1f67547)" d="M 61.633871 197.318182 
L 64.422566 196.784739 
L 83.266249 194.295341 
L 96.497235 192.339385 
L 108.248618 190.383429 
L 118.626748 188.427473 
L 127.799063 186.471517 
L 135.936386 184.515561 
L 143.191358 182.559605 
L 150.251104 180.425835 
L 158.180679 177.758622 
L 168.635464 174.024525 
L 178.440924 170.290427 
L 187.632045 166.556329 
L 196.23718 162.822231 
L 204.279001 159.088134 
L 211.430423 155.53185 
L 218.098577 151.975566 
L 224.291707 148.419283 
L 229.739882 145.040814 
L 234.765837 141.662344 
L 239.137271 138.461689 
L 243.126612 135.261034 
L 246.539191 132.238193 
L 249.430476 129.393166 
L 252.004091 126.548139 
L 254.120675 123.880926 
L 255.829512 121.391528 
L 257.27172 118.902129 
L 258.362557 116.590545 
L 259.203153 114.278961 
L 259.745474 112.145191 
L 260.050155 110.011421 
L 260.106769 108.055465 
L 259.944429 106.099509 
L 259.531661 103.965738 
L 258.887358 101.831968 
L 257.941845 99.520384 
L 256.750832 97.2088 
L 255.205101 94.719401 
L 253.396484 92.230003 
L 251.17642 89.56279 
L 248.672482 86.895577 
L 245.696189 84.050551 
L 242.195243 81.02771 
L 238.35079 78.004869 
L 233.909844 74.804213 
L 229.090191 71.603558 
L 223.5922 68.225089 
L 217.670476 64.846619 
L 210.974304 61.290336 
L 203.795268 57.734052 
L 196.121726 54.177769 
L 187.515537 50.443671 
L 178.324796 46.709573 
L 168.521378 42.975475 
L 158.070576 39.241378 
L 149.025323 36.218537 
L 142.463916 34.262581 
L 135.140042 32.306625 
L 126.922393 30.350669 
L 117.656644 28.394713 
L 108.179524 26.616571 
L 97.56884 24.838429 
L 84.488729 22.882473 
L 68.598675 20.748703 
L 62.442034 19.859632 
L 61.634178 19.681818 
L 61.634178 19.681818 
" style="fill:none;stroke:#ffa500;stroke-dasharray:5.55,2.4;stroke-dashoffset:0;stroke-width:1.5;"/>
   </g>
   <g id="line2d_19">
    <path clip-path="url(#p0be1f67547)" d="M 60.857818 197.318182 
L 60.857818 197.140368 
L 60.732032 196.962553 
L 62.566716 196.606925 
L 80.002888 194.295341 
L 93.233763 192.339385 
L 104.985032 190.383429 
L 115.363049 188.427473 
L 124.535254 186.471517 
L 132.672472 184.515561 
L 139.927342 182.559605 
L 146.986981 180.425835 
L 154.916423 177.758622 
L 165.37102 174.024525 
L 175.176283 170.290427 
L 184.3672 166.556329 
L 192.972122 162.822231 
L 201.013724 159.088134 
L 208.164929 155.53185 
L 214.832861 151.975566 
L 221.025764 148.419283 
L 226.473717 145.040814 
L 231.499444 141.662344 
L 235.870656 138.461689 
L 239.859769 135.261034 
L 243.272129 132.238193 
L 246.163201 129.393166 
L 248.736597 126.548139 
L 250.85297 123.880926 
L 252.561604 121.391528 
L 254.003605 118.902129 
L 255.094242 116.590545 
L 255.934633 114.278961 
L 256.476758 112.145191 
L 256.781236 110.011421 
L 256.837657 108.055465 
L 256.675125 106.099509 
L 256.262155 103.965738 
L 255.617656 101.831968 
L 254.671936 99.520384 
L 253.480721 97.2088 
L 251.934778 94.719401 
L 250.125952 92.230003 
L 247.905669 89.56279 
L 245.401514 86.895577 
L 242.424993 84.050551 
L 238.923808 81.02771 
L 235.079118 78.004869 
L 230.637923 74.804213 
L 225.81802 71.603558 
L 220.319767 68.225089 
L 214.397779 64.846619 
L 207.701327 61.290336 
L 200.522008 57.734052 
L 192.848179 54.177769 
L 184.241681 50.443671 
L 175.050623 46.709573 
L 165.246878 42.975475 
L 154.795737 39.241378 
L 145.7502 36.218537 
L 139.188587 34.262581 
L 131.864485 32.306625 
L 123.64658 30.350669 
L 114.380543 28.394713 
L 104.903128 26.616571 
L 94.292112 24.838429 
L 81.211587 22.882473 
L 65.321023 20.748703 
L 61.546672 20.215261 
L 60.726508 20.037447 
L 60.857818 19.681818 
L 60.857818 19.681818 
" style="fill:none;stroke:#008000;stroke-linecap:square;stroke-width:1.5;"/>
   </g>
   <g id="line2d_20">
    <path clip-path="url(#p0be1f67547)" d="M 61.318541 197.318182 
L 61.544738 197.140368 
L 64.124924 196.606925 
L 81.560459 194.295341 
L 94.791333 192.339385 
L 106.542604 190.383429 
L 116.920624 188.427473 
L 126.092832 186.471517 
L 134.230052 184.515561 
L 141.484924 182.559605 
L 148.544564 180.425835 
L 156.474011 177.758622 
L 166.928609 174.024525 
L 176.733871 170.290427 
L 185.924788 166.556329 
L 194.52971 162.822231 
L 202.571312 159.088134 
L 209.722517 155.53185 
L 216.390449 151.975566 
L 222.583352 148.419283 
L 228.031305 145.040814 
L 233.057032 141.662344 
L 237.428244 138.461689 
L 241.417357 135.261034 
L 244.829716 132.238193 
L 247.720788 129.393166 
L 250.294185 126.548139 
L 252.410557 123.880926 
L 254.119192 121.391528 
L 255.561192 118.902129 
L 256.651829 116.590545 
L 257.492221 114.278961 
L 258.034345 112.145191 
L 258.338823 110.011421 
L 258.395243 108.055465 
L 258.232712 106.099509 
L 257.819742 103.965738 
L 257.175243 101.831968 
L 256.229524 99.520384 
L 255.038309 97.2088 
L 253.492365 94.719401 
L 251.683539 92.230003 
L 249.463256 89.56279 
L 246.959102 86.895577 
L 243.982581 84.050551 
L 240.481396 81.02771 
L 236.636706 78.004869 
L 232.19551 74.804213 
L 227.375608 71.603558 
L 221.877354 68.225089 
L 215.955367 64.846619 
L 209.258915 61.290336 
L 202.079596 57.734052 
L 194.405767 54.177769 
L 185.799269 50.443671 
L 176.608211 46.709573 
L 166.804466 42.975475 
L 156.353325 39.241378 
L 147.307783 36.218537 
L 140.746168 34.262581 
L 133.422064 32.306625 
L 125.204157 30.350669 
L 115.938118 28.394713 
L 106.4607 26.616571 
L 95.849683 24.838429 
L 82.769158 22.882473 
L 66.878599 20.748703 
L 63.104516 20.215261 
L 61.544995 19.859632 
L 61.318629 19.681818 
L 61.318629 19.681818 
" style="fill:none;stroke:#008000;stroke-dasharray:5.55,2.4;stroke-dashoffset:0;stroke-width:1.5;"/>
   </g>
   <g id="patch_3">
    <path d="M 50.55 206.2 
L 50.55 10.8 
" style="fill:none;stroke:#000000;stroke-linecap:square;stroke-linejoin:miter;stroke-width:0.8;"/>
   </g>
   <g id="patch_4">
    <path d="M 274.433171 206.2 
L 274.433171 10.8 
" style="fill:none;stroke:#000000;stroke-linecap:square;stroke-linejoin:miter;stroke-width:0.8;"/>
   </g>
   <g id="patch_5">
    <path d="M 50.55 206.2 
L 274.433171 206.2 
" style="fill:none;stroke:#000000;stroke-linecap:square;stroke-linejoin:miter;stroke-width:0.8;"/>
   </g>
   <g id="patch_6">
    <path d="M 50.55 10.8 
L 274.433171 10.8 
" style="fill:none;stroke:#000000;stroke-linecap:square;stroke-linejoin:miter;stroke-width:0.8;"/>
   </g>
   <g id="legend_1">
    <g id="patch_7">
     <path d="M 57.55 141.639062 
L 148.35 141.639062 
Q 150.35 141.639062 150.35 139.639062 
L 150.35 77.360937 
Q 150.35 75.360937 148.35 75.360937 
L 57.55 75.360937 
Q 55.55 75.360937 55.55 77.360937 
L 55.55 139.639062 
Q 55.55 141.639062 57.55 141.639062 
z
" style="fill:#ffffff;opacity:0.8;stroke:#cccccc;stroke-linejoin:miter;"/>
    </g>
    <g id="line2d_21">
     <path d="M 59.55 83.459375 
L 79.55 83.459375 
" style="fill:none;stroke:#808080;stroke-linecap:square;stroke-width:1.5;"/>
    </g>
    <g id="line2d_22"/>
    <g id="text_15">
     <!-- Driest -->
     <defs>
      <path d="M 19.671875 64.796875 
L 19.671875 8.109375 
L 31.59375 8.109375 
Q 46.6875 8.109375 53.6875 14.9375 
Q 60.6875 21.78125 60.6875 36.53125 
Q 60.6875 51.171875 53.6875 57.984375 
Q 46.6875 64.796875 31.59375 64.796875 
z
M 9.8125 72.90625 
L 30.078125 72.90625 
Q 51.265625 72.90625 61.171875 64.09375 
Q 71.09375 55.28125 71.09375 36.53125 
Q 71.09375 17.671875 61.125 8.828125 
Q 51.171875 0 30.078125 0 
L 9.8125 0 
z
" id="DejaVuSans-68"/>
      <path d="M 41.109375 46.296875 
Q 39.59375 47.171875 37.8125 47.578125 
Q 36.03125 48 33.890625 48 
Q 26.265625 48 22.1875 43.046875 
Q 18.109375 38.09375 18.109375 28.8125 
L 18.109375 0 
L 9.078125 0 
L 9.078125 54.6875 
L 18.109375 54.6875 
L 18.109375 46.1875 
Q 20.953125 51.171875 25.484375 53.578125 
Q 30.03125 56 36.53125 56 
Q 37.453125 56 38.578125 55.875 
Q 39.703125 55.765625 41.0625 55.515625 
z
" id="DejaVuSans-114"/>
     </defs>
     <g transform="translate(87.55 86.959375)scale(0.1 -0.1)">
      <use xlink:href="#DejaVuSans-68"/>
      <use x="77.001953" xlink:href="#DejaVuSans-114"/>
      <use x="118.115234" xlink:href="#DejaVuSans-105"/>
      <use x="145.898438" xlink:href="#DejaVuSans-101"/>
      <use x="207.421875" xlink:href="#DejaVuSans-115"/>
      <use x="259.521484" xlink:href="#DejaVuSans-116"/>
     </g>
    </g>
    <g id="line2d_23">
     <path d="M 59.55 98.839062 
L 79.55 98.839062 
" style="fill:none;stroke:#0000ff;stroke-linecap:square;stroke-width:1.5;"/>
    </g>
    <g id="line2d_24"/>
    <g id="text_16">
     <!-- $k_s^+$ = 7.51 -->
     <defs>
      <path d="M 18.3125 75.984375 
L 27.296875 75.984375 
L 18.703125 31.6875 
L 49.515625 54.6875 
L 61.1875 54.6875 
L 26.8125 28.515625 
L 51.90625 0 
L 41.015625 0 
L 17.671875 26.703125 
L 12.5 0 
L 3.515625 0 
z
" id="DejaVuSans-Oblique-107"/>
      <path d="M 46 62.703125 
L 46 35.5 
L 73.1875 35.5 
L 73.1875 27.203125 
L 46 27.203125 
L 46 0 
L 37.796875 0 
L 37.796875 27.203125 
L 10.59375 27.203125 
L 10.59375 35.5 
L 37.796875 35.5 
L 37.796875 62.703125 
z
" id="DejaVuSans-43"/>
      <path d="M 50 53.078125 
L 48.296875 44.578125 
Q 44.734375 46.53125 40.765625 47.5 
Q 36.8125 48.484375 32.625 48.484375 
Q 25.53125 48.484375 21.453125 46.0625 
Q 17.390625 43.65625 17.390625 39.5 
Q 17.390625 34.671875 26.859375 32.078125 
Q 27.59375 31.890625 27.9375 31.78125 
L 30.8125 30.90625 
Q 39.796875 28.421875 42.796875 25.6875 
Q 45.796875 22.953125 45.796875 18.21875 
Q 45.796875 9.515625 38.890625 4.046875 
Q 31.984375 -1.421875 20.796875 -1.421875 
Q 16.453125 -1.421875 11.671875 -0.578125 
Q 6.890625 0.25 1.125 2 
L 2.875 11.28125 
Q 7.8125 8.734375 12.59375 7.421875 
Q 17.390625 6.109375 21.78125 6.109375 
Q 28.375 6.109375 32.5 8.9375 
Q 36.625 11.765625 36.625 16.109375 
Q 36.625 20.796875 25.78125 23.6875 
L 24.859375 23.921875 
L 21.78125 24.703125 
Q 14.9375 26.515625 11.765625 29.46875 
Q 8.59375 32.421875 8.59375 37.015625 
Q 8.59375 45.75 15.15625 50.875 
Q 21.734375 56 33.015625 56 
Q 37.453125 56 41.671875 55.265625 
Q 45.90625 54.546875 50 53.078125 
z
" id="DejaVuSans-Oblique-115"/>
      <path d="M 10.59375 45.40625 
L 73.1875 45.40625 
L 73.1875 37.203125 
L 10.59375 37.203125 
z
M 10.59375 25.484375 
L 73.1875 25.484375 
L 73.1875 17.1875 
L 10.59375 17.1875 
z
" id="DejaVuSans-61"/>
      <path d="M 8.203125 72.90625 
L 55.078125 72.90625 
L 55.078125 68.703125 
L 28.609375 0 
L 18.3125 0 
L 43.21875 64.59375 
L 8.203125 64.59375 
z
" id="DejaVuSans-55"/>
     </defs>
     <g transform="translate(87.55 102.339062)scale(0.1 -0.1)">
      <use transform="translate(0 0.826562)" xlink:href="#DejaVuSans-Oblique-107"/>
      <use transform="translate(78.99556 39.107813)scale(0.7)" xlink:href="#DejaVuSans-43"/>
      <use transform="translate(57.910156 -26.517188)scale(0.7)" xlink:href="#DejaVuSans-Oblique-115"/>
      <use transform="translate(154.019974 0.826562)" xlink:href="#DejaVuSans-32"/>
      <use transform="translate(185.807083 0.826562)" xlink:href="#DejaVuSans-61"/>
      <use transform="translate(269.596146 0.826562)" xlink:href="#DejaVuSans-32"/>
      <use transform="translate(301.383255 0.826562)" xlink:href="#DejaVuSans-55"/>
      <use transform="translate(365.006302 0.826562)" xlink:href="#DejaVuSans-46"/>
      <use transform="translate(396.793411 0.826562)" xlink:href="#DejaVuSans-53"/>
      <use transform="translate(460.416458 0.826562)" xlink:href="#DejaVuSans-49"/>
     </g>
    </g>
    <g id="line2d_25">
     <path d="M 59.55 115.039062 
L 79.55 115.039062 
" style="fill:none;stroke:#ffa500;stroke-linecap:square;stroke-width:1.5;"/>
    </g>
    <g id="line2d_26"/>
    <g id="text_17">
     <!-- $k_s^+$ = 26.91 -->
     <defs>
      <path d="M 33.015625 40.375 
Q 26.375 40.375 22.484375 35.828125 
Q 18.609375 31.296875 18.609375 23.390625 
Q 18.609375 15.53125 22.484375 10.953125 
Q 26.375 6.390625 33.015625 6.390625 
Q 39.65625 6.390625 43.53125 10.953125 
Q 47.40625 15.53125 47.40625 23.390625 
Q 47.40625 31.296875 43.53125 35.828125 
Q 39.65625 40.375 33.015625 40.375 
z
M 52.59375 71.296875 
L 52.59375 62.3125 
Q 48.875 64.0625 45.09375 64.984375 
Q 41.3125 65.921875 37.59375 65.921875 
Q 27.828125 65.921875 22.671875 59.328125 
Q 17.53125 52.734375 16.796875 39.40625 
Q 19.671875 43.65625 24.015625 45.921875 
Q 28.375 48.1875 33.59375 48.1875 
Q 44.578125 48.1875 50.953125 41.515625 
Q 57.328125 34.859375 57.328125 23.390625 
Q 57.328125 12.15625 50.6875 5.359375 
Q 44.046875 -1.421875 33.015625 -1.421875 
Q 20.359375 -1.421875 13.671875 8.265625 
Q 6.984375 17.96875 6.984375 36.375 
Q 6.984375 53.65625 15.1875 63.9375 
Q 23.390625 74.21875 37.203125 74.21875 
Q 40.921875 74.21875 44.703125 73.484375 
Q 48.484375 72.75 52.59375 71.296875 
z
" id="DejaVuSans-54"/>
      <path d="M 10.984375 1.515625 
L 10.984375 10.5 
Q 14.703125 8.734375 18.5 7.8125 
Q 22.3125 6.890625 25.984375 6.890625 
Q 35.75 6.890625 40.890625 13.453125 
Q 46.046875 20.015625 46.78125 33.40625 
Q 43.953125 29.203125 39.59375 26.953125 
Q 35.25 24.703125 29.984375 24.703125 
Q 19.046875 24.703125 12.671875 31.3125 
Q 6.296875 37.9375 6.296875 49.421875 
Q 6.296875 60.640625 12.9375 67.421875 
Q 19.578125 74.21875 30.609375 74.21875 
Q 43.265625 74.21875 49.921875 64.515625 
Q 56.59375 54.828125 56.59375 36.375 
Q 56.59375 19.140625 48.40625 8.859375 
Q 40.234375 -1.421875 26.421875 -1.421875 
Q 22.703125 -1.421875 18.890625 -0.6875 
Q 15.09375 0.046875 10.984375 1.515625 
z
M 30.609375 32.421875 
Q 37.25 32.421875 41.125 36.953125 
Q 45.015625 41.5 45.015625 49.421875 
Q 45.015625 57.28125 41.125 61.84375 
Q 37.25 66.40625 30.609375 66.40625 
Q 23.96875 66.40625 20.09375 61.84375 
Q 16.21875 57.28125 16.21875 49.421875 
Q 16.21875 41.5 20.09375 36.953125 
Q 23.96875 32.421875 30.609375 32.421875 
z
" id="DejaVuSans-57"/>
     </defs>
     <g transform="translate(87.55 118.539062)scale(0.1 -0.1)">
      <use transform="translate(0 0.826562)" xlink:href="#DejaVuSans-Oblique-107"/>
      <use transform="translate(78.99556 39.107813)scale(0.7)" xlink:href="#DejaVuSans-43"/>
      <use transform="translate(57.910156 -26.517188)scale(0.7)" xlink:href="#DejaVuSans-Oblique-115"/>
      <use transform="translate(154.019974 0.826562)" xlink:href="#DejaVuSans-32"/>
      <use transform="translate(185.807083 0.826562)" xlink:href="#DejaVuSans-61"/>
      <use transform="translate(269.596146 0.826562)" xlink:href="#DejaVuSans-32"/>
      <use transform="translate(301.383255 0.826562)" xlink:href="#DejaVuSans-50"/>
      <use transform="translate(365.006302 0.826562)" xlink:href="#DejaVuSans-54"/>
      <use transform="translate(428.629349 0.826562)" xlink:href="#DejaVuSans-46"/>
      <use transform="translate(460.416458 0.826562)" xlink:href="#DejaVuSans-57"/>
      <use transform="translate(524.039505 0.826562)" xlink:href="#DejaVuSans-49"/>
     </g>
    </g>
    <g id="line2d_27">
     <path d="M 59.55 131.239062 
L 79.55 131.239062 
" style="fill:none;stroke:#008000;stroke-linecap:square;stroke-width:1.5;"/>
    </g>
    <g id="line2d_28"/>
    <g id="text_18">
     <!-- $k_s^+$ = 38.88 -->
     <defs>
      <path d="M 31.78125 34.625 
Q 24.75 34.625 20.71875 30.859375 
Q 16.703125 27.09375 16.703125 20.515625 
Q 16.703125 13.921875 20.71875 10.15625 
Q 24.75 6.390625 31.78125 6.390625 
Q 38.8125 6.390625 42.859375 10.171875 
Q 46.921875 13.96875 46.921875 20.515625 
Q 46.921875 27.09375 42.890625 30.859375 
Q 38.875 34.625 31.78125 34.625 
z
M 21.921875 38.8125 
Q 15.578125 40.375 12.03125 44.71875 
Q 8.5 49.078125 8.5 55.328125 
Q 8.5 64.0625 14.71875 69.140625 
Q 20.953125 74.21875 31.78125 74.21875 
Q 42.671875 74.21875 48.875 69.140625 
Q 55.078125 64.0625 55.078125 55.328125 
Q 55.078125 49.078125 51.53125 44.71875 
Q 48 40.375 41.703125 38.8125 
Q 48.828125 37.15625 52.796875 32.3125 
Q 56.78125 27.484375 56.78125 20.515625 
Q 56.78125 9.90625 50.3125 4.234375 
Q 43.84375 -1.421875 31.78125 -1.421875 
Q 19.734375 -1.421875 13.25 4.234375 
Q 6.78125 9.90625 6.78125 20.515625 
Q 6.78125 27.484375 10.78125 32.3125 
Q 14.796875 37.15625 21.921875 38.8125 
z
M 18.3125 54.390625 
Q 18.3125 48.734375 21.84375 45.5625 
Q 25.390625 42.390625 31.78125 42.390625 
Q 38.140625 42.390625 41.71875 45.5625 
Q 45.3125 48.734375 45.3125 54.390625 
Q 45.3125 60.0625 41.71875 63.234375 
Q 38.140625 66.40625 31.78125 66.40625 
Q 25.390625 66.40625 21.84375 63.234375 
Q 18.3125 60.0625 18.3125 54.390625 
z
" id="DejaVuSans-56"/>
     </defs>
     <g transform="translate(87.55 134.739062)scale(0.1 -0.1)">
      <use transform="translate(0 0.826562)" xlink:href="#DejaVuSans-Oblique-107"/>
      <use transform="translate(78.99556 39.107813)scale(0.7)" xlink:href="#DejaVuSans-43"/>
      <use transform="translate(57.910156 -26.517188)scale(0.7)" xlink:href="#DejaVuSans-Oblique-115"/>
      <use transform="translate(154.019974 0.826562)" xlink:href="#DejaVuSans-32"/>
      <use transform="translate(185.807083 0.826562)" xlink:href="#DejaVuSans-61"/>
      <use transform="translate(269.596146 0.826562)" xlink:href="#DejaVuSans-32"/>
      <use transform="translate(301.383255 0.826562)" xlink:href="#DejaVuSans-51"/>
      <use transform="translate(365.006302 0.826562)" xlink:href="#DejaVuSans-56"/>
      <use transform="translate(428.629349 0.826562)" xlink:href="#DejaVuSans-46"/>
      <use transform="translate(457.791458 0.826562)" xlink:href="#DejaVuSans-56"/>
      <use transform="translate(521.414505 0.826562)" xlink:href="#DejaVuSans-56"/>
     </g>
    </g>
   </g>
  </g>
 </g>
 <defs>
  <clipPath id="p0be1f67547">
   <rect height="195.4" width="223.883171" x="50.55" y="10.8"/>
  </clipPath>
 </defs>
</svg>
