<?xml version="1.0" encoding="utf-8" standalone="no"?>
<!DOCTYPE svg PUBLIC "-//W3C//DTD SVG 1.1//EN"
  "http://www.w3.org/Graphics/SVG/1.1/DTD/svg11.dtd">
<!-- Created with matplotlib (https://matplotlib.org/) -->
<svg height="252pt" version="1.1" viewBox="0 0 432 252" width="432pt" xmlns="http://www.w3.org/2000/svg" xmlns:xlink="http://www.w3.org/1999/xlink">
 <defs>
  <style type="text/css">
*{stroke-linecap:butt;stroke-linejoin:round;}
  </style>
 </defs>
 <g id="figure_1">
  <g id="patch_1">
   <path d="M 0 252 
L 432 252 
L 432 0 
L 0 0 
z
" style="fill:#ffffff;"/>
  </g>
  <g id="axes_1">
   <g id="patch_2">
    <path d="M 50.55 206.2 
L 421.2 206.2 
L 421.2 10.8 
L 50.55 10.8 
z
" style="fill:#ffffff;"/>
   </g>
   <g id="matplotlib.axis_1">
    <g id="xtick_1">
     <g id="line2d_1">
      <defs>
       <path d="M 0 0 
L 0 3.5 
" id="mfea850e3f2" style="stroke:#000000;stroke-width:0.8;"/>
      </defs>
      <g>
       <use style="stroke:#000000;stroke-width:0.8;" x="67.615118" xlink:href="#mfea850e3f2" y="206.2"/>
      </g>
     </g>
     <g id="text_1">
      <!-- 0.00 -->
      <defs>
       <path d="M 31.78125 66.40625 
Q 24.171875 66.40625 20.328125 58.90625 
Q 16.5 51.421875 16.5 36.375 
Q 16.5 21.390625 20.328125 13.890625 
Q 24.171875 6.390625 31.78125 6.390625 
Q 39.453125 6.390625 43.28125 13.890625 
Q 47.125 21.390625 47.125 36.375 
Q 47.125 51.421875 43.28125 58.90625 
Q 39.453125 66.40625 31.78125 66.40625 
z
M 31.78125 74.21875 
Q 44.046875 74.21875 50.515625 64.515625 
Q 56.984375 54.828125 56.984375 36.375 
Q 56.984375 17.96875 50.515625 8.265625 
Q 44.046875 -1.421875 31.78125 -1.421875 
Q 19.53125 -1.421875 13.0625 8.265625 
Q 6.59375 17.96875 6.59375 36.375 
Q 6.59375 54.828125 13.0625 64.515625 
Q 19.53125 74.21875 31.78125 74.21875 
z
" id="DejaVuSans-48"/>
       <path d="M 10.6875 12.40625 
L 21 12.40625 
L 21 0 
L 10.6875 0 
z
" id="DejaVuSans-46"/>
      </defs>
      <g transform="translate(56.482305 220.798438)scale(0.1 -0.1)">
       <use xlink:href="#DejaVuSans-48"/>
       <use x="63.623047" xlink:href="#DejaVuSans-46"/>
       <use x="95.410156" xlink:href="#DejaVuSans-48"/>
       <use x="159.033203" xlink:href="#DejaVuSans-48"/>
      </g>
     </g>
    </g>
    <g id="xtick_2">
     <g id="line2d_2">
      <g>
       <use style="stroke:#000000;stroke-width:0.8;" x="124.215345" xlink:href="#mfea850e3f2" y="206.2"/>
      </g>
     </g>
     <g id="text_2">
      <!-- 0.05 -->
      <defs>
       <path d="M 10.796875 72.90625 
L 49.515625 72.90625 
L 49.515625 64.59375 
L 19.828125 64.59375 
L 19.828125 46.734375 
Q 21.96875 47.46875 24.109375 47.828125 
Q 26.265625 48.1875 28.421875 48.1875 
Q 40.625 48.1875 47.75 41.5 
Q 54.890625 34.8125 54.890625 23.390625 
Q 54.890625 11.625 47.5625 5.09375 
Q 40.234375 -1.421875 26.90625 -1.421875 
Q 22.3125 -1.421875 17.546875 -0.640625 
Q 12.796875 0.140625 7.71875 1.703125 
L 7.71875 11.625 
Q 12.109375 9.234375 16.796875 8.0625 
Q 21.484375 6.890625 26.703125 6.890625 
Q 35.15625 6.890625 40.078125 11.328125 
Q 45.015625 15.765625 45.015625 23.390625 
Q 45.015625 31 40.078125 35.4375 
Q 35.15625 39.890625 26.703125 39.890625 
Q 22.75 39.890625 18.8125 39.015625 
Q 14.890625 38.140625 10.796875 36.28125 
z
" id="DejaVuSans-53"/>
      </defs>
      <g transform="translate(113.082532 220.798438)scale(0.1 -0.1)">
       <use xlink:href="#DejaVuSans-48"/>
       <use x="63.623047" xlink:href="#DejaVuSans-46"/>
       <use x="95.410156" xlink:href="#DejaVuSans-48"/>
       <use x="159.033203" xlink:href="#DejaVuSans-53"/>
      </g>
     </g>
    </g>
    <g id="xtick_3">
     <g id="line2d_3">
      <g>
       <use style="stroke:#000000;stroke-width:0.8;" x="180.815572" xlink:href="#mfea850e3f2" y="206.2"/>
      </g>
     </g>
     <g id="text_3">
      <!-- 0.10 -->
      <defs>
       <path d="M 12.40625 8.296875 
L 28.515625 8.296875 
L 28.515625 63.921875 
L 10.984375 60.40625 
L 10.984375 69.390625 
L 28.421875 72.90625 
L 38.28125 72.90625 
L 38.28125 8.296875 
L 54.390625 8.296875 
L 54.390625 0 
L 12.40625 0 
z
" id="DejaVuSans-49"/>
      </defs>
      <g transform="translate(169.682759 220.798438)scale(0.1 -0.1)">
       <use xlink:href="#DejaVuSans-48"/>
       <use x="63.623047" xlink:href="#DejaVuSans-46"/>
       <use x="95.410156" xlink:href="#DejaVuSans-49"/>
       <use x="159.033203" xlink:href="#DejaVuSans-48"/>
      </g>
     </g>
    </g>
    <g id="xtick_4">
     <g id="line2d_4">
      <g>
       <use style="stroke:#000000;stroke-width:0.8;" x="237.415799" xlink:href="#mfea850e3f2" y="206.2"/>
      </g>
     </g>
     <g id="text_4">
      <!-- 0.15 -->
      <g transform="translate(226.282986 220.798438)scale(0.1 -0.1)">
       <use xlink:href="#DejaVuSans-48"/>
       <use x="63.623047" xlink:href="#DejaVuSans-46"/>
       <use x="95.410156" xlink:href="#DejaVuSans-49"/>
       <use x="159.033203" xlink:href="#DejaVuSans-53"/>
      </g>
     </g>
    </g>
    <g id="xtick_5">
     <g id="line2d_5">
      <g>
       <use style="stroke:#000000;stroke-width:0.8;" x="294.016026" xlink:href="#mfea850e3f2" y="206.2"/>
      </g>
     </g>
     <g id="text_5">
      <!-- 0.20 -->
      <defs>
       <path d="M 19.1875 8.296875 
L 53.609375 8.296875 
L 53.609375 0 
L 7.328125 0 
L 7.328125 8.296875 
Q 12.9375 14.109375 22.625 23.890625 
Q 32.328125 33.6875 34.8125 36.53125 
Q 39.546875 41.84375 41.421875 45.53125 
Q 43.3125 49.21875 43.3125 52.78125 
Q 43.3125 58.59375 39.234375 62.25 
Q 35.15625 65.921875 28.609375 65.921875 
Q 23.96875 65.921875 18.8125 64.3125 
Q 13.671875 62.703125 7.8125 59.421875 
L 7.8125 69.390625 
Q 13.765625 71.78125 18.9375 73 
Q 24.125 74.21875 28.421875 74.21875 
Q 39.75 74.21875 46.484375 68.546875 
Q 53.21875 62.890625 53.21875 53.421875 
Q 53.21875 48.921875 51.53125 44.890625 
Q 49.859375 40.875 45.40625 35.40625 
Q 44.1875 33.984375 37.640625 27.21875 
Q 31.109375 20.453125 19.1875 8.296875 
z
" id="DejaVuSans-50"/>
      </defs>
      <g transform="translate(282.883213 220.798438)scale(0.1 -0.1)">
       <use xlink:href="#DejaVuSans-48"/>
       <use x="63.623047" xlink:href="#DejaVuSans-46"/>
       <use x="95.410156" xlink:href="#DejaVuSans-50"/>
       <use x="159.033203" xlink:href="#DejaVuSans-48"/>
      </g>
     </g>
    </g>
    <g id="xtick_6">
     <g id="line2d_6">
      <g>
       <use style="stroke:#000000;stroke-width:0.8;" x="350.616253" xlink:href="#mfea850e3f2" y="206.2"/>
      </g>
     </g>
     <g id="text_6">
      <!-- 0.25 -->
      <g transform="translate(339.48344 220.798438)scale(0.1 -0.1)">
       <use xlink:href="#DejaVuSans-48"/>
       <use x="63.623047" xlink:href="#DejaVuSans-46"/>
       <use x="95.410156" xlink:href="#DejaVuSans-50"/>
       <use x="159.033203" xlink:href="#DejaVuSans-53"/>
      </g>
     </g>
    </g>
    <g id="xtick_7">
     <g id="line2d_7">
      <g>
       <use style="stroke:#000000;stroke-width:0.8;" x="407.21648" xlink:href="#mfea850e3f2" y="206.2"/>
      </g>
     </g>
     <g id="text_7">
      <!-- 0.30 -->
      <defs>
       <path d="M 40.578125 39.3125 
Q 47.65625 37.796875 51.625 33 
Q 55.609375 28.21875 55.609375 21.1875 
Q 55.609375 10.40625 48.1875 4.484375 
Q 40.765625 -1.421875 27.09375 -1.421875 
Q 22.515625 -1.421875 17.65625 -0.515625 
Q 12.796875 0.390625 7.625 2.203125 
L 7.625 11.71875 
Q 11.71875 9.328125 16.59375 8.109375 
Q 21.484375 6.890625 26.8125 6.890625 
Q 36.078125 6.890625 40.9375 10.546875 
Q 45.796875 14.203125 45.796875 21.1875 
Q 45.796875 27.640625 41.28125 31.265625 
Q 36.765625 34.90625 28.71875 34.90625 
L 20.21875 34.90625 
L 20.21875 43.015625 
L 29.109375 43.015625 
Q 36.375 43.015625 40.234375 45.921875 
Q 44.09375 48.828125 44.09375 54.296875 
Q 44.09375 59.90625 40.109375 62.90625 
Q 36.140625 65.921875 28.71875 65.921875 
Q 24.65625 65.921875 20.015625 65.03125 
Q 15.375 64.15625 9.8125 62.3125 
L 9.8125 71.09375 
Q 15.4375 72.65625 20.34375 73.4375 
Q 25.25 74.21875 29.59375 74.21875 
Q 40.828125 74.21875 47.359375 69.109375 
Q 53.90625 64.015625 53.90625 55.328125 
Q 53.90625 49.265625 50.4375 45.09375 
Q 46.96875 40.921875 40.578125 39.3125 
z
" id="DejaVuSans-51"/>
      </defs>
      <g transform="translate(396.083667 220.798438)scale(0.1 -0.1)">
       <use xlink:href="#DejaVuSans-48"/>
       <use x="63.623047" xlink:href="#DejaVuSans-46"/>
       <use x="95.410156" xlink:href="#DejaVuSans-51"/>
       <use x="159.033203" xlink:href="#DejaVuSans-48"/>
      </g>
     </g>
    </g>
    <g id="text_8">
     <!-- Velocity [m/s] -->
     <defs>
      <path d="M 28.609375 0 
L 0.78125 72.90625 
L 11.078125 72.90625 
L 34.1875 11.53125 
L 57.328125 72.90625 
L 67.578125 72.90625 
L 39.796875 0 
z
" id="DejaVuSans-86"/>
      <path d="M 56.203125 29.59375 
L 56.203125 25.203125 
L 14.890625 25.203125 
Q 15.484375 15.921875 20.484375 11.0625 
Q 25.484375 6.203125 34.421875 6.203125 
Q 39.59375 6.203125 44.453125 7.46875 
Q 49.3125 8.734375 54.109375 11.28125 
L 54.109375 2.78125 
Q 49.265625 0.734375 44.1875 -0.34375 
Q 39.109375 -1.421875 33.890625 -1.421875 
Q 20.796875 -1.421875 13.15625 6.1875 
Q 5.515625 13.8125 5.515625 26.8125 
Q 5.515625 40.234375 12.765625 48.109375 
Q 20.015625 56 32.328125 56 
Q 43.359375 56 49.78125 48.890625 
Q 56.203125 41.796875 56.203125 29.59375 
z
M 47.21875 32.234375 
Q 47.125 39.59375 43.09375 43.984375 
Q 39.0625 48.390625 32.421875 48.390625 
Q 24.90625 48.390625 20.390625 44.140625 
Q 15.875 39.890625 15.1875 32.171875 
z
" id="DejaVuSans-101"/>
      <path d="M 9.421875 75.984375 
L 18.40625 75.984375 
L 18.40625 0 
L 9.421875 0 
z
" id="DejaVuSans-108"/>
      <path d="M 30.609375 48.390625 
Q 23.390625 48.390625 19.1875 42.75 
Q 14.984375 37.109375 14.984375 27.296875 
Q 14.984375 17.484375 19.15625 11.84375 
Q 23.34375 6.203125 30.609375 6.203125 
Q 37.796875 6.203125 41.984375 11.859375 
Q 46.1875 17.53125 46.1875 27.296875 
Q 46.1875 37.015625 41.984375 42.703125 
Q 37.796875 48.390625 30.609375 48.390625 
z
M 30.609375 56 
Q 42.328125 56 49.015625 48.375 
Q 55.71875 40.765625 55.71875 27.296875 
Q 55.71875 13.875 49.015625 6.21875 
Q 42.328125 -1.421875 30.609375 -1.421875 
Q 18.84375 -1.421875 12.171875 6.21875 
Q 5.515625 13.875 5.515625 27.296875 
Q 5.515625 40.765625 12.171875 48.375 
Q 18.84375 56 30.609375 56 
z
" id="DejaVuSans-111"/>
      <path d="M 48.78125 52.59375 
L 48.78125 44.1875 
Q 44.96875 46.296875 41.140625 47.34375 
Q 37.3125 48.390625 33.40625 48.390625 
Q 24.65625 48.390625 19.8125 42.84375 
Q 14.984375 37.3125 14.984375 27.296875 
Q 14.984375 17.28125 19.8125 11.734375 
Q 24.65625 6.203125 33.40625 6.203125 
Q 37.3125 6.203125 41.140625 7.25 
Q 44.96875 8.296875 48.78125 10.40625 
L 48.78125 2.09375 
Q 45.015625 0.34375 40.984375 -0.53125 
Q 36.96875 -1.421875 32.421875 -1.421875 
Q 20.0625 -1.421875 12.78125 6.34375 
Q 5.515625 14.109375 5.515625 27.296875 
Q 5.515625 40.671875 12.859375 48.328125 
Q 20.21875 56 33.015625 56 
Q 37.15625 56 41.109375 55.140625 
Q 45.0625 54.296875 48.78125 52.59375 
z
" id="DejaVuSans-99"/>
      <path d="M 9.421875 54.6875 
L 18.40625 54.6875 
L 18.40625 0 
L 9.421875 0 
z
M 9.421875 75.984375 
L 18.40625 75.984375 
L 18.40625 64.59375 
L 9.421875 64.59375 
z
" id="DejaVuSans-105"/>
      <path d="M 18.3125 70.21875 
L 18.3125 54.6875 
L 36.8125 54.6875 
L 36.8125 47.703125 
L 18.3125 47.703125 
L 18.3125 18.015625 
Q 18.3125 11.328125 20.140625 9.421875 
Q 21.96875 7.515625 27.59375 7.515625 
L 36.8125 7.515625 
L 36.8125 0 
L 27.59375 0 
Q 17.1875 0 13.234375 3.875 
Q 9.28125 7.765625 9.28125 18.015625 
L 9.28125 47.703125 
L 2.6875 47.703125 
L 2.6875 54.6875 
L 9.28125 54.6875 
L 9.28125 70.21875 
z
" id="DejaVuSans-116"/>
      <path d="M 32.171875 -5.078125 
Q 28.375 -14.84375 24.75 -17.8125 
Q 21.140625 -20.796875 15.09375 -20.796875 
L 7.90625 -20.796875 
L 7.90625 -13.28125 
L 13.1875 -13.28125 
Q 16.890625 -13.28125 18.9375 -11.515625 
Q 21 -9.765625 23.484375 -3.21875 
L 25.09375 0.875 
L 2.984375 54.6875 
L 12.5 54.6875 
L 29.59375 11.921875 
L 46.6875 54.6875 
L 56.203125 54.6875 
z
" id="DejaVuSans-121"/>
      <path id="DejaVuSans-32"/>
      <path d="M 8.59375 75.984375 
L 29.296875 75.984375 
L 29.296875 69 
L 17.578125 69 
L 17.578125 -6.203125 
L 29.296875 -6.203125 
L 29.296875 -13.1875 
L 8.59375 -13.1875 
z
" id="DejaVuSans-91"/>
      <path d="M 52 44.1875 
Q 55.375 50.25 60.0625 53.125 
Q 64.75 56 71.09375 56 
Q 79.640625 56 84.28125 50.015625 
Q 88.921875 44.046875 88.921875 33.015625 
L 88.921875 0 
L 79.890625 0 
L 79.890625 32.71875 
Q 79.890625 40.578125 77.09375 44.375 
Q 74.3125 48.1875 68.609375 48.1875 
Q 61.625 48.1875 57.5625 43.546875 
Q 53.515625 38.921875 53.515625 30.90625 
L 53.515625 0 
L 44.484375 0 
L 44.484375 32.71875 
Q 44.484375 40.625 41.703125 44.40625 
Q 38.921875 48.1875 33.109375 48.1875 
Q 26.21875 48.1875 22.15625 43.53125 
Q 18.109375 38.875 18.109375 30.90625 
L 18.109375 0 
L 9.078125 0 
L 9.078125 54.6875 
L 18.109375 54.6875 
L 18.109375 46.1875 
Q 21.1875 51.21875 25.484375 53.609375 
Q 29.78125 56 35.6875 56 
Q 41.65625 56 45.828125 52.96875 
Q 50 49.953125 52 44.1875 
z
" id="DejaVuSans-109"/>
      <path d="M 25.390625 72.90625 
L 33.6875 72.90625 
L 8.296875 -9.28125 
L 0 -9.28125 
z
" id="DejaVuSans-47"/>
      <path d="M 44.28125 53.078125 
L 44.28125 44.578125 
Q 40.484375 46.53125 36.375 47.5 
Q 32.28125 48.484375 27.875 48.484375 
Q 21.1875 48.484375 17.84375 46.4375 
Q 14.5 44.390625 14.5 40.28125 
Q 14.5 37.15625 16.890625 35.375 
Q 19.28125 33.59375 26.515625 31.984375 
L 29.59375 31.296875 
Q 39.15625 29.25 43.1875 25.515625 
Q 47.21875 21.78125 47.21875 15.09375 
Q 47.21875 7.46875 41.1875 3.015625 
Q 35.15625 -1.421875 24.609375 -1.421875 
Q 20.21875 -1.421875 15.453125 -0.5625 
Q 10.6875 0.296875 5.421875 2 
L 5.421875 11.28125 
Q 10.40625 8.6875 15.234375 7.390625 
Q 20.0625 6.109375 24.8125 6.109375 
Q 31.15625 6.109375 34.5625 8.28125 
Q 37.984375 10.453125 37.984375 14.40625 
Q 37.984375 18.0625 35.515625 20.015625 
Q 33.0625 21.96875 24.703125 23.78125 
L 21.578125 24.515625 
Q 13.234375 26.265625 9.515625 29.90625 
Q 5.8125 33.546875 5.8125 39.890625 
Q 5.8125 47.609375 11.28125 51.796875 
Q 16.75 56 26.8125 56 
Q 31.78125 56 36.171875 55.265625 
Q 40.578125 54.546875 44.28125 53.078125 
z
" id="DejaVuSans-115"/>
      <path d="M 30.421875 75.984375 
L 30.421875 -13.1875 
L 9.71875 -13.1875 
L 9.71875 -6.203125 
L 21.390625 -6.203125 
L 21.390625 69 
L 9.71875 69 
L 9.71875 75.984375 
z
" id="DejaVuSans-93"/>
     </defs>
     <g transform="translate(187.903125 237.515938)scale(0.14 -0.14)">
      <use xlink:href="#DejaVuSans-86"/>
      <use x="60.658203" xlink:href="#DejaVuSans-101"/>
      <use x="122.181641" xlink:href="#DejaVuSans-108"/>
      <use x="149.964844" xlink:href="#DejaVuSans-111"/>
      <use x="211.146484" xlink:href="#DejaVuSans-99"/>
      <use x="266.126953" xlink:href="#DejaVuSans-105"/>
      <use x="293.910156" xlink:href="#DejaVuSans-116"/>
      <use x="333.119141" xlink:href="#DejaVuSans-121"/>
      <use x="392.298828" xlink:href="#DejaVuSans-32"/>
      <use x="424.085938" xlink:href="#DejaVuSans-91"/>
      <use x="463.099609" xlink:href="#DejaVuSans-109"/>
      <use x="560.511719" xlink:href="#DejaVuSans-47"/>
      <use x="594.203125" xlink:href="#DejaVuSans-115"/>
      <use x="646.302734" xlink:href="#DejaVuSans-93"/>
     </g>
    </g>
   </g>
   <g id="matplotlib.axis_2">
    <g id="ytick_1">
     <g id="line2d_8">
      <defs>
       <path d="M 0 0 
L -3.5 0 
" id="ma31964bae7" style="stroke:#000000;stroke-width:0.8;"/>
      </defs>
      <g>
       <use style="stroke:#000000;stroke-width:0.8;" x="50.55" xlink:href="#ma31964bae7" y="179.625671"/>
      </g>
     </g>
     <g id="text_9">
      <!-- −2 -->
      <defs>
       <path d="M 10.59375 35.5 
L 73.1875 35.5 
L 73.1875 27.203125 
L 10.59375 27.203125 
z
" id="DejaVuSans-8722"/>
      </defs>
      <g transform="translate(28.807813 183.42489)scale(0.1 -0.1)">
       <use xlink:href="#DejaVuSans-8722"/>
       <use x="83.789062" xlink:href="#DejaVuSans-50"/>
      </g>
     </g>
    </g>
    <g id="ytick_2">
     <g id="line2d_9">
      <g>
       <use style="stroke:#000000;stroke-width:0.8;" x="50.55" xlink:href="#ma31964bae7" y="144.062836"/>
      </g>
     </g>
     <g id="text_10">
      <!-- −1 -->
      <g transform="translate(28.807813 147.862054)scale(0.1 -0.1)">
       <use xlink:href="#DejaVuSans-8722"/>
       <use x="83.789062" xlink:href="#DejaVuSans-49"/>
      </g>
     </g>
    </g>
    <g id="ytick_3">
     <g id="line2d_10">
      <g>
       <use style="stroke:#000000;stroke-width:0.8;" x="50.55" xlink:href="#ma31964bae7" y="108.5"/>
      </g>
     </g>
     <g id="text_11">
      <!-- 0 -->
      <g transform="translate(37.1875 112.299219)scale(0.1 -0.1)">
       <use xlink:href="#DejaVuSans-48"/>
      </g>
     </g>
    </g>
    <g id="ytick_4">
     <g id="line2d_11">
      <g>
       <use style="stroke:#000000;stroke-width:0.8;" x="50.55" xlink:href="#ma31964bae7" y="72.937164"/>
      </g>
     </g>
     <g id="text_12">
      <!-- 1 -->
      <g transform="translate(37.1875 76.736383)scale(0.1 -0.1)">
       <use xlink:href="#DejaVuSans-49"/>
      </g>
     </g>
    </g>
    <g id="ytick_5">
     <g id="line2d_12">
      <g>
       <use style="stroke:#000000;stroke-width:0.8;" x="50.55" xlink:href="#ma31964bae7" y="37.374329"/>
      </g>
     </g>
     <g id="text_13">
      <!-- 2 -->
      <g transform="translate(37.1875 41.173548)scale(0.1 -0.1)">
       <use xlink:href="#DejaVuSans-50"/>
      </g>
     </g>
    </g>
    <g id="text_14">
     <!-- Position [mm] -->
     <defs>
      <path d="M 19.671875 64.796875 
L 19.671875 37.40625 
L 32.078125 37.40625 
Q 38.96875 37.40625 42.71875 40.96875 
Q 46.484375 44.53125 46.484375 51.125 
Q 46.484375 57.671875 42.71875 61.234375 
Q 38.96875 64.796875 32.078125 64.796875 
z
M 9.8125 72.90625 
L 32.078125 72.90625 
Q 44.34375 72.90625 50.609375 67.359375 
Q 56.890625 61.8125 56.890625 51.125 
Q 56.890625 40.328125 50.609375 34.8125 
Q 44.34375 29.296875 32.078125 29.296875 
L 19.671875 29.296875 
L 19.671875 0 
L 9.8125 0 
z
" id="DejaVuSans-80"/>
      <path d="M 54.890625 33.015625 
L 54.890625 0 
L 45.90625 0 
L 45.90625 32.71875 
Q 45.90625 40.484375 42.875 44.328125 
Q 39.84375 48.1875 33.796875 48.1875 
Q 26.515625 48.1875 22.3125 43.546875 
Q 18.109375 38.921875 18.109375 30.90625 
L 18.109375 0 
L 9.078125 0 
L 9.078125 54.6875 
L 18.109375 54.6875 
L 18.109375 46.1875 
Q 21.34375 51.125 25.703125 53.5625 
Q 30.078125 56 35.796875 56 
Q 45.21875 56 50.046875 50.171875 
Q 54.890625 44.34375 54.890625 33.015625 
z
" id="DejaVuSans-110"/>
     </defs>
     <g transform="translate(21.89625 157.073438)rotate(-90)scale(0.14 -0.14)">
      <use xlink:href="#DejaVuSans-80"/>
      <use x="56.677734" xlink:href="#DejaVuSans-111"/>
      <use x="117.859375" xlink:href="#DejaVuSans-115"/>
      <use x="169.958984" xlink:href="#DejaVuSans-105"/>
      <use x="197.742188" xlink:href="#DejaVuSans-116"/>
      <use x="236.951172" xlink:href="#DejaVuSans-105"/>
      <use x="264.734375" xlink:href="#DejaVuSans-111"/>
      <use x="325.916016" xlink:href="#DejaVuSans-110"/>
      <use x="389.294922" xlink:href="#DejaVuSans-32"/>
      <use x="421.082031" xlink:href="#DejaVuSans-91"/>
      <use x="460.095703" xlink:href="#DejaVuSans-109"/>
      <use x="557.507812" xlink:href="#DejaVuSans-109"/>
      <use x="654.919922" xlink:href="#DejaVuSans-93"/>
     </g>
    </g>
   </g>
   <g id="line2d_13">
    <path clip-path="url(#pf2409da1ed)" d="M 67.615118 197.318182 
L 67.615118 197.140368 
L 74.169901 196.606925 
L 110.065677 193.761898 
L 134.400678 191.628128 
L 154.154652 189.672172 
L 169.979401 187.89403 
L 183.982576 186.115889 
L 197.589128 184.159933 
L 209.620099 182.203977 
L 220.33871 180.248021 
L 233.538135 177.580808 
L 250.095599 174.024525 
L 265.631634 170.468241 
L 280.223001 166.911957 
L 293.921787 163.355674 
L 306.765842 159.79939 
L 318.783505 156.243107 
L 329.454144 152.864637 
L 339.411095 149.486168 
L 348.662958 146.107699 
L 356.781534 142.907043 
L 363.872055 139.884202 
L 370.399608 136.861361 
L 376.024296 134.016335 
L 380.834407 131.349122 
L 385.188676 128.681909 
L 388.832738 126.192511 
L 391.844565 123.880926 
L 394.488215 121.569342 
L 396.591546 119.435572 
L 398.225712 117.479616 
L 399.568314 115.52366 
L 400.525714 113.745518 
L 401.221377 111.967376 
L 401.613073 110.367049 
L 401.771049 108.766721 
L 401.684755 107.166394 
L 401.360829 105.566066 
L 400.811235 103.965738 
L 399.948029 102.187597 
L 398.830106 100.409455 
L 397.317784 98.453499 
L 395.520003 96.497543 
L 393.244097 94.363773 
L 390.649687 92.230003 
L 387.489555 89.918418 
L 383.68991 87.42902 
L 379.488187 84.939621 
L 374.548568 82.272409 
L 368.788191 79.427382 
L 362.526505 76.582355 
L 355.328467 73.559514 
L 347.097073 70.358859 
L 338.237423 67.158204 
L 328.199362 63.779734 
L 317.447706 60.401265 
L 305.969066 57.022796 
L 293.080643 53.466512 
L 279.337778 49.910228 
L 264.702326 46.353945 
L 249.121623 42.797661 
L 232.517641 39.241378 
L 217.377881 36.218537 
L 206.332192 34.262581 
L 193.910133 32.306625 
L 181.190036 30.528483 
L 166.85723 28.750341 
L 150.657257 26.972199 
L 132.407608 25.194058 
L 110.020854 23.238102 
L 78.808701 20.748703 
L 67.615118 19.859632 
L 67.615118 19.681818 
L 67.615118 19.681818 
" style="fill:none;stroke:#808080;stroke-linecap:square;stroke-width:1.5;"/>
   </g>
   <g id="line2d_14">
    <path clip-path="url(#pf2409da1ed)" d="M 68.888387 197.318182 
L 72.06306 196.962553 
L 108.340444 194.117527 
L 133.117057 191.983756 
L 153.329288 190.027801 
L 169.546836 188.249659 
L 183.893947 186.471517 
L 197.819681 184.515561 
L 210.115877 182.559605 
L 221.05603 180.603649 
L 232.673011 178.292065 
L 249.447577 174.735781 
L 265.180672 171.179498 
L 279.95622 167.623214 
L 293.830129 164.066931 
L 306.842601 160.510647 
L 319.023644 156.954363 
L 330.3957 153.39808 
L 340.464657 150.019611 
L 349.827451 146.641141 
L 358.050716 143.440486 
L 365.240256 140.417645 
L 371.867453 137.394804 
L 377.586945 134.549777 
L 382.797875 131.70475 
L 387.21344 129.037538 
L 390.916016 126.548139 
L 393.98357 124.236555 
L 396.684577 121.92497 
L 398.842587 119.7912 
L 400.528622 117.835244 
L 401.925073 115.879288 
L 402.933465 114.101147 
L 403.682433 112.323005 
L 404.124462 110.722677 
L 404.335462 109.12235 
L 404.303597 107.522022 
L 404.031367 105.921694 
L 403.530994 104.321367 
L 402.720054 102.543225 
L 401.652242 100.765083 
L 400.192947 98.809127 
L 398.446332 96.853171 
L 396.224452 94.719401 
L 393.682491 92.585631 
L 390.577688 90.274047 
L 386.836194 87.784648 
L 382.691416 85.29525 
L 377.811752 82.628037 
L 372.114423 79.78301 
L 365.915143 76.937983 
L 358.78302 73.915142 
L 351.091204 70.892301 
L 342.336461 67.691646 
L 332.410146 64.313177 
L 321.771935 60.934707 
L 310.409166 57.556238 
L 297.646253 53.999954 
L 284.033713 50.443671 
L 269.53507 46.887387 
L 254.100324 43.331104 
L 237.656358 39.77482 
L 221.835222 36.574165 
L 211.014291 34.618209 
L 198.861491 32.662253 
L 186.433446 30.884111 
L 172.443977 29.10597 
L 156.636101 27.327828 
L 138.802867 25.549686 
L 116.833524 23.59373 
L 88.273204 21.282146 
L 68.888858 19.681818 
L 68.888858 19.681818 
" style="fill:none;stroke:#808080;stroke-dasharray:5.55,2.4;stroke-dashoffset:0;stroke-width:1.5;"/>
   </g>
   <g id="line2d_15">
    <path clip-path="url(#pf2409da1ed)" d="M 67.615118 197.318182 
L 67.615118 197.140368 
L 73.615695 196.784739 
L 104.81285 194.295341 
L 126.717731 192.339385 
L 146.173037 190.383429 
L 163.354837 188.427473 
L 178.540332 186.471517 
L 192.012331 184.515561 
L 204.02354 182.559605 
L 215.711548 180.425835 
L 227.987452 177.936436 
L 245.349145 174.202339 
L 261.632793 170.468241 
L 276.89689 166.734143 
L 290.529736 163.17786 
L 303.313851 159.621576 
L 315.275364 156.065293 
L 325.89517 152.686823 
L 335.803191 149.308354 
L 345.007668 145.929884 
L 353.082517 142.729229 
L 360.132583 139.706388 
L 366.620317 136.683547 
L 372.207945 133.83852 
L 376.98353 131.171308 
L 381.303328 128.504095 
L 384.915117 126.014697 
L 387.89674 123.703112 
L 390.509803 121.391528 
L 392.584392 119.257758 
L 394.191626 117.301802 
L 395.50655 115.345846 
L 396.437956 113.567704 
L 397.106608 111.789562 
L 397.472893 110.189235 
L 397.604133 108.588907 
L 397.490833 106.988579 
L 397.141386 105.388252 
L 396.567572 103.787924 
L 395.678792 102.009783 
L 394.536537 100.231641 
L 392.998725 98.275685 
L 391.176648 96.319729 
L 388.875456 94.185959 
L 386.024644 91.874374 
L 382.81203 89.56279 
L 378.957778 87.073392 
L 374.384149 84.406179 
L 369.359681 81.738966 
L 363.510806 78.893939 
L 357.162272 76.048913 
L 349.873324 73.026072 
L 341.546716 69.825416 
L 332.592431 66.624761 
L 322.454573 63.246292 
L 311.602721 59.867822 
L 300.023111 56.489353 
L 287.027542 52.933069 
L 273.17764 49.376786 
L 258.438887 45.820502 
L 242.768762 42.264219 
L 226.115423 38.707935 
L 211.814413 35.862908 
L 200.737015 33.906952 
L 188.360668 31.950996 
L 174.460996 29.99504 
L 160.283238 28.216899 
L 144.415149 26.438757 
L 126.651897 24.660615 
L 104.774053 22.704659 
L 78.257042 20.570889 
L 67.615118 19.681818 
L 67.615118 19.681818 
" style="fill:none;stroke:#0000ff;stroke-linecap:square;stroke-width:1.5;"/>
   </g>
   <g id="line2d_16">
    <path clip-path="url(#pf2409da1ed)" d="M 69.215512 197.318182 
L 83.146927 196.251297 
L 111.557016 193.939712 
L 133.013224 191.983756 
L 152.037191 190.027801 
L 168.834434 188.071845 
L 183.687987 186.115889 
L 196.876699 184.159933 
L 208.646462 182.203977 
L 220.110718 180.070207 
L 234.801216 177.047366 
L 251.900263 173.313268 
L 267.9363 169.57917 
L 282.965014 165.845072 
L 296.382869 162.288789 
L 308.959133 158.732505 
L 320.718349 155.176222 
L 331.149809 151.797752 
L 340.872058 148.419283 
L 349.434934 145.218628 
L 357.370431 142.017973 
L 364.288518 138.995131 
L 370.643262 135.97229 
L 376.10419 133.127264 
L 380.759078 130.460051 
L 384.690421 127.970652 
L 388.214011 125.481254 
L 391.111534 123.16967 
L 393.457031 121.0359 
L 395.476534 118.902129 
L 397.031442 116.946173 
L 398.29196 114.990217 
L 399.171759 113.212076 
L 399.737201 111.611748 
L 400.07798 110.011421 
L 400.18229 108.411093 
L 400.042097 106.810765 
L 399.667179 105.210438 
L 399.069074 103.61011 
L 398.154466 101.831968 
L 396.987419 100.053827 
L 395.423345 98.097871 
L 393.575902 96.141915 
L 391.247904 94.008145 
L 388.368907 91.69656 
L 385.12885 89.384976 
L 381.245725 86.895577 
L 376.641792 84.228365 
L 371.587527 81.561152 
L 365.70728 78.716125 
L 358.912435 75.693284 
L 351.557737 72.670443 
L 343.161515 69.469788 
L 334.137261 66.269133 
L 323.924764 62.890663 
L 312.997032 59.512194 
L 300.70575 55.95591 
L 287.583947 52.399627 
L 273.603101 48.843343 
L 258.727565 45.28706 
L 242.91351 41.730776 
L 226.107563 38.174493 
L 213.434537 35.685094 
L 202.247316 33.729138 
L 189.742338 31.773182 
L 175.691713 29.817226 
L 161.354739 28.039085 
L 145.305771 26.260943 
L 127.343799 24.482801 
L 105.242892 22.526845 
L 78.520311 20.393075 
L 69.216195 19.681818 
L 69.216195 19.681818 
" style="fill:none;stroke:#0000ff;stroke-dasharray:5.55,2.4;stroke-dashoffset:0;stroke-width:1.5;"/>
   </g>
   <g id="line2d_17">
    <path clip-path="url(#pf2409da1ed)" d="M 67.615118 197.318182 
L 67.615118 197.140368 
L 70.937398 196.784739 
L 102.134779 194.295341 
L 124.039352 192.339385 
L 143.494362 190.383429 
L 160.675882 188.427473 
L 175.861112 186.471517 
L 189.332862 184.515561 
L 201.343835 182.559605 
L 213.031601 180.425835 
L 225.307234 177.936436 
L 242.668511 174.202339 
L 258.951731 170.468241 
L 274.215389 166.734143 
L 287.847807 163.17786 
L 300.631484 159.621576 
L 312.59255 156.065293 
L 323.211922 152.686823 
L 333.119502 149.308354 
L 342.323527 145.929884 
L 350.397939 142.729229 
L 357.447585 139.706388 
L 363.934888 136.683547 
L 369.522103 133.83852 
L 374.297291 131.171308 
L 378.616684 128.504095 
L 382.228086 126.014697 
L 385.209342 123.703112 
L 387.822028 121.391528 
L 389.896262 119.257758 
L 391.503161 117.301802 
L 392.817742 115.345846 
L 393.748828 113.567704 
L 394.417151 111.789562 
L 394.783132 110.189235 
L 394.914058 108.588907 
L 394.800443 106.988579 
L 394.45069 105.388252 
L 393.876577 103.787924 
L 392.987472 102.009783 
L 391.8449 100.231641 
L 390.306746 98.275685 
L 388.484333 96.319729 
L 386.182782 94.185959 
L 383.331588 91.874374 
L 380.118598 89.56279 
L 376.263948 87.073392 
L 371.689898 84.406179 
L 366.665013 81.738966 
L 360.815699 78.893939 
L 354.466729 76.048913 
L 347.177321 73.026072 
L 338.850228 69.825416 
L 329.895458 66.624761 
L 319.757088 63.246292 
L 308.904721 59.867822 
L 297.324592 56.489353 
L 284.32847 52.933069 
L 270.478006 49.376786 
L 255.73868 45.820502 
L 240.067966 42.264219 
L 223.41402 38.707935 
L 209.1125 35.862908 
L 198.034713 33.906952 
L 185.657936 31.950996 
L 171.757784 29.99504 
L 157.579539 28.216899 
L 141.710906 26.438757 
L 123.947049 24.660615 
L 102.068459 22.704659 
L 75.550543 20.570889 
L 67.615118 19.859632 
L 67.615118 19.681818 
L 67.615118 19.681818 
" style="fill:none;stroke:#ffa500;stroke-linecap:square;stroke-width:1.5;"/>
   </g>
   <g id="line2d_18">
    <path clip-path="url(#pf2409da1ed)" d="M 68.899914 197.318182 
L 73.516741 196.784739 
L 104.713418 194.295341 
L 126.61799 192.339385 
L 146.073003 190.383429 
L 163.254527 188.427473 
L 178.439761 186.471517 
L 191.911515 184.515561 
L 203.92249 182.559605 
L 215.610259 180.425835 
L 227.885901 177.936436 
L 245.247178 174.202339 
L 261.530398 170.468241 
L 276.794055 166.734143 
L 290.426473 163.17786 
L 303.210151 159.621576 
L 315.171216 156.065293 
L 325.790588 152.686823 
L 335.698168 149.308354 
L 344.902193 145.929884 
L 352.976605 142.729229 
L 360.026251 139.706388 
L 366.513554 136.683547 
L 372.100769 133.83852 
L 376.875957 131.171308 
L 381.19535 128.504095 
L 384.806752 126.014697 
L 387.788008 123.703112 
L 390.400694 121.391528 
L 392.474927 119.257758 
L 394.081826 117.301802 
L 395.396407 115.345846 
L 396.327493 113.567704 
L 396.995816 111.789562 
L 397.361797 110.189235 
L 397.492722 108.588907 
L 397.379108 106.988579 
L 397.029355 105.388252 
L 396.455242 103.787924 
L 395.566137 102.009783 
L 394.423565 100.231641 
L 392.885411 98.275685 
L 391.062998 96.319729 
L 388.761448 94.185959 
L 385.910254 91.874374 
L 382.697264 89.56279 
L 378.842614 87.073392 
L 374.268563 84.406179 
L 369.243679 81.738966 
L 363.394365 78.893939 
L 357.045395 76.048913 
L 349.755987 73.026072 
L 341.428895 69.825416 
L 332.474124 66.624761 
L 322.335754 63.246292 
L 311.483387 59.867822 
L 299.903258 56.489353 
L 286.907136 52.933069 
L 273.056672 49.376786 
L 258.317346 45.820502 
L 242.646633 42.264219 
L 225.992687 38.707935 
L 211.691156 35.862908 
L 200.613368 33.906952 
L 188.236587 31.950996 
L 174.336431 29.99504 
L 160.158183 28.216899 
L 144.289547 26.438757 
L 126.525687 24.660615 
L 104.647098 22.704659 
L 78.12919 20.570889 
L 70.237869 19.859632 
L 68.900421 19.681818 
L 68.900421 19.681818 
" style="fill:none;stroke:#ffa500;stroke-dasharray:5.55,2.4;stroke-dashoffset:0;stroke-width:1.5;"/>
   </g>
   <g id="line2d_19">
    <path clip-path="url(#pf2409da1ed)" d="M 67.615118 197.318182 
L 67.615118 197.140368 
L 67.406873 196.962553 
L 70.444286 196.606925 
L 99.310756 194.295341 
L 121.215144 192.339385 
L 140.669969 190.383429 
L 157.851307 188.427473 
L 173.036359 186.471517 
L 186.507938 184.515561 
L 198.518746 182.559605 
L 210.206337 180.425835 
L 222.481772 177.936436 
L 239.84274 174.202339 
L 256.125634 170.468241 
L 271.388953 166.734143 
L 285.021037 163.17786 
L 297.80437 159.621576 
L 309.76508 156.065293 
L 320.384105 152.686823 
L 330.291328 149.308354 
L 339.494988 145.929884 
L 347.569045 142.729229 
L 354.618347 139.706388 
L 361.105299 136.683547 
L 366.692174 133.83852 
L 371.467037 131.171308 
L 375.786097 128.504095 
L 379.397179 126.014697 
L 382.378132 123.703112 
L 384.990507 121.391528 
L 387.064446 119.257758 
L 388.671067 117.301802 
L 389.985364 115.345846 
L 390.916184 113.567704 
L 391.584234 111.789562 
L 391.949962 110.189235 
L 392.080628 108.588907 
L 391.966751 106.988579 
L 391.616743 105.388252 
L 391.042381 103.787924 
L 390.153005 102.009783 
L 389.010169 100.231641 
L 387.47173 98.275685 
L 385.649037 96.319729 
L 383.347186 94.185959 
L 380.495672 91.874374 
L 377.282368 89.56279 
L 373.427383 87.073392 
L 368.852979 84.406179 
L 363.827745 81.738966 
L 357.97806 78.893939 
L 351.628723 76.048913 
L 344.338925 73.026072 
L 336.01142 69.825416 
L 327.056237 66.624761 
L 316.917429 63.246292 
L 306.06462 59.867822 
L 294.484044 56.489353 
L 281.487442 52.933069 
L 267.636489 49.376786 
L 252.89666 45.820502 
L 237.225427 42.264219 
L 220.570941 38.707935 
L 206.268965 35.862908 
L 195.190828 33.906952 
L 182.813661 31.950996 
L 168.913073 29.99504 
L 154.734384 28.216899 
L 138.865254 26.438757 
L 121.100837 24.660615 
L 99.221556 22.704659 
L 72.702795 20.570889 
L 68.755551 20.215261 
L 67.397727 20.037447 
L 67.615118 19.859632 
L 67.615118 19.681818 
L 67.615118 19.681818 
" style="fill:none;stroke:#008000;stroke-linecap:square;stroke-width:1.5;"/>
   </g>
   <g id="line2d_20">
    <path clip-path="url(#pf2409da1ed)" d="M 68.377868 197.318182 
L 68.75235 197.140368 
L 73.023978 196.606925 
L 101.889395 194.295341 
L 123.793782 192.339385 
L 143.24861 190.383429 
L 160.429951 188.427473 
L 175.615008 186.471517 
L 189.08659 184.515561 
L 201.097401 182.559605 
L 212.784995 180.425835 
L 225.060439 177.936436 
L 242.421406 174.202339 
L 258.704301 170.468241 
L 273.96762 166.734143 
L 287.599704 163.17786 
L 300.383036 159.621576 
L 312.343746 156.065293 
L 322.962771 152.686823 
L 332.869995 149.308354 
L 342.073654 145.929884 
L 350.147711 142.729229 
L 357.197013 139.706388 
L 363.683965 136.683547 
L 369.27084 133.83852 
L 374.045703 131.171308 
L 378.364762 128.504095 
L 381.975845 126.014697 
L 384.956797 123.703112 
L 387.569172 121.391528 
L 389.643111 119.257758 
L 391.249732 117.301802 
L 392.564029 115.345846 
L 393.494849 113.567704 
L 394.162899 111.789562 
L 394.528627 110.189235 
L 394.659292 108.588907 
L 394.545415 106.988579 
L 394.195408 105.388252 
L 393.621046 103.787924 
L 392.73167 102.009783 
L 391.588834 100.231641 
L 390.050395 98.275685 
L 388.227702 96.319729 
L 385.925852 94.185959 
L 383.074338 91.874374 
L 379.861033 89.56279 
L 376.006049 87.073392 
L 371.431645 84.406179 
L 366.406411 81.738966 
L 360.556726 78.893939 
L 354.207389 76.048913 
L 346.917591 73.026072 
L 338.590087 69.825416 
L 329.634903 66.624761 
L 319.496095 63.246292 
L 308.643287 59.867822 
L 297.06271 56.489353 
L 284.066109 52.933069 
L 270.215156 49.376786 
L 255.475326 45.820502 
L 239.804093 42.264219 
L 223.149608 38.707935 
L 208.847622 35.862908 
L 197.769483 33.906952 
L 185.392313 31.950996 
L 171.491721 29.99504 
L 157.313028 28.216899 
L 141.443894 26.438757 
L 123.679475 24.660615 
L 101.800194 22.704659 
L 75.281442 20.570889 
L 71.334641 20.215261 
L 68.752775 19.859632 
L 68.378015 19.681818 
L 68.378015 19.681818 
" style="fill:none;stroke:#008000;stroke-dasharray:5.55,2.4;stroke-dashoffset:0;stroke-width:1.5;"/>
   </g>
   <g id="patch_3">
    <path d="M 50.55 206.2 
L 50.55 10.8 
" style="fill:none;stroke:#000000;stroke-linecap:square;stroke-linejoin:miter;stroke-width:0.8;"/>
   </g>
   <g id="patch_4">
    <path d="M 421.2 206.2 
L 421.2 10.8 
" style="fill:none;stroke:#000000;stroke-linecap:square;stroke-linejoin:miter;stroke-width:0.8;"/>
   </g>
   <g id="patch_5">
    <path d="M 50.55 206.2 
L 421.2 206.2 
" style="fill:none;stroke:#000000;stroke-linecap:square;stroke-linejoin:miter;stroke-width:0.8;"/>
   </g>
   <g id="patch_6">
    <path d="M 50.55 10.8 
L 421.2 10.8 
" style="fill:none;stroke:#000000;stroke-linecap:square;stroke-linejoin:miter;stroke-width:0.8;"/>
   </g>
   <g id="legend_1">
    <g id="patch_7">
     <path d="M 57.55 141.639062 
L 148.35 141.639062 
Q 150.35 141.639062 150.35 139.639062 
L 150.35 77.360937 
Q 150.35 75.360937 148.35 75.360937 
L 57.55 75.360937 
Q 55.55 75.360937 55.55 77.360937 
L 55.55 139.639062 
Q 55.55 141.639062 57.55 141.639062 
z
" style="fill:#ffffff;opacity:0.8;stroke:#cccccc;stroke-linejoin:miter;"/>
    </g>
    <g id="line2d_21">
     <path d="M 59.55 83.459375 
L 79.55 83.459375 
" style="fill:none;stroke:#808080;stroke-linecap:square;stroke-width:1.5;"/>
    </g>
    <g id="line2d_22"/>
    <g id="text_15">
     <!-- Driest -->
     <defs>
      <path d="M 19.671875 64.796875 
L 19.671875 8.109375 
L 31.59375 8.109375 
Q 46.6875 8.109375 53.6875 14.9375 
Q 60.6875 21.78125 60.6875 36.53125 
Q 60.6875 51.171875 53.6875 57.984375 
Q 46.6875 64.796875 31.59375 64.796875 
z
M 9.8125 72.90625 
L 30.078125 72.90625 
Q 51.265625 72.90625 61.171875 64.09375 
Q 71.09375 55.28125 71.09375 36.53125 
Q 71.09375 17.671875 61.125 8.828125 
Q 51.171875 0 30.078125 0 
L 9.8125 0 
z
" id="DejaVuSans-68"/>
      <path d="M 41.109375 46.296875 
Q 39.59375 47.171875 37.8125 47.578125 
Q 36.03125 48 33.890625 48 
Q 26.265625 48 22.1875 43.046875 
Q 18.109375 38.09375 18.109375 28.8125 
L 18.109375 0 
L 9.078125 0 
L 9.078125 54.6875 
L 18.109375 54.6875 
L 18.109375 46.1875 
Q 20.953125 51.171875 25.484375 53.578125 
Q 30.03125 56 36.53125 56 
Q 37.453125 56 38.578125 55.875 
Q 39.703125 55.765625 41.0625 55.515625 
z
" id="DejaVuSans-114"/>
     </defs>
     <g transform="translate(87.55 86.959375)scale(0.1 -0.1)">
      <use xlink:href="#DejaVuSans-68"/>
      <use x="77.001953" xlink:href="#DejaVuSans-114"/>
      <use x="118.115234" xlink:href="#DejaVuSans-105"/>
      <use x="145.898438" xlink:href="#DejaVuSans-101"/>
      <use x="207.421875" xlink:href="#DejaVuSans-115"/>
      <use x="259.521484" xlink:href="#DejaVuSans-116"/>
     </g>
    </g>
    <g id="line2d_23">
     <path d="M 59.55 98.839062 
L 79.55 98.839062 
" style="fill:none;stroke:#0000ff;stroke-linecap:square;stroke-width:1.5;"/>
    </g>
    <g id="line2d_24"/>
    <g id="text_16">
     <!-- $k_s^+$ = 7.51 -->
     <defs>
      <path d="M 18.3125 75.984375 
L 27.296875 75.984375 
L 18.703125 31.6875 
L 49.515625 54.6875 
L 61.1875 54.6875 
L 26.8125 28.515625 
L 51.90625 0 
L 41.015625 0 
L 17.671875 26.703125 
L 12.5 0 
L 3.515625 0 
z
" id="DejaVuSans-Oblique-107"/>
      <path d="M 46 62.703125 
L 46 35.5 
L 73.1875 35.5 
L 73.1875 27.203125 
L 46 27.203125 
L 46 0 
L 37.796875 0 
L 37.796875 27.203125 
L 10.59375 27.203125 
L 10.59375 35.5 
L 37.796875 35.5 
L 37.796875 62.703125 
z
" id="DejaVuSans-43"/>
      <path d="M 50 53.078125 
L 48.296875 44.578125 
Q 44.734375 46.53125 40.765625 47.5 
Q 36.8125 48.484375 32.625 48.484375 
Q 25.53125 48.484375 21.453125 46.0625 
Q 17.390625 43.65625 17.390625 39.5 
Q 17.390625 34.671875 26.859375 32.078125 
Q 27.59375 31.890625 27.9375 31.78125 
L 30.8125 30.90625 
Q 39.796875 28.421875 42.796875 25.6875 
Q 45.796875 22.953125 45.796875 18.21875 
Q 45.796875 9.515625 38.890625 4.046875 
Q 31.984375 -1.421875 20.796875 -1.421875 
Q 16.453125 -1.421875 11.671875 -0.578125 
Q 6.890625 0.25 1.125 2 
L 2.875 11.28125 
Q 7.8125 8.734375 12.59375 7.421875 
Q 17.390625 6.109375 21.78125 6.109375 
Q 28.375 6.109375 32.5 8.9375 
Q 36.625 11.765625 36.625 16.109375 
Q 36.625 20.796875 25.78125 23.6875 
L 24.859375 23.921875 
L 21.78125 24.703125 
Q 14.9375 26.515625 11.765625 29.46875 
Q 8.59375 32.421875 8.59375 37.015625 
Q 8.59375 45.75 15.15625 50.875 
Q 21.734375 56 33.015625 56 
Q 37.453125 56 41.671875 55.265625 
Q 45.90625 54.546875 50 53.078125 
z
" id="DejaVuSans-Oblique-115"/>
      <path d="M 10.59375 45.40625 
L 73.1875 45.40625 
L 73.1875 37.203125 
L 10.59375 37.203125 
z
M 10.59375 25.484375 
L 73.1875 25.484375 
L 73.1875 17.1875 
L 10.59375 17.1875 
z
" id="DejaVuSans-61"/>
      <path d="M 8.203125 72.90625 
L 55.078125 72.90625 
L 55.078125 68.703125 
L 28.609375 0 
L 18.3125 0 
L 43.21875 64.59375 
L 8.203125 64.59375 
z
" id="DejaVuSans-55"/>
     </defs>
     <g transform="translate(87.55 102.339062)scale(0.1 -0.1)">
      <use transform="translate(0 0.826562)" xlink:href="#DejaVuSans-Oblique-107"/>
      <use transform="translate(78.99556 39.107813)scale(0.7)" xlink:href="#DejaVuSans-43"/>
      <use transform="translate(57.910156 -26.517188)scale(0.7)" xlink:href="#DejaVuSans-Oblique-115"/>
      <use transform="translate(154.019974 0.826562)" xlink:href="#DejaVuSans-32"/>
      <use transform="translate(185.807083 0.826562)" xlink:href="#DejaVuSans-61"/>
      <use transform="translate(269.596146 0.826562)" xlink:href="#DejaVuSans-32"/>
      <use transform="translate(301.383255 0.826562)" xlink:href="#DejaVuSans-55"/>
      <use transform="translate(365.006302 0.826562)" xlink:href="#DejaVuSans-46"/>
      <use transform="translate(396.793411 0.826562)" xlink:href="#DejaVuSans-53"/>
      <use transform="translate(460.416458 0.826562)" xlink:href="#DejaVuSans-49"/>
     </g>
    </g>
    <g id="line2d_25">
     <path d="M 59.55 115.039062 
L 79.55 115.039062 
" style="fill:none;stroke:#ffa500;stroke-linecap:square;stroke-width:1.5;"/>
    </g>
    <g id="line2d_26"/>
    <g id="text_17">
     <!-- $k_s^+$ = 26.91 -->
     <defs>
      <path d="M 33.015625 40.375 
Q 26.375 40.375 22.484375 35.828125 
Q 18.609375 31.296875 18.609375 23.390625 
Q 18.609375 15.53125 22.484375 10.953125 
Q 26.375 6.390625 33.015625 6.390625 
Q 39.65625 6.390625 43.53125 10.953125 
Q 47.40625 15.53125 47.40625 23.390625 
Q 47.40625 31.296875 43.53125 35.828125 
Q 39.65625 40.375 33.015625 40.375 
z
M 52.59375 71.296875 
L 52.59375 62.3125 
Q 48.875 64.0625 45.09375 64.984375 
Q 41.3125 65.921875 37.59375 65.921875 
Q 27.828125 65.921875 22.671875 59.328125 
Q 17.53125 52.734375 16.796875 39.40625 
Q 19.671875 43.65625 24.015625 45.921875 
Q 28.375 48.1875 33.59375 48.1875 
Q 44.578125 48.1875 50.953125 41.515625 
Q 57.328125 34.859375 57.328125 23.390625 
Q 57.328125 12.15625 50.6875 5.359375 
Q 44.046875 -1.421875 33.015625 -1.421875 
Q 20.359375 -1.421875 13.671875 8.265625 
Q 6.984375 17.96875 6.984375 36.375 
Q 6.984375 53.65625 15.1875 63.9375 
Q 23.390625 74.21875 37.203125 74.21875 
Q 40.921875 74.21875 44.703125 73.484375 
Q 48.484375 72.75 52.59375 71.296875 
z
" id="DejaVuSans-54"/>
      <path d="M 10.984375 1.515625 
L 10.984375 10.5 
Q 14.703125 8.734375 18.5 7.8125 
Q 22.3125 6.890625 25.984375 6.890625 
Q 35.75 6.890625 40.890625 13.453125 
Q 46.046875 20.015625 46.78125 33.40625 
Q 43.953125 29.203125 39.59375 26.953125 
Q 35.25 24.703125 29.984375 24.703125 
Q 19.046875 24.703125 12.671875 31.3125 
Q 6.296875 37.9375 6.296875 49.421875 
Q 6.296875 60.640625 12.9375 67.421875 
Q 19.578125 74.21875 30.609375 74.21875 
Q 43.265625 74.21875 49.921875 64.515625 
Q 56.59375 54.828125 56.59375 36.375 
Q 56.59375 19.140625 48.40625 8.859375 
Q 40.234375 -1.421875 26.421875 -1.421875 
Q 22.703125 -1.421875 18.890625 -0.6875 
Q 15.09375 0.046875 10.984375 1.515625 
z
M 30.609375 32.421875 
Q 37.25 32.421875 41.125 36.953125 
Q 45.015625 41.5 45.015625 49.421875 
Q 45.015625 57.28125 41.125 61.84375 
Q 37.25 66.40625 30.609375 66.40625 
Q 23.96875 66.40625 20.09375 61.84375 
Q 16.21875 57.28125 16.21875 49.421875 
Q 16.21875 41.5 20.09375 36.953125 
Q 23.96875 32.421875 30.609375 32.421875 
z
" id="DejaVuSans-57"/>
     </defs>
     <g transform="translate(87.55 118.539062)scale(0.1 -0.1)">
      <use transform="translate(0 0.826562)" xlink:href="#DejaVuSans-Oblique-107"/>
      <use transform="translate(78.99556 39.107813)scale(0.7)" xlink:href="#DejaVuSans-43"/>
      <use transform="translate(57.910156 -26.517188)scale(0.7)" xlink:href="#DejaVuSans-Oblique-115"/>
      <use transform="translate(154.019974 0.826562)" xlink:href="#DejaVuSans-32"/>
      <use transform="translate(185.807083 0.826562)" xlink:href="#DejaVuSans-61"/>
      <use transform="translate(269.596146 0.826562)" xlink:href="#DejaVuSans-32"/>
      <use transform="translate(301.383255 0.826562)" xlink:href="#DejaVuSans-50"/>
      <use transform="translate(365.006302 0.826562)" xlink:href="#DejaVuSans-54"/>
      <use transform="translate(428.629349 0.826562)" xlink:href="#DejaVuSans-46"/>
      <use transform="translate(460.416458 0.826562)" xlink:href="#DejaVuSans-57"/>
      <use transform="translate(524.039505 0.826562)" xlink:href="#DejaVuSans-49"/>
     </g>
    </g>
    <g id="line2d_27">
     <path d="M 59.55 131.239062 
L 79.55 131.239062 
" style="fill:none;stroke:#008000;stroke-linecap:square;stroke-width:1.5;"/>
    </g>
    <g id="line2d_28"/>
    <g id="text_18">
     <!-- $k_s^+$ = 38.88 -->
     <defs>
      <path d="M 31.78125 34.625 
Q 24.75 34.625 20.71875 30.859375 
Q 16.703125 27.09375 16.703125 20.515625 
Q 16.703125 13.921875 20.71875 10.15625 
Q 24.75 6.390625 31.78125 6.390625 
Q 38.8125 6.390625 42.859375 10.171875 
Q 46.921875 13.96875 46.921875 20.515625 
Q 46.921875 27.09375 42.890625 30.859375 
Q 38.875 34.625 31.78125 34.625 
z
M 21.921875 38.8125 
Q 15.578125 40.375 12.03125 44.71875 
Q 8.5 49.078125 8.5 55.328125 
Q 8.5 64.0625 14.71875 69.140625 
Q 20.953125 74.21875 31.78125 74.21875 
Q 42.671875 74.21875 48.875 69.140625 
Q 55.078125 64.0625 55.078125 55.328125 
Q 55.078125 49.078125 51.53125 44.71875 
Q 48 40.375 41.703125 38.8125 
Q 48.828125 37.15625 52.796875 32.3125 
Q 56.78125 27.484375 56.78125 20.515625 
Q 56.78125 9.90625 50.3125 4.234375 
Q 43.84375 -1.421875 31.78125 -1.421875 
Q 19.734375 -1.421875 13.25 4.234375 
Q 6.78125 9.90625 6.78125 20.515625 
Q 6.78125 27.484375 10.78125 32.3125 
Q 14.796875 37.15625 21.921875 38.8125 
z
M 18.3125 54.390625 
Q 18.3125 48.734375 21.84375 45.5625 
Q 25.390625 42.390625 31.78125 42.390625 
Q 38.140625 42.390625 41.71875 45.5625 
Q 45.3125 48.734375 45.3125 54.390625 
Q 45.3125 60.0625 41.71875 63.234375 
Q 38.140625 66.40625 31.78125 66.40625 
Q 25.390625 66.40625 21.84375 63.234375 
Q 18.3125 60.0625 18.3125 54.390625 
z
" id="DejaVuSans-56"/>
     </defs>
     <g transform="translate(87.55 134.739062)scale(0.1 -0.1)">
      <use transform="translate(0 0.826562)" xlink:href="#DejaVuSans-Oblique-107"/>
      <use transform="translate(78.99556 39.107813)scale(0.7)" xlink:href="#DejaVuSans-43"/>
      <use transform="translate(57.910156 -26.517188)scale(0.7)" xlink:href="#DejaVuSans-Oblique-115"/>
      <use transform="translate(154.019974 0.826562)" xlink:href="#DejaVuSans-32"/>
      <use transform="translate(185.807083 0.826562)" xlink:href="#DejaVuSans-61"/>
      <use transform="translate(269.596146 0.826562)" xlink:href="#DejaVuSans-32"/>
      <use transform="translate(301.383255 0.826562)" xlink:href="#DejaVuSans-51"/>
      <use transform="translate(365.006302 0.826562)" xlink:href="#DejaVuSans-56"/>
      <use transform="translate(428.629349 0.826562)" xlink:href="#DejaVuSans-46"/>
      <use transform="translate(457.791458 0.826562)" xlink:href="#DejaVuSans-56"/>
      <use transform="translate(521.414505 0.826562)" xlink:href="#DejaVuSans-56"/>
     </g>
    </g>
   </g>
  </g>
 </g>
 <defs>
  <clipPath id="pf2409da1ed">
   <rect height="195.4" width="370.65" x="50.55" y="10.8"/>
  </clipPath>
 </defs>
</svg>
